<svg width="266" height="439" viewBox="0 0 266 439" fill="none" xmlns="http://www.w3.org/2000/svg">
<g clip-path="url(#clip0_1331_126)">
<path d="M265.295 28.2057C265.021 29.5748 264.812 30.9628 264.457 32.3131C261.453 43.7385 251.35 51.5965 239.518 51.6341C225.768 51.6787 212.018 51.6599 198.268 51.6176C197.136 51.6129 196.431 51.984 195.694 52.7989C189.052 60.1497 180.83 65.0932 171.605 68.4915C170.253 68.9893 168.919 69.5412 167.582 70.0861C166.27 70.6215 165.154 70.3749 164.461 69.3651C163.764 68.3482 163.895 67.2468 164.919 66.1994C168.494 62.5404 171.161 58.3226 172.808 53.4706C172.993 52.9211 173.137 52.3574 173.313 51.7539C171.455 51.6411 169.663 51.6529 167.907 51.4039C158.341 50.0442 151.549 44.901 147.449 36.1858C146.81 34.8307 147.327 33.4733 148.553 32.9214C149.816 32.3531 151.089 32.8909 151.773 34.3869C153.898 39.0368 157.216 42.5314 161.8 44.8C164.68 46.2255 167.74 46.923 170.95 46.9536C172.592 46.9677 174.231 46.9465 175.873 46.9606C177.902 46.9771 178.881 48.1701 178.503 50.1592C177.737 54.1775 176.382 57.9797 174.355 61.5376C174.222 61.7748 174.095 62.0167 173.825 62.5146C174.475 62.2469 174.919 62.0825 175.346 61.8852C182.333 58.6772 188.373 54.1963 193.378 48.3556C194.245 47.3458 195.198 46.9348 196.523 46.9371C210.78 46.97 225.04 46.9724 239.298 46.9512C249.77 46.9348 258.309 39.8353 260.284 29.5631C262.517 17.9498 254.056 6.38829 242.278 4.97685C241.158 4.84299 240.021 4.77488 238.891 4.77488C216.548 4.76314 194.202 4.74905 171.859 4.77488C162.622 4.78662 155.903 8.93169 151.824 17.2617C151.07 18.8023 149.812 19.3871 148.527 18.7883C147.252 18.1941 146.827 16.8249 147.571 15.2961C152.198 5.77533 159.83 0.305725 170.386 0.176558C193.665 -0.109956 216.95 0.0145133 240.23 0.117846C252.7 0.171861 263.548 10.1036 265.07 22.5106C265.112 22.8511 265.218 23.1823 265.295 23.5181C265.295 25.0822 265.295 26.6439 265.295 28.2057Z" fill="white"/>
<path d="M147.628 28.1985C146.336 28.1961 145.263 27.0923 145.296 25.8007C145.329 24.5513 146.385 23.525 147.632 23.5273C148.926 23.5297 150 24.6335 149.964 25.9228C149.932 27.1698 148.875 28.1985 147.628 28.1985Z" fill="white"/>
<path d="M183.773 31L182.484 27.1914H177.113L175.824 31H173.549L178.637 16.9082H181L186.088 31H183.773ZM179.77 19.252L177.67 25.4336H181.928L179.828 19.252H179.77ZM187.387 31V20.7266H189.398V22.4453H189.447C189.734 21.8464 190.15 21.3809 190.697 21.0488C191.244 20.7168 191.905 20.5508 192.68 20.5508C193.806 20.5508 194.682 20.8893 195.307 21.5664C195.932 22.237 196.244 23.1647 196.244 24.3496V31H194.125V24.7598C194.125 23.9785 193.939 23.3861 193.568 22.9824C193.204 22.5723 192.66 22.3672 191.938 22.3672C191.195 22.3672 190.603 22.6081 190.16 23.0898C189.717 23.5716 189.496 24.2129 189.496 25.0137V31H187.387ZM201.879 29.5059C202.621 29.5059 203.243 29.2812 203.744 28.832C204.252 28.3763 204.506 27.8164 204.506 27.1523V26.3418L201.977 26.498C201.345 26.5436 200.857 26.6999 200.512 26.9668C200.173 27.2272 200.004 27.5788 200.004 28.0215C200.004 28.4707 200.173 28.832 200.512 29.1055C200.857 29.3724 201.312 29.5059 201.879 29.5059ZM201.293 31.1758C200.284 31.1758 199.46 30.8893 198.822 30.3164C198.191 29.7435 197.875 28.998 197.875 28.0801C197.875 27.1816 198.207 26.4688 198.871 25.9414C199.535 25.4076 200.476 25.1081 201.693 25.043L204.506 24.877V24.0859C204.506 23.513 204.324 23.0671 203.959 22.748C203.594 22.4225 203.09 22.2598 202.445 22.2598C201.846 22.2598 201.358 22.3932 200.98 22.6602C200.609 22.9271 200.375 23.2949 200.277 23.7637H198.285C198.344 22.8132 198.754 22.0384 199.516 21.4395C200.277 20.8405 201.28 20.541 202.523 20.541C203.767 20.541 204.757 20.847 205.492 21.459C206.234 22.071 206.605 22.8913 206.605 23.9199V31H204.584V29.3105H204.535C204.242 29.877 203.796 30.3294 203.197 30.668C202.605 31.0065 201.97 31.1758 201.293 31.1758ZM208.734 31V16.9082H210.844V31H208.734ZM214.027 34.8281C213.63 34.8281 213.344 34.8118 213.168 34.7793V33.0703C213.272 33.0964 213.5 33.1094 213.852 33.1094C214.346 33.1094 214.734 32.9954 215.014 32.7676C215.294 32.5462 215.515 32.1719 215.678 31.6445C215.678 31.638 215.71 31.5306 215.775 31.3223L215.863 31.0098L212.152 20.7266H214.438L217.045 29.0859H217.074L219.682 20.7266H221.908L218.051 31.5371C217.615 32.7806 217.104 33.64 216.518 34.1152C215.932 34.5905 215.102 34.8281 214.027 34.8281ZM222.963 23.6367C222.963 22.7188 223.334 21.9733 224.076 21.4004C224.818 20.8275 225.788 20.541 226.986 20.541C228.126 20.541 229.06 20.8307 229.789 21.4102C230.525 21.9831 230.909 22.7285 230.941 23.6465H228.959C228.907 23.1777 228.702 22.8099 228.344 22.543C227.986 22.276 227.514 22.1426 226.928 22.1426C226.355 22.1426 225.893 22.2695 225.541 22.5234C225.196 22.7773 225.023 23.1061 225.023 23.5098C225.023 24.1348 225.548 24.5775 226.596 24.8379L228.324 25.2383C229.359 25.4857 230.092 25.8242 230.521 26.2539C230.958 26.6771 231.176 27.2695 231.176 28.0312C231.176 28.9688 230.779 29.7305 229.984 30.3164C229.197 30.9023 228.171 31.1953 226.908 31.1953C225.704 31.1953 224.721 30.9089 223.959 30.3359C223.204 29.763 222.784 29.0013 222.699 28.0508H224.789C224.874 28.5456 225.105 28.9264 225.482 29.1934C225.86 29.4538 226.368 29.584 227.006 29.584C227.637 29.584 228.135 29.4635 228.5 29.2227C228.871 28.9753 229.057 28.6432 229.057 28.2266C229.057 27.8945 228.946 27.6309 228.725 27.4355C228.503 27.2402 228.126 27.0742 227.592 26.9375L225.756 26.4883C223.894 26.0391 222.963 25.0885 222.963 23.6367ZM233.432 18.2949H235.551V20.7266H237.504V22.3965H235.551V28.0605C235.551 28.5033 235.652 28.8288 235.854 29.0371C236.055 29.2454 236.371 29.3496 236.801 29.3496C237.113 29.3496 237.344 29.3333 237.494 29.3008V30.9707C237.234 31.0358 236.843 31.0684 236.322 31.0684C235.287 31.0684 234.545 30.8568 234.096 30.4336C233.653 30.0039 233.432 29.291 233.432 28.2949V22.3965H231.938V20.7266H233.432V18.2949Z" fill="white"/>
</g>
<path fill-rule="evenodd" clip-rule="evenodd" d="M67.9164 168.785L67.7363 170.929L67.6018 170.678C67.5825 175.003 66.9405 179.377 66.2326 183.692C64.3816 182.173 62.8597 180.833 63.2991 178.24C64.4122 174.543 65.8398 170.937 66.9941 167.261L67.1876 168.225L67.9491 168.379L67.9164 168.785V168.785ZM200.113 396.663C199.772 395.16 199.4 393.569 199.052 392.062C199.017 391.935 198.698 391.906 198.596 391.872C196.753 387.368 195.141 386.341 191.572 385.728C185.817 384.689 180.138 382.436 174.702 379.098C174.828 378.601 175.176 377.743 175.491 376.827C175.385 376.865 175.271 376.882 175.159 376.874C174.79 377.738 174.388 378.497 174.176 378.777C173.497 378.34 172.742 377.859 172.077 377.395L172.079 377.387C171.487 376.977 170.755 376.471 170.175 376.155C170.066 375.556 169.187 375.37 168.728 374.974C167.836 374.338 167.341 374.01 166.523 374.823C164.758 372.535 163.337 370.116 161.94 366.989C161.066 365.161 160.636 363.137 159.461 361.505C159.483 361.492 160.231 361.26 160.249 361.239C146.889 331.696 144.749 298.822 141.899 267.244C141.271 260.182 140.613 253.055 139.387 246.2C139.22 245.162 139.069 244.14 138.443 243.312C145.951 237.137 146.023 225.168 142.387 216.29C150.748 193.776 134.359 169.863 135.569 146.886C136.247 131.3 133.436 113.241 115.798 109.501C113.611 108.244 110.989 108.056 108.902 108.023C107.022 107.075 106.727 104.983 106.057 103.263L105.404 103.268C105.208 102.465 105.026 101.66 104.857 100.851C104.609 100.354 104.756 99.7059 103.975 99.8442C102.204 97.2842 88.0297 95.9975 87.8689 100.119C87.3571 100.42 87.2559 101.008 87.1369 101.721C86.3507 106.784 80.936 110.82 76.0567 110.006L75.9779 109.935C55.2054 109.166 47.0287 123.917 42.9693 144.02C39.7979 159.64 37.7818 176.568 40.2657 192.213C42.6922 199.304 50.0415 202.715 55.7274 207.083C55.072 208.732 55.0109 210.551 54.9911 212.335C54.9161 214.394 54.766 216.47 54.5833 218.503C54.2092 221.078 53.6042 225.51 57.1159 225.811C58.476 256.588 61.3174 287.284 56.9755 318.151C53.3716 335.222 54.751 355.876 59.2075 372.578C59.4648 373.404 60.1255 374.146 60.969 373.882C61.3972 374.159 61.7316 374.332 62.0858 374.071C62.2948 374.457 62.5237 374.828 62.7707 375.187C62.8645 379.776 63.3854 384.278 63.148 388.896C62.7943 388.855 62.0162 388.466 61.7139 388.721L61.6705 389.073L61.3827 389.171C60.7798 390.868 60.402 392.649 60.1223 394.087C58.9026 396.55 57.3447 400.91 58.2134 403.654C58.1716 403.702 57.9374 403.974 57.9005 404.015C57.6931 404.134 57.655 404.292 57.6041 404.475C57.0125 404.696 56.9519 405.371 56.8908 406.061C56.5945 407.734 57.0345 409.254 57.1861 410.891L57.1947 410.88L57.6925 411.455C63.9368 411.835 70.0862 411.932 76.3027 412.155C76.7721 411.258 76.913 410.046 77.2657 409.06C84.6359 414.443 97.4058 412.384 106.663 411.062C110.423 410.521 113.975 410.01 117.124 409.839C117.328 409.811 117.343 409.723 117.349 409.642C117.379 408.41 117.611 407.147 117.495 405.951C118.146 405.32 117.85 404.172 117.403 403.163C115.759 399.61 111.293 399.221 107.675 398.615C100.867 397.296 95.3929 394.816 90.9643 391.023C91.2457 390.769 91.5176 390.505 91.7794 390.231L91.4911 390.039C91.2579 389.937 91.035 389.832 90.8303 389.7C90.775 389.732 90.7122 389.749 90.6484 389.749C90.5846 389.748 90.522 389.731 90.467 389.699C90.0222 389.449 89.6594 389.082 89.2365 388.802C89.1529 388.922 89.0683 389.045 88.9836 389.173C88.5784 388.746 88.1192 388.263 87.7183 387.816C87.7039 387.692 87.7366 387.384 87.5854 387.35C86.4456 387.466 85.1246 387.849 83.9322 388.275C82.5839 383.853 81.8031 379.068 81.8931 374.548C83.2189 374.548 84.3802 374.536 85.3684 373.907C85.6391 373.98 86.0153 374.136 86.0849 373.712C86.4863 371.981 86.5908 370.149 86.6916 368.377C88.7435 334.858 91.8694 307.924 102.239 279.53C103.235 283.472 104.906 287.572 106.428 291.497C113.349 307.899 118.336 325.588 122.61 342.804C124.292 349.248 126.12 356.33 127.926 362.707C128.626 365.772 130.049 366.894 133.032 366.87C135.33 366.978 137.637 366.944 139.945 366.783C143.091 369.646 144.381 373.511 145.3 376.991C144.534 377.56 143.319 377.345 142.423 377.533C141.652 378.775 141.918 380.512 141.937 382.044C142.058 384.035 141.954 386.17 142.535 388.05C142.639 390.106 142.652 392.358 142.806 394.749C141.101 395.736 141.414 397.917 141.98 400.005C142.233 400.536 151.4 400.43 153.674 400.408C156.346 400.253 160.157 400.934 161.033 398.01C167.395 401.538 177.074 400.346 184.485 399.307C189.865 398.653 194.738 398.044 200.02 396.934C200.075 396.91 200.151 396.741 200.113 396.663V396.663Z" fill="white"/>
<path fill-rule="evenodd" clip-rule="evenodd" d="M87.5493 99.0122C87.9604 98.9297 88.3146 99.0514 88.5638 99.2764C88.6174 99.8316 88.611 100.385 88.5649 100.939C88.5193 100.978 88.4684 101.017 88.4121 101.052L88.455 101.025C88.4936 101 88.5198 100.982 88.537 100.968C87.9947 104.578 85.4845 107.648 82.2311 109.28C82.0296 109.611 81.5741 109.589 81.2472 109.738L80.7874 109.883C79.5216 110.279 78.2408 110.653 76.9021 110.678C80.3062 120.224 93.6178 125.409 103.034 126.114C111.167 126.542 115.68 119.809 113.534 112.257C108.823 111.649 104.191 106.645 105.899 101.811L105.953 101.664C105.964 101.615 106.03 101.632 106.036 101.676C106.088 102.168 106.382 102.711 106.513 103.192L106.573 103.363C107.026 104.667 107.428 106.221 108.708 106.915L108.927 106.92C111.23 106.98 113.634 107.283 115.661 108.422C117.921 108.865 120.082 109.759 122.094 110.866C137.98 119.477 135.438 137.79 135.932 153.041C137.474 173.939 150.228 194.824 142.706 215.805C146.141 224.542 146.406 236.285 138.909 242.951C138.992 243.08 139.061 243.222 139.119 243.366C139.476 244.255 139.587 245.274 139.755 246.218L139.775 246.327C140.18 248.521 140.472 250.739 140.757 252.951C141.319 257.317 141.728 261.702 142.117 266.086L142.172 266.712C143.147 277.732 143.998 288.776 145.276 299.768L145.515 301.397C147.245 313.164 149.129 324.959 151.967 336.491C152.05 336.8 152.134 337.109 152.219 337.417C153.242 341.117 154.445 344.753 155.577 348.418C155.937 349.574 156.328 350.72 156.75 351.855L157.27 353.143L157.532 353.787C158.455 356.051 159.435 358.292 160.471 360.508C160.658 360.907 160.386 361.276 160.065 361.379C161.01 362.874 161.366 364.655 162.155 366.242C163.283 368.774 164.62 371.236 166.289 373.457C167.212 372.764 168.243 373.659 169.01 374.169C169.503 374.475 170.141 374.705 170.335 375.245C170.706 375.459 171.068 375.693 171.41 375.929L171.445 375.817C171.86 374.489 172.674 372.706 173.996 372.113C175.542 371.464 176.775 372.758 176.313 374.305C176.029 375.688 175.586 377.012 175.114 378.346C179.869 381.212 185.07 383.386 190.541 384.477L190.727 384.513C192.047 384.775 193.389 384.956 194.599 385.583C196.604 386.681 197.898 388.77 198.708 390.858C198.99 390.926 199.248 391.171 199.31 391.441L199.844 393.743C200.022 394.511 200.199 395.279 200.373 396.047C200.468 396.464 200.246 396.988 199.785 397.081C196.61 397.716 193.418 398.269 190.214 398.739C181.117 399.58 169.412 402.535 160.965 398.386C159.617 401.152 155.864 400.361 153.317 400.569C151.771 400.455 140.912 401.044 141.016 399.734L140.955 399.509C140.476 397.679 140.043 395.22 141.792 393.961C141.682 391.895 141.6 389.829 141.567 387.762C140.957 385.801 141.063 383.632 140.939 381.585C140.955 380.058 140.599 378.296 141.434 376.932C141.508 376.027 143.522 376.51 144.188 376.179L144.129 375.964C143.21 372.635 141.931 369.396 139.348 366.959C137.116 367.107 134.876 367.133 132.641 367.028C129.238 367.042 127.686 365.57 126.945 362.374C126.415 360.498 125.895 358.62 125.385 356.739C121.404 341.94 117.788 327.011 113.388 312.327C111.706 307.406 109.845 302.544 107.969 297.695C106.697 294.408 105.424 291.123 104.151 287.837C103.498 286.149 102.853 284.451 102.285 282.732C102.112 282.205 101.951 281.674 101.802 281.139C91.9319 308.516 88.8012 337.602 87.0542 366.484C86.8955 368.791 86.8671 371.122 86.3441 373.379C86.1839 374.074 85.596 374.266 85.0767 374.114C84.1207 374.619 83.4133 374.678 82.1823 374.698L82.1914 375.094C82.2616 377.932 82.4358 380.762 83.081 383.534C83.3366 384.691 83.7948 385.817 84.043 386.969C85.0462 386.628 86.0708 386.372 87.1244 386.246C87.6565 386.183 87.9604 386.627 87.9824 387.083C88.178 387.299 88.3757 387.512 88.5767 387.724L88.6779 387.594C89.6243 386.373 90.8376 384.702 92.4823 384.564C93.2309 384.519 93.9142 384.94 94.0771 385.7C94.2336 387.445 92.7845 389.357 91.5621 390.515C96.0915 394.254 101.705 396.414 107.434 397.516L107.658 397.553C111.334 398.153 115.867 398.626 117.62 402.421L117.657 402.502C118.068 403.427 118.456 404.829 117.786 405.676C117.866 406.834 117.651 408.025 117.623 409.193C117.594 409.668 117.273 409.944 116.819 409.997C105.124 410.623 87.2969 416.086 77.2799 409.586C77.0742 410.306 76.8614 411.025 76.6642 411.748C76.5774 412.066 76.2553 412.327 75.9182 412.314C69.7179 412.092 63.4967 411.991 57.3038 411.614C57.1238 411.617 56.9726 411.537 56.8478 411.392C56.702 411.57 56.3312 411.521 56.2813 411.268C56.194 410.825 56.1934 410.375 56.1533 409.924C56.1072 409.404 55.9678 408.924 55.8858 408.415C55.7353 407.474 55.8028 406.466 55.8966 405.523L55.9201 405.284C55.9855 404.661 56.1023 403.953 56.6666 403.599L56.7042 403.577L56.7101 403.574C56.7728 403.375 56.9207 403.204 57.1082 403.068L57.1195 403.055C56.8242 402.352 56.9378 401.463 57.0241 400.731C57.2615 398.182 57.9764 395.661 59.1543 393.399C59.4898 391.679 59.897 389.898 60.5021 388.261C60.4854 388.186 60.5798 388.123 60.6521 388.156C60.676 388.144 60.7009 388.133 60.7266 388.125C60.7293 388.099 60.7347 388.075 60.7427 388.051C60.8472 387.743 61.1698 387.575 61.4726 387.527C61.7287 387.486 61.9506 387.554 62.1805 387.612C62.3461 383.165 61.8198 378.726 61.7657 374.281C61.3424 374.486 60.867 374.304 60.4769 374.069C59.344 374.243 58.5407 373.279 58.2304 372.265L58.0482 371.444C56.4153 364.046 54.9437 356.583 54.1522 349.043C53.059 338.517 54.38 327.981 55.985 317.579C60.3408 290.187 57.1854 262.5 56.8751 234.958C56.6152 231.951 56.508 228.911 56.1774 225.906C54.9491 225.76 54.0204 224.612 53.6051 223.513C52.955 221.77 53.4245 219.76 53.589 217.969C53.7712 215.984 53.9046 213.994 53.9909 212.004L54.0016 211.423C54.0311 209.871 54.0981 208.309 54.6147 206.831C49.1094 202.602 41.8094 199.279 39.4793 192.209C38.4199 191.256 38.6332 186.841 38.4601 185.221C37.7527 171.209 38.9509 157.105 41.9873 143.408C45.7869 124.742 53.5702 108.016 75.3877 108.815C75.3703 108.802 75.3534 108.788 75.3368 108.774C75.5672 108.698 75.8051 108.773 75.9745 108.925C79.6893 109.402 83.2397 107.211 85.0955 104.064C85.5515 103.279 85.8897 102.459 86.0708 101.569L86.0847 101.498C86.2734 100.519 86.327 99.2577 87.5493 99.0122V99.0122ZM59.3638 403.837C58.8365 404.128 58.2599 404.163 57.7743 404.551C57.431 406.419 57.4639 408.337 57.8713 410.193C63.6874 410.255 69.511 410.548 75.325 410.748C75.5592 409.85 75.7805 408.947 76.0249 408.051L76.0308 408.033L76.0436 407.997C76.647 408.018 77.2505 408.035 77.8539 408.05C86.7825 414.437 105.281 409.01 116.059 408.477L116.169 406.687C116.075 406.756 115.965 406.801 115.849 406.82C115.949 406.558 115.771 406.218 115.415 406.317C114.842 406.477 114.265 406.625 113.687 406.764C113.64 406.745 113.588 406.738 113.538 406.743C108.478 407.174 103.398 407.133 98.3241 407.149C93.2684 407.164 88.2176 407.377 83.1614 407.363C81.0989 407.358 79.0366 407.325 76.975 407.265C71.0373 406.164 65.1419 404.866 59.3638 403.837V403.837ZM197.96 392.925C197.71 393.106 197.383 393.122 197.036 393.169L196.986 393.176C196.669 393.225 196.35 393.263 196.03 393.29C195.24 393.8 193.666 393.731 192.904 393.875C176.178 395.544 159.335 393.565 142.592 394.904C141.793 396.042 141.988 397.451 142.413 398.722C147.089 398.898 151.769 398.993 156.446 398.791L156.82 398.777C157.398 398.754 157.99 398.713 158.524 398.495C159.002 398.3 159.588 397.818 159.513 397.241L159.508 397.208C159.393 396.545 160.091 395.769 160.77 396.241C167.167 400.476 175.859 398.346 183.067 397.93C188.26 397.378 193.427 396.604 198.554 395.61C198.355 394.716 198.158 393.82 197.96 392.925V392.925ZM81.1213 374.162C80.5848 374.223 80.0478 374.278 79.5098 374.327C77.3528 374.521 75.1883 374.619 73.0233 374.681L72.0131 374.708C69.996 374.763 67.966 374.81 65.9527 374.701C64.9345 374.646 63.89 374.526 62.9056 374.25C63.7721 378.784 64.2174 383.401 64.2035 388.015C64.4741 388.249 64.4189 388.635 64.3471 388.93L64.4152 389.131C64.5727 389.599 64.7239 390.077 64.7839 390.557C71.0335 394.267 76.2221 390.467 81.9208 387.807C80.9814 385.369 80.6957 382.696 80.5387 380.108C80.4508 378.094 80.6014 376.129 81.1213 374.162V374.162ZM92.4817 386.135C92.2213 386.165 91.9796 386.328 91.769 386.472C90.8998 387.093 90.1484 387.828 89.4625 388.623C89.7262 388.882 89.9946 389.137 90.2685 389.388C91.2953 388.562 92.1013 387.412 92.4817 386.135V386.135ZM158.908 362.562L158.062 362.846C152.838 364.596 147.507 366.238 141.957 366.728C142.255 367.023 142.506 367.371 142.726 367.743C142.918 367.905 143.112 368.113 143.057 368.36C143.236 368.719 143.393 369.084 143.543 369.428C144.421 371.511 145.434 373.562 146.174 375.706C146.389 376.602 147.233 377.854 146.839 378.72C152.739 381.284 160.077 380.142 164.584 375.452L164.425 375.218C161.835 371.39 159.559 367.184 158.908 362.562V362.562ZM174.909 373.385C174.551 373.077 173.924 373.925 173.765 374.137C173.177 374.917 172.772 375.772 172.472 376.667C172.85 376.925 173.23 377.168 173.614 377.416L173.636 377.38C173.993 376.765 175.28 373.775 174.909 373.385ZM62.7217 373.318L62.7282 373.35C63.0449 373.399 63.3621 373.443 63.6805 373.479C64.4548 373.567 65.2389 373.606 66.0202 373.622C64.9205 373.464 63.8203 373.335 62.7217 373.318ZM71.1059 224.265L70.8454 224.239L70.511 224.198C66.2179 223.666 61.8916 222.955 57.5686 223.646C58.1672 226.41 58.2074 229.307 58.4008 232.138C59.3231 259.412 62.6462 286.842 58.9233 314.051L58.8081 314.876C57.4512 324.553 55.8365 334.264 56.4866 344.07C56.9935 353.008 58.8161 361.794 60.6269 370.541C61.0621 370.65 61.4972 370.759 61.934 370.866C61.9468 370.744 62.0224 370.814 62.0369 370.891C67.3996 372.32 72.9965 372.443 78.5071 372.084C79.5463 372.024 80.5805 371.94 81.6186 371.869C82.4192 371.522 83.2745 371.3 84.1426 371.148C85.9727 343.392 88.3698 315.32 96.9726 288.71C102.449 271.805 109.29 255.343 113.337 238.005C113.477 237.519 114.215 237.723 114.095 238.214L113.969 238.879C112.941 244.31 112.015 249.756 110.415 255.064C111.63 253.743 113.015 252.577 114.161 251.195C114.522 250.761 114.846 250.299 115.13 249.812C115.398 249.206 115.829 248.732 116.495 248.59C116.8 248.467 117.084 248.726 117.184 248.982C117.465 249.686 117.346 250.188 116.938 250.809L116.836 250.962C115.037 253.617 112.157 255.167 109.78 257.251C107.79 263.881 105.5 270.416 103.255 276.961C103.226 278.264 103.463 279.549 103.845 280.791C104.28 282.067 104.669 283.419 105.337 284.616C114.62 303.984 119.298 325.086 124.939 345.694C126.424 351.19 127.927 356.684 129.546 362.142L129.57 362.242C129.938 363.78 130.514 364.399 132.204 364.397C140.67 364.786 149.363 363.406 157.076 360.008C152.828 348.692 149.877 336.982 147.584 325.114C146.427 319.505 145.489 313.85 144.699 308.174C143.599 300.927 142.629 293.664 141.646 286.436C139.634 272.272 139.723 257.858 137.16 243.78C136.284 243.809 135.534 242.771 136.066 241.996C135.88 241.225 136.046 240.382 136.322 239.67L136.289 239.515C133.286 242.177 129.366 242.514 131.378 237.397L131.517 237.049C133.027 233.294 134.948 229.282 134.096 225.164C125.385 229.804 114.736 229.056 105.374 227.022C106.103 229.668 104.139 231.291 101.922 229.514C101.521 229.191 101.129 228.856 100.746 228.512C101.31 230.742 101.007 233.079 100.486 235.289L100.437 235.544C100.184 236.87 99.8959 238.63 98.8857 239.548C98.1489 240.216 97.039 239.932 96.7078 238.978C96.5229 235.823 95.6414 232.719 94.0278 229.975C94.2974 231.981 94.2315 234.041 93.7363 235.964C93.5455 236.699 93.2808 237.45 93.2181 238.211L93.2277 238.335C93.3226 239.676 93.1441 240.907 91.4694 240.934C87.4979 240.235 90.0032 230.855 87.4743 227.888C86.7064 231.468 87.6013 236.175 84.1094 238.551C83.1448 239.153 81.9674 238.804 81.7713 237.636L81.841 236.717C82.2574 231.114 82.1797 229.434 78.5795 224.181C76.1385 224.765 73.5817 224.515 71.1059 224.265V224.265ZM141.853 368.279C141.856 368.3 141.857 368.321 141.858 368.342C141.9 368.384 141.941 368.427 141.983 368.471L142.044 368.537L141.973 368.361C141.933 368.335 141.893 368.307 141.853 368.279V368.279ZM138.575 243.24L138.412 243.378L138.329 243.446C138.474 244.093 138.61 244.74 138.741 245.389L138.716 244.962C138.692 244.542 138.759 243.779 138.575 243.24ZM135.924 185.801C134.696 180.095 133.471 177.687 135.027 185.905L135.196 186.793C135.949 190.759 136.632 194.738 137.247 198.728L137.386 199.638C138.082 204.141 139.176 210.732 139.256 216.014C139.348 222.005 136.301 223.783 135.096 224.56C134.871 225.218 135.157 225.768 135.347 226.401C135.603 227.417 135.669 228.394 135.596 229.438C135.343 233 133.437 236.218 132.57 239.598C133.68 239.294 134.919 238.295 135.889 237.503C137.612 236.135 138.814 234.109 139.333 231.959C139.58 230.944 139.401 229.691 140.093 228.859C140.297 228.614 140.737 228.638 140.945 228.859C141.509 229.46 141.456 230.196 141.364 230.965C141.057 233.579 139.904 236.142 138.049 238.024C137.961 238.99 137.673 239.85 137.481 240.769C137.555 240.975 137.629 241.18 137.699 241.387C138.956 240.304 140.007 238.993 140.821 237.549C144.455 231.18 143.186 223.844 142.245 216.898C142.056 217.363 141.626 217.548 141.208 217.502C140.967 218.103 140.339 217.72 140.314 216.943C140.158 212.104 139.514 205.222 138.329 198.174C137.623 193.974 136.767 189.716 135.924 185.801V185.801ZM90.0391 207.779C88.2364 213.362 81.1336 214.45 76.9847 217.856C79.0688 223.343 84.9015 229.22 83.1855 236.298L83.1759 236.351C83.1244 236.623 82.9551 237.387 83.1368 237.531C83.2531 237.623 83.9658 236.928 84.0907 236.791C86.5863 233.826 85.134 229.634 86.5376 226.254C86.7224 225.804 87.2975 225.539 87.6871 225.951C89.4421 227.808 89.8666 230.31 90.135 232.755L90.1447 232.839C90.3607 234.741 90.2422 236.7 90.8065 238.55L90.8274 238.615C90.9475 238.973 91.172 239.476 91.4223 239.567C92.1136 239.818 91.8537 238.713 91.8778 238.275C91.9507 237.013 92.4876 235.831 92.6757 234.587C93.0782 231.92 92.6773 229.122 91.7899 226.593C91.5091 225.79 92.6163 225.506 93.0439 226.065C94.8193 228.392 96.2421 230.979 97.18 233.754C97.5578 234.873 97.7593 236.006 98.0111 237.146C99.5829 232.383 99.5379 227.375 95.9774 223.47C95.135 222.46 96.5385 221.004 97.4458 222.005C98.3868 223.124 99.3085 224.256 100.331 225.304C101.34 226.318 102.312 227.568 103.56 228.292C103.357 223.733 98.4565 221.673 95.8424 218.551C93.1773 215.406 91.7202 211.485 90.0391 207.779V207.779ZM66.4843 169.273C65.5299 172.17 64.412 175.016 63.5492 177.943C63.3702 179.924 63.9811 180.746 65.4393 182.004C66.07 178.41 66.3316 174.765 66.6686 171.133C66.6172 170.512 66.607 169.885 66.4843 169.273V169.273ZM66.9548 167.849L66.8594 168.143L66.891 168.199L66.9216 168.256L66.9548 167.849ZM125.125 131.597L125.49 133.996C126.828 142.79 128.21 151.582 130.11 160.276C130.215 160.755 130.833 160.112 130.719 159.184C129.55 149.645 125.141 131.484 125.124 131.588L125.125 131.597V131.597ZM113.875 112.312C113.961 112.413 114.041 112.52 114.119 112.628C114.102 112.531 114.085 112.433 114.068 112.336C114.003 112.328 113.939 112.321 113.875 112.312V112.312Z" fill="#292929"/>
<path fill-rule="evenodd" clip-rule="evenodd" d="M105.665 62.3C91.0181 61.7668 77.0215 71.5908 72.3094 85.477C71.9669 86.5665 73.0323 87.5836 74.1079 87.3998C73.0082 92.9255 75.4112 100.363 81.6715 101.147C82.9539 101.309 84.2428 101.216 85.5268 101.333C86.6714 101.438 92.9018 104.936 95.2351 105.755C100.147 107.468 112.508 107.154 117.424 105.755C117.604 106.162 121.422 90.5332 122.292 85.6876C122.609 83.5885 119.712 82.0339 119.925 79.8705C120.2 77.0913 123.457 73.7034 122.459 71.0576C119.828 64.3235 112.195 62.4447 105.665 62.3Z" fill="white"/>
<path fill-rule="evenodd" clip-rule="evenodd" d="M98.3906 50.059C99.0487 50.1137 99.7105 50.2064 100.361 50.328C102.337 50.0054 104.382 50.3639 106.299 50.9851C110.788 52.4389 115.108 54.9641 118.492 58.2604C120.233 59.957 121.657 61.912 122.534 64.1853C122.979 65.3385 123.23 66.5695 123.302 67.8026L123.31 67.9526C123.331 68.3615 123.34 68.8519 123.291 69.3379C123.448 70.3192 123.587 71.3084 123.598 72.3009C123.603 72.7602 123.573 73.2194 123.517 73.6749L123.536 73.7184C123.455 74.2627 123.358 74.8047 123.248 75.3437L123.22 75.3796C123.205 75.489 123.187 75.5983 123.171 75.7076C123.111 75.9852 123.048 76.2617 122.981 76.5372C122.837 77.1335 122.678 77.7264 122.506 78.3153C122.476 78.4187 122.505 78.5002 122.561 78.5532C122.437 79.0019 122.299 79.4467 122.147 79.8871C122.222 80.2724 122.298 80.6572 122.377 81.0414C122.793 83.0381 123.146 85.0472 123.619 87.0322C124.579 91.0611 126.038 95.0256 126.438 99.1671C126.75 102.379 126.232 105.891 124.232 108.515C122.507 110.776 119.913 112.111 117.112 112.467C115.772 112.638 114.397 112.56 113.086 112.222L112.943 112.184C112.287 112.008 111.451 111.732 110.841 111.287C110.179 111.054 109.554 110.625 109.178 110.206C108.664 109.633 108.103 108.654 108.243 107.839C107.478 107.902 106.708 107.92 105.95 107.917C104.084 107.913 102.202 107.766 100.408 107.225C98.8064 106.742 96.941 105.936 95.994 104.48C95.9496 104.412 96.023 104.313 96.1007 104.339C96.866 104.607 97.5808 104.969 98.3702 105.174C99.1462 105.374 99.9227 105.564 100.723 105.646C102.289 105.807 103.877 105.785 105.447 105.708L105.986 105.68C107.667 105.59 109.403 105.462 110.975 104.835C111.589 104.585 112.164 104.249 112.682 103.836L112.764 103.771C113.043 103.545 113.331 103.355 113.623 103.174C113.665 103.121 113.708 103.068 113.749 103.013C114.415 102.161 115.13 101.339 115.73 100.439C116.921 98.6515 117.381 96.7946 117.443 94.6634C117.508 92.4137 117.516 90.1608 117.542 87.9105L117.552 87.1608C117.586 84.5874 117.592 82.0055 117.79 79.4385C117.882 78.2456 118.012 77.0586 118.212 75.8802L118.256 75.6278L118.579 73.8105C118.657 73.3727 118.703 72.9209 118.802 72.4853C118.688 72.2983 118.557 72.1221 118.411 71.959C118.274 71.8061 118.134 71.6549 117.993 71.5056L117.892 71.4167C117.661 71.2109 117.463 71.0148 117.278 70.7323L117.233 70.6627C117.029 70.4212 116.844 70.1647 116.679 69.8953L116.648 69.8417C116.607 69.7897 116.566 69.7377 116.523 69.6863C116.389 69.5266 116.25 69.3754 116.105 69.2308C115.599 70.2077 114.882 71.0533 113.867 71.5823C113.5 71.7736 113.053 71.6096 112.933 71.2029C112.633 70.1848 112.169 69.2227 111.558 68.3551C110.523 70.0701 108.916 71.3659 107.021 72.0153C106.545 72.1766 106.127 71.6787 106.238 71.2345C106.582 69.8674 106.65 68.4773 106.448 67.1032C105.73 67.6164 104.989 68.0978 104.228 68.5459C102.535 69.8519 100.741 71.0271 98.7679 71.8711C98.3123 72.0662 97.6259 71.7382 97.8332 71.1541C98.0074 70.6621 98.151 70.1616 98.2427 69.6482L98.263 69.5292L98.2646 69.5185C93.6945 75.8094 82.6127 81.872 81.7622 81.9304H81.7392C82.2832 82.4491 82.7065 83.081 82.9792 83.7814C83.274 84.5371 82.073 84.8656 81.7622 84.1437L81.752 84.1196C81.2746 82.894 80.0924 82.0162 78.8062 81.8083C78.0286 81.9492 77.2939 82.3233 76.7928 82.8908C75.8063 84.007 75.7977 85.3532 76.4708 86.6233L76.5694 86.8087C76.9338 87.4872 77.318 88.1672 77.5233 88.9121C77.7741 89.8269 77.5844 90.754 77.7483 91.6672L77.7575 91.7154C77.8352 92.1216 78.0034 92.5836 78.4879 92.4726C78.5254 92.464 78.5613 92.4523 78.5977 92.4399C78.6996 92.5214 78.8228 92.5884 78.9761 92.6329C79.3512 92.7422 79.7655 92.6891 80.139 92.6007C80.5002 92.5117 80.8514 92.3862 81.1872 92.2261C81.2242 92.3183 81.2472 92.4142 81.2499 92.5069C81.2612 92.979 81.065 93.3681 80.7638 93.6843C81.2445 94.2915 81.6556 94.9592 82.1191 95.5792C82.7798 96.4695 83.4704 97.337 84.1898 98.1805C84.9433 99.0583 85.7638 99.8873 86.6153 100.671C87.2123 101.22 88.1989 101.806 88.5729 102.603C89.0033 102.736 89.3682 103.065 89.5022 103.606C89.7449 104.587 89.8162 106.885 89.6254 107.882C89.4357 108.87 88.7128 109.486 87.9138 110.007C87.6919 110.151 87.4417 110.136 87.238 110.028C87.0515 110.209 86.8458 110.369 86.6244 110.505C85.7691 111.032 84.775 111.223 83.7901 111.334C82.46 111.758 81.0259 111.87 79.6079 111.606C79.1449 111.661 78.6812 111.709 78.2167 111.75C73.4644 112.163 68.6333 111.812 63.9983 110.682C61.8719 110.164 59.8633 109.222 57.9925 108.013C54.7675 105.927 53.4031 100.074 55.2739 94.479L55.4223 94.038C56.2653 91.5386 57.1747 89.052 58.3933 86.7198L58.5391 86.4427C59.6591 84.3157 60.8917 82.1909 62.5283 80.4165C63.3477 79.5286 64.3 78.722 65.3755 78.1583C65.7839 77.9439 66.2603 77.796 66.726 77.6277L66.7357 77.5114L66.7458 77.3951C66.7764 77.0222 66.8155 76.6503 66.8659 76.2794C67.054 74.8909 67.3192 73.5238 67.6965 72.1734C68.0725 70.8197 68.5403 69.4934 69.0968 68.2034C70.0287 66.054 71.1991 64.0149 72.5501 62.1017C72.6466 61.904 72.7447 61.7073 72.8449 61.5122C73.9837 59.2904 75.459 57.1714 77.3614 55.5316C79.5457 53.6495 82.1765 52.4813 84.9213 51.6608C87.7686 50.8109 90.739 50.2289 93.7058 50.0338C95.2674 49.9309 96.8317 49.9293 98.3906 50.059V50.059ZM77.5694 85.7471C78.9986 84.8136 80.9455 85.4534 81.67 86.97C82.1931 88.0692 80.4632 88.6876 80.1899 87.5927C79.9171 86.4952 78.7478 85.7091 77.624 85.8768C77.5463 85.8897 77.4981 85.7927 77.5694 85.7471V85.7471Z" fill="#292929"/>
<path fill-rule="evenodd" clip-rule="evenodd" d="M106.681 98.0875C105.818 97.7362 105.066 97.1588 104.504 96.416C104.31 96.1577 104.26 95.8855 104.301 95.6363C104.346 95.356 104.512 95.102 104.739 94.9316C104.966 94.7607 105.251 94.6765 105.525 94.7194C105.764 94.7569 106.002 94.8871 106.19 95.1578L106.229 95.2119C106.557 95.6592 106.988 96.0203 107.486 96.2644C107.968 96.5007 108.508 96.5955 109.042 96.5377C110.088 96.4193 110.81 95.8544 111.576 95.0876C111.671 94.9906 111.766 94.8909 111.862 94.7891C111.918 94.7031 112.002 94.6388 112.099 94.6069C112.206 94.5728 112.32 94.5745 112.426 94.6117C112.53 94.6474 112.62 94.7156 112.683 94.8062C112.742 94.8925 112.775 94.9991 112.765 95.1213C112.694 95.9166 112.278 96.6261 111.686 97.1829C111.029 97.8019 110.158 98.2295 109.339 98.3801C108.435 98.5452 107.515 98.4267 106.681 98.0875V98.0875ZM109.765 85.823C110.725 86.406 112.19 87.7656 111.156 89.2109C109.939 90.4853 108.187 89.0239 107.324 88.3631C106.523 87.8513 105.623 89.1686 106.366 89.7666C112.605 94.3764 115.138 85.9757 110.251 85.1375C109.713 85.0454 109.513 85.6429 109.765 85.823ZM98.5836 80.4608C98.6903 79.1451 100.697 78.8467 100.897 80.1478C101.076 81.3139 100.865 82.3852 100.339 83.435C99.8366 84.4377 98.5724 83.9698 98.477 83.0567C98.3489 81.8327 98.5177 81.2786 98.5836 80.4608V80.4608ZM113.864 79.8783C114.144 79.5122 114.549 79.2625 115.032 79.404C116.545 79.845 116.099 81.9881 115.568 83.0309C115.28 83.5974 114.347 83.741 113.925 83.2426C113.237 82.4291 112.908 80.8048 113.782 80.0037C113.806 79.9619 113.832 79.9201 113.864 79.8783ZM100.318 74.7047L100.557 74.6629C101.296 74.5354 102.215 74.4126 102.738 75.0059C103.015 75.3204 103.111 75.9051 102.738 76.2057C102.082 76.7357 101.357 76.5305 100.571 76.575C99.9301 76.6116 99.2951 76.7196 98.678 76.8971C97.3093 77.2872 96.1946 77.9999 95.0258 78.7823C94.8725 78.8852 94.7161 78.6891 94.7889 78.546C95.4636 77.2272 96.7712 76.1441 98.081 75.4839C98.7798 75.1313 99.5445 74.8387 100.318 74.7047ZM112.485 74.1141L112.669 74.1517C114.658 74.5664 117.244 75.396 118.187 77.3467C118.223 77.6227 118.185 77.6816 118.154 77.7202L118.143 77.7331C118.118 77.7663 118.098 77.8118 117.978 77.8493L117.877 77.8242C117.445 77.7111 117.103 77.5551 116.773 77.3938L116.413 77.2175C115.998 77.0139 115.577 76.8177 115.133 76.6725C114.183 76.3622 113.206 76.1468 112.214 76.0294C112.003 76.0088 111.801 75.9322 111.628 75.8076C111.465 75.6848 111.349 75.5087 111.301 75.3097C111.231 75.0295 111.251 74.8172 111.402 74.5638C111.515 74.3735 111.678 74.2422 111.864 74.1661C112.062 74.0885 112.278 74.0704 112.485 74.1141V74.1141Z" fill="#292929"/>
<path fill-rule="evenodd" clip-rule="evenodd" d="M120.496 86.9596C119.639 88.1086 118.05 88.4746 116.585 88.3481C113.424 88.0448 112.43 84.4629 112.326 81.6789C114.446 82.2737 112.147 78.06 119.391 77.597C121.945 77.3848 121.241 78.9239 122.369 80.0482C122.346 82.4083 121.952 84.9731 120.496 86.9596M105.443 84.248C103.577 92.9676 93.3604 90.8937 92.2876 83.0331C93.2784 82.3354 93.0175 80.6114 94.2484 79.9871C96.1996 78.7427 98.639 78.7958 100.855 78.8252C103.687 79.0192 104.495 80.1902 105.95 81.4678C105.88 82.3209 105.678 83.3327 105.443 84.248ZM124.543 76.1527C124.438 76.1355 124.333 76.1191 124.229 76.1034C124.138 76.0535 124.04 76.0185 123.939 76C123.689 75.9365 123.434 75.8925 123.177 75.8682C119.546 75.0531 111.145 76.2106 110.799 79.3033C109.642 79.6886 108.642 79.3435 107.301 79.3778C106.281 75.1222 88.6435 75.7229 87.7957 78.2888L87.7855 78.2861C86.9709 78.0343 85.7689 78.0948 84.8365 78.0552C82.8433 78.009 80.8515 78.1951 78.9014 78.6098C75.2519 79.1886 70.2713 79.866 72.8093 84.4141L72.8109 84.4168V84.4163C73.2487 84.8637 73.991 84.5036 74.0188 83.8975C73.1651 81.7432 75.0928 81.4844 76.5756 80.8654C80.2652 79.5423 84.0224 79.359 87.8386 79.7679C88.1258 80.1055 88.5615 80.3997 89.0218 80.5535C91.5732 80.9763 90.2287 82.8654 91.8417 83.1398C91.5454 89.7243 99.5559 93.3186 104.197 88.9902C106.05 87.182 106.492 84.5036 106.922 82.0889C107.149 82.038 107.293 81.9142 107.378 81.7502C107.924 81.2057 108.268 80.703 109.348 80.5535C110.428 80.404 111.26 80.7041 111.372 80.7957C111.401 80.8531 111.431 80.9099 111.467 80.9672C111.516 81.0524 111.583 81.1205 111.66 81.1741C110.593 87.7308 115.693 91.8776 120.842 88.4768C123.08 86.376 123.553 83.1607 123.646 80.2904C123.949 80.1077 124.141 79.754 124.036 79.3086C123.892 78.695 124.231 78.1639 124.772 77.8971C125.474 77.5509 125.349 76.2862 124.543 76.1527" fill="#292929"/>
<defs>
<clipPath id="clip0_1331_126">
<rect width="120" height="70.3628" fill="white" transform="translate(145.295)"/>
</clipPath>
</defs>
</svg>
