<svg width="29" height="14" viewBox="0 0 29 14" fill="none" xmlns="http://www.w3.org/2000/svg">
<path d="M29 7.22238C28.8112 7.48624 28.6602 7.7878 28.4336 8.01398C26.5682 9.88366 24.6953 11.7307 22.8224 13.5853C22.324 14.0829 21.6745 14.1281 21.1987 13.706C20.6927 13.2611 20.6776 12.5299 21.176 12.0323C22.3995 10.8185 23.6229 9.60471 24.8464 8.39093C24.9219 8.32308 25.0125 8.2703 25.0956 8.20999C25.0805 8.17983 25.0654 8.14968 25.0503 8.11952C24.9445 8.11952 24.8388 8.11952 24.7255 8.11952C16.9544 8.11952 9.17578 8.11198 1.40469 8.12706C0.709896 8.1346 0.226562 7.90089 0 7.22238C0 7.0716 0 6.92081 0 6.77003C0.226562 6.09152 0.709896 5.85781 1.41224 5.85781C9.17578 5.87289 16.9393 5.86535 24.7104 5.86535C24.8237 5.86535 24.937 5.86535 25.1182 5.86535C25.0049 5.74472 24.937 5.66933 24.8615 5.59394C23.638 4.38016 22.4146 3.16637 21.1911 1.95259C20.8589 1.62087 20.7531 1.22884 20.8815 0.791573C21.0023 0.384465 21.2893 0.120599 21.7122 0.0225911C22.1427 -0.0754165 22.5052 0.0678253 22.8148 0.376926C24.1818 1.73395 25.5562 3.09852 26.9307 4.45555C27.4367 4.96066 27.9578 5.4507 28.4487 5.97089C28.6677 6.20461 28.8263 6.49863 29.0151 6.76249C29 6.92081 29 7.0716 29 7.22238Z" fill="white"/>
</svg>
