<svg width="52" height="49" viewBox="0 0 52 49" fill="none" xmlns="http://www.w3.org/2000/svg">
<g clip-path="url(#clip0_169_921)">
<path d="M51.9999 4.08483C51.9999 14.6338 51.9999 25.1814 51.9999 35.7304C51.8498 36.2137 51.7582 36.7276 51.5369 37.1751C50.6516 38.9663 49.1622 39.8076 47.1957 39.8114C43.0657 39.8191 38.9369 39.8139 34.8069 39.8139C34.6263 39.8139 34.4457 39.8139 34.2307 39.8139C34.2752 39.9789 34.2994 40.0927 34.3363 40.2039C34.9227 41.9759 35.5205 43.7453 36.0903 45.5238C36.1997 45.8651 36.3638 45.952 36.7034 45.9482C38.142 45.9278 39.5805 45.9367 41.0191 45.9405C42.0583 45.9431 42.7464 46.5517 42.7528 47.4607C42.7592 48.3697 42.0672 49.0013 41.0395 49.0013C31.0203 49.0038 21.0011 49.0038 10.9819 49.0013C9.94276 49.0013 9.25336 48.3927 9.24573 47.4837C9.2381 46.5593 9.93767 45.9431 11.0074 45.9405C12.3951 45.938 13.7841 45.9188 15.1705 45.952C15.6169 45.9623 15.8179 45.8408 15.9527 45.401C16.3865 43.9895 16.8736 42.5947 17.3379 41.1935C17.4854 40.7485 17.6254 40.3023 17.7818 39.8152C17.535 39.8152 17.3493 39.8152 17.1649 39.8152C13.0349 39.8152 8.90612 39.8229 4.77609 39.8127C1.97779 39.8063 0.00626108 37.8361 0.00371717 35.0298C-0.00391455 24.9424 -0.00900236 14.855 0.0202526 4.76627C0.0227965 4.0567 0.175431 3.28959 0.47434 2.65162C1.34181 0.797787 2.89868 0 4.90328 0C18.9673 0.00255701 33.0313 0.00127851 47.0952 0.00127851C47.197 0.00127851 47.2988 0 47.3992 0.00255701C48.9256 0.0549757 50.2306 0.61624 51.0828 1.90625C51.5102 2.5519 51.7023 3.35352 51.9999 4.08483ZM48.9536 30.5998C48.9536 30.3965 48.9536 30.2303 48.9536 30.0628C48.9536 21.6924 48.9536 13.322 48.9536 4.95165C48.9536 3.61817 48.4015 3.0633 47.0736 3.0633C33.0249 3.0633 18.9774 3.0633 4.92872 3.0633C3.6008 3.0633 3.05005 3.61817 3.05005 4.95165C3.05005 13.322 3.05005 21.6924 3.05005 30.0628C3.05005 30.2418 3.05005 30.4208 3.05005 30.5998C5.1475 30.5998 7.17245 30.5998 9.24446 30.5998C9.24446 30.4105 9.24446 30.2443 9.24446 30.0781C9.24446 28.8188 9.24191 27.5607 9.24446 26.3014C9.247 25.0779 9.82701 24.5038 11.0583 24.5C11.4309 24.4987 11.8036 24.5 12.175 24.5C13.1341 24.5 13.1201 24.4936 13.503 23.6076C13.6378 23.2931 13.6073 23.0924 13.3503 22.8584C12.8861 22.4365 12.4485 21.9839 12.0186 21.5262C11.403 20.8703 11.3686 20.0124 11.9906 19.3719C13.4203 17.8978 14.869 16.4429 16.3356 15.0058C16.955 14.3998 17.8034 14.4279 18.442 15.0135C18.779 15.3229 19.0932 15.6579 19.4163 15.9826C20.14 16.7088 20.1349 16.6973 21.0673 16.3125C21.3458 16.1974 21.4476 16.0504 21.4374 15.7474C21.4145 15.0851 21.4145 14.4203 21.4374 13.7567C21.4667 12.9065 22.0823 12.2673 22.9281 12.2596C24.976 12.2391 27.0238 12.2391 29.0717 12.2596C29.9175 12.2685 30.5281 12.9065 30.5637 13.7567C30.5827 14.2157 30.57 14.6747 30.57 15.1349C30.57 16.1654 30.5764 16.1488 31.496 16.5451C31.8051 16.6781 31.9832 16.6091 32.1943 16.3828C32.6357 15.9123 33.0885 15.452 33.5591 15.0135C34.1786 14.4343 35.0257 14.3896 35.6248 14.9726C37.1193 16.4288 38.591 17.9093 40.041 19.4103C40.6248 20.015 40.5828 20.8627 40.0156 21.4866C39.6963 21.8382 39.3503 22.1655 39.0158 22.503C38.3315 23.1921 38.3442 23.1857 38.694 24.0755C38.8161 24.3875 38.9624 24.5281 39.3185 24.509C39.9265 24.4744 40.5371 24.4911 41.1463 24.5013C42.113 24.5179 42.7299 25.1341 42.7566 26.0956C42.763 26.3168 42.7579 26.5379 42.7579 26.7591C42.7579 28.03 42.7579 29.3021 42.7579 30.5985C44.8312 30.5998 46.8548 30.5998 48.9536 30.5998ZM39.6887 27.5633C39.0769 27.5633 38.5045 27.5697 37.9321 27.562C37.0468 27.5505 36.5736 27.1798 36.2607 26.3526C35.9313 25.4819 35.579 24.6189 35.1974 23.7713C34.8133 22.921 34.873 22.3623 35.5306 21.6924C35.9326 21.282 36.3549 20.8933 36.6996 20.5622C35.9428 19.8041 35.233 19.0932 34.5004 18.3581C34.1608 18.7084 33.7779 19.1162 33.3798 19.51C32.6955 20.185 32.132 20.2439 31.2671 19.8398C30.4581 19.4614 29.6326 19.1124 28.7957 18.8004C27.9015 18.468 27.539 18.0154 27.5288 17.0668C27.5237 16.4953 27.5275 15.9225 27.5275 15.3497C26.4794 15.3497 25.4924 15.3497 24.5143 15.3497C24.499 15.4188 24.4863 15.4507 24.4863 15.484C24.4837 16.0107 24.4863 16.5387 24.4799 17.0655C24.4697 18.0154 24.1085 18.468 23.2143 18.8004C22.3774 19.1111 21.5519 19.4589 20.7416 19.836C19.8665 20.2439 19.3158 20.1863 18.6289 19.51C18.2219 19.1085 17.8263 18.6943 17.46 18.321C16.7185 19.0638 16.0163 19.7695 15.2684 20.5187C15.6297 20.8665 16.024 21.2347 16.4043 21.6183C17.1624 22.3802 17.2158 22.9351 16.7439 23.9093C16.3903 24.6394 16.0748 25.3924 15.809 26.1582C15.4452 27.2079 15.0166 27.5595 13.9214 27.5633C13.3872 27.5646 12.853 27.5633 12.3328 27.5633C12.3328 28.6257 12.3328 29.6179 12.3328 30.5895C14.4124 30.5895 16.4513 30.5895 18.4966 30.5895C17.6037 25.7044 21.3013 21.6924 25.5178 21.4559C27.5491 21.3421 29.3731 21.9238 30.9109 23.2637C33.133 25.2006 33.928 27.6848 33.4968 30.5998C35.5866 30.5998 37.6256 30.5998 39.6887 30.5998C39.6887 29.5948 39.6887 28.6142 39.6887 27.5633ZM3.05005 33.7052C3.05005 34.0965 3.05005 34.4353 3.05005 34.7728C3.05005 36.2213 3.569 36.7494 4.99232 36.7494C19.0016 36.7494 33.0109 36.7494 47.0202 36.7494C47.1894 36.7494 47.3598 36.7558 47.5277 36.7417C48.2197 36.6842 48.82 36.2086 48.904 35.5246C48.9777 34.93 48.9192 34.3189 48.9192 33.7052C33.6265 33.7052 18.3695 33.7052 3.05005 33.7052ZM18.9889 45.9009C23.6989 45.9009 28.3377 45.9009 33.0147 45.9009C32.3597 43.9256 31.725 41.9925 31.0661 40.0684C31.0254 39.9507 30.8002 39.8242 30.6591 39.8229C27.5466 39.8088 24.4341 39.8101 21.3217 39.8216C21.1906 39.8216 20.9795 39.9316 20.9426 40.0377C20.2837 41.9785 19.6427 43.9256 18.9889 45.9009ZM26.0037 30.6253C27.3049 30.6253 28.6074 30.6164 29.9086 30.6317C30.2164 30.6356 30.3449 30.5461 30.4187 30.2354C30.7061 29.0374 30.5471 27.9136 29.962 26.8409C28.8796 24.858 26.4069 23.9912 24.2688 24.8478C22.1968 25.6788 21.01 28.0849 21.5849 30.2392C21.6676 30.5512 21.7935 30.6356 22.0988 30.6317C23.4 30.6164 24.7012 30.6253 26.0037 30.6253Z" fill="url(#paint0_linear_169_921)"/>
<path d="M41.2163 6.13038C43.6928 6.1112 45.7699 8.17599 45.8017 10.6883C45.8335 13.1724 43.7844 15.2666 41.2799 15.3101C38.7945 15.3535 36.6754 13.2478 36.6691 10.7266C36.6627 8.23097 38.722 6.14956 41.2163 6.13038ZM41.2481 12.2468C42.0774 12.2391 42.7617 11.5385 42.7541 10.7062C42.7465 9.87257 42.0494 9.18473 41.2214 9.1924C40.3921 9.20007 39.7078 9.90069 39.7154 10.733C39.723 11.5666 40.4201 12.2544 41.2481 12.2468Z" fill="url(#paint1_linear_169_921)"/>
</g>
<defs>
<linearGradient id="paint0_linear_169_921" x1="25.9989" y1="0" x2="25.9989" y2="49.0032" gradientUnits="userSpaceOnUse">
<stop stop-color="#20D4FE"/>
<stop offset="1" stop-color="#B722FF"/>
</linearGradient>
<linearGradient id="paint1_linear_169_921" x1="41.2356" y1="6.13025" x2="41.2356" y2="15.3107" gradientUnits="userSpaceOnUse">
<stop stop-color="#20D4FE"/>
<stop offset="1" stop-color="#B722FF"/>
</linearGradient>
<clipPath id="clip0_169_921">
<rect width="52" height="49" fill="white"/>
</clipPath>
</defs>
</svg>
