<svg width="54" height="50" viewBox="0 0 54 50" fill="none" xmlns="http://www.w3.org/2000/svg">
<path d="M26.7985 49.9986C18.9116 49.9986 11.0247 49.9986 3.13785 49.9986C1.05246 49.9986 0.0462937 48.9641 0.001575 46.8862C-0.0207844 45.8457 0.164053 44.8739 0.496462 43.893C2.09441 39.1812 3.66106 34.4589 5.22621 29.7351C5.32907 29.4265 5.36484 29.0822 5.36633 28.7542C5.37378 20.1802 5.37229 11.6076 5.37229 3.03354C5.37229 1.05101 6.41275 0.00160625 8.39379 0.00160625C20.6706 0.000115625 32.9473 0.000115625 45.2241 0.00160625C47.1992 0.00160625 48.2352 1.05548 48.2352 3.04397C48.2352 11.5987 48.2337 20.1534 48.2426 28.708C48.2426 29.0896 48.3067 29.4861 48.426 29.8484C50.0806 34.8539 51.8008 39.84 53.3763 44.8709C53.6864 45.8636 53.5984 47.0487 53.4315 48.104C53.2422 49.2906 52.081 49.9912 50.7379 49.9942C47.9475 50.0016 45.157 49.9956 42.3681 49.9956C37.1777 49.9986 31.9874 49.9986 26.7985 49.9986ZM7.15806 28.5247C20.2919 28.5247 33.3558 28.5247 46.4494 28.5247C46.4494 28.2936 46.4494 28.1088 46.4494 27.924C46.4494 19.6465 46.4494 11.3691 46.4494 3.09316C46.4494 2.02736 46.2094 1.78588 45.1377 1.78588C32.9146 1.78588 20.6914 1.78588 8.46981 1.78588C7.39656 1.78588 7.15955 2.02438 7.15955 3.09316C7.15955 11.3512 7.15955 19.6108 7.15955 27.8688C7.15806 28.073 7.15806 28.2758 7.15806 28.5247ZM18.4138 41.0698C18.1067 41.0698 17.9055 41.0698 17.7027 41.0698C14.3175 41.0698 10.9323 41.0713 7.54711 41.0698C6.43958 41.0698 6.11611 40.6524 6.38592 39.5672C6.9136 37.4416 7.44426 35.316 7.9779 33.1903C8.20895 32.2721 8.37739 32.1424 9.32692 32.1424C13.2696 32.1409 17.2123 32.1424 21.1565 32.1424C28.8571 32.1424 36.5561 32.1424 44.2567 32.1424C45.2286 32.1424 45.3985 32.2751 45.637 33.2246C46.1692 35.3503 46.6998 37.4744 47.2275 39.6015C47.4869 40.6479 47.156 41.0698 46.0797 41.0698C42.6766 41.0713 39.2721 41.0698 35.869 41.0698C35.6692 41.0698 35.4695 41.0698 35.1967 41.0698C35.5515 42.1475 35.9003 43.1432 36.2014 44.1539C36.3206 44.5519 36.5234 44.6503 36.9169 44.6488C41.5661 44.6354 46.2169 44.6413 50.8661 44.6383C51.0405 44.6383 51.2135 44.6175 51.4177 44.6026C51.3774 44.4297 51.3595 44.3208 51.3252 44.2165C49.8361 39.7446 48.3395 35.2757 46.8638 30.7994C46.7386 30.4193 46.5389 30.3462 46.1781 30.3462C33.2708 30.3552 20.362 30.3552 7.45469 30.3418C7.02092 30.3418 6.84652 30.4864 6.71684 30.8814C5.45875 34.7063 4.18128 38.5268 2.90978 42.3473C2.66532 43.0821 2.42235 43.8155 2.14956 44.6369C2.43278 44.6369 2.63104 44.6369 2.82929 44.6369C4.98622 44.6369 7.14465 44.6369 9.30158 44.6369C11.776 44.6369 14.249 44.6428 16.7219 44.6249C16.9187 44.6234 17.2406 44.5087 17.2913 44.3685C17.6863 43.3147 18.0262 42.2369 18.4138 41.0698ZM51.8067 46.4703C35.1013 46.4703 18.4674 46.4703 1.83504 46.4703C1.70983 47.9684 1.92597 48.2129 3.34057 48.2129C19.0026 48.2129 34.6645 48.2129 50.3265 48.2129C50.5307 48.2129 50.7379 48.2248 50.9392 48.2024C51.4683 48.1443 51.7739 47.8193 51.8037 47.2842C51.8186 47.0263 51.8067 46.7684 51.8067 46.4703ZM34.4812 44.61C34.0996 43.4563 33.7418 42.3487 33.3543 41.2531C33.32 41.1562 33.0845 41.0787 32.9429 41.0772C28.8511 41.0683 24.7608 41.0683 20.6691 41.0772C20.526 41.0772 20.2905 41.1533 20.2562 41.2502C19.8686 42.3458 19.5109 43.4533 19.1293 44.6085C24.2719 44.61 29.3371 44.61 34.4812 44.61ZM17.2526 39.2408C20.1846 39.2408 23.0332 39.2408 25.8788 39.2408C25.8788 38.6475 25.8788 38.0975 25.8788 37.4997C23.2136 37.4997 20.5811 37.4982 17.9487 37.5072C17.8473 37.5072 17.6774 37.5922 17.6535 37.6712C17.5045 38.1795 17.3882 38.6967 17.2526 39.2408ZM36.3594 39.2572C36.2491 38.7996 36.1283 38.4284 36.0777 38.0483C36.0195 37.6175 35.8287 37.4833 35.3875 37.4878C33.0099 37.5102 30.6339 37.4983 28.2564 37.4997C28.079 37.4997 27.9031 37.5191 27.7317 37.5296C27.7317 38.1347 27.7317 38.6818 27.7317 39.2557C30.5996 39.2572 33.4333 39.2572 36.3594 39.2572ZM25.8728 35.6812C25.8728 35.0864 25.8728 34.523 25.8728 33.9282C23.5147 33.9282 21.1953 33.9252 18.8773 33.9357C18.7611 33.9357 18.5703 34.0311 18.5434 34.1205C18.3929 34.6228 18.2811 35.1386 18.1484 35.6812C20.7824 35.6812 23.3194 35.6812 25.8728 35.6812ZM35.462 35.6812C35.3502 35.2042 35.2369 34.7972 35.1639 34.3828C35.1013 34.0266 34.9329 33.9148 34.5662 33.9193C32.4316 33.9386 30.2955 33.9282 28.1595 33.9297C28.0179 33.9297 27.8762 33.9535 27.7257 33.967C27.7257 34.5543 27.7257 35.1028 27.7257 35.6827C30.2896 35.6812 32.8251 35.6812 35.462 35.6812ZM16.2881 35.6901C16.4283 35.1088 16.5654 34.5468 16.7145 33.9282C14.395 33.9282 12.1725 33.9252 9.94851 33.9357C9.83224 33.9357 9.64144 34.0296 9.61461 34.119C9.46406 34.6228 9.35226 35.1371 9.21661 35.6901C11.6106 35.6901 13.9091 35.6901 16.2881 35.6901ZM36.8826 33.9282C37.0451 34.5722 37.1882 35.1371 37.3223 35.6693C39.7073 35.6693 42.0163 35.6693 44.3938 35.6693C44.2612 35.1326 44.1583 34.6467 44.0093 34.1757C43.975 34.0668 43.7827 33.9401 43.6619 33.9386C41.4394 33.9252 39.2154 33.9282 36.8826 33.9282ZM15.8305 37.5012C13.4917 37.5012 11.2498 37.4983 9.00793 37.5087C8.90805 37.5087 8.74408 37.6011 8.72023 37.6816C8.57266 38.1884 8.45639 38.7042 8.31926 39.2602C10.7266 39.2602 13.0401 39.2602 15.3878 39.2602C15.5309 38.6937 15.6695 38.1422 15.8305 37.5012ZM45.2897 39.2587C45.1794 38.7996 45.0602 38.4284 45.0065 38.0483C44.9469 37.6205 44.7635 37.4804 44.3178 37.4863C42.3144 37.5132 40.3095 37.4968 38.3061 37.4997C38.1481 37.4997 37.9901 37.5206 37.7844 37.534C37.938 38.1437 38.0766 38.6952 38.2182 39.2572C40.5704 39.2587 42.8838 39.2587 45.2897 39.2587Z" fill="white"/>
<path d="M26.803 3.57178C32.3094 3.57178 37.8157 3.57178 43.3221 3.57178C44.4371 3.57178 44.6651 3.79984 44.6651 4.9029C44.6651 11.7657 44.6651 18.6286 44.6651 25.4914C44.6651 26.517 44.4013 26.7838 43.3817 26.7838C32.3317 26.7838 21.2817 26.7838 10.2317 26.7838C9.20915 26.7838 8.94531 26.5184 8.94531 25.4944C8.94531 18.6137 8.94531 11.7315 8.94531 4.85073C8.94531 3.81922 9.19127 3.57327 10.2287 3.57327C15.753 3.57178 21.2772 3.57178 26.803 3.57178ZM10.746 24.9548C21.483 24.9548 32.1663 24.9548 42.8436 24.9548C42.8436 18.408 42.8436 11.9059 42.8436 5.40226C32.1275 5.40226 21.4442 5.40226 10.746 5.40226C10.746 11.9342 10.746 18.4229 10.746 24.9548Z" fill="white"/>
</svg>
