<svg width="33" height="27" viewBox="0 0 33 27" fill="none" xmlns="http://www.w3.org/2000/svg">
<path d="M22.3647 0.167373V0.161743H23.8306L24.3662 0.268719C24.7233 0.338168 25.0475 0.429182 25.3388 0.541788C25.6301 0.654393 25.912 0.785776 26.1845 0.935908C26.457 1.08604 26.7041 1.23901 26.9259 1.39478C27.1458 1.54868 27.3431 1.71196 27.5179 1.88461C27.6908 2.05915 27.9605 2.10419 28.3269 2.01974C28.6934 1.93528 29.0881 1.81798 29.5109 1.66785C29.9338 1.51771 30.352 1.34881 30.7654 1.16112C31.1789 0.973434 31.4307 0.854269 31.5209 0.803596C31.6093 0.751065 31.6563 0.722914 31.6619 0.719142L31.6675 0.710696L31.6957 0.696621L31.7239 0.682545L31.7521 0.668469L31.7803 0.654393L31.7859 0.645948L31.7944 0.640318L31.8029 0.634687L31.8085 0.626242L31.8367 0.617797L31.8648 0.612166L31.8592 0.654393L31.8507 0.696621L31.8367 0.738848L31.8226 0.781075L31.8085 0.809226L31.7944 0.837378L31.7803 0.879605C31.7709 0.907756 31.7615 0.945282 31.7521 0.992211C31.7427 1.03914 31.6534 1.2268 31.4843 1.55524C31.3151 1.88368 31.1037 2.2168 30.85 2.55462C30.5963 2.89243 30.3689 3.14765 30.1678 3.32034C29.9648 3.49487 29.8305 3.61685 29.7647 3.6863C29.6989 3.75761 29.619 3.82329 29.525 3.88336L29.3841 3.97626L29.3559 3.99034L29.3277 4.00442L29.3221 4.01286L29.3136 4.01849L29.3052 4.02412L29.2995 4.03257L29.2713 4.04664L29.2431 4.06072L29.2375 4.06916L29.229 4.07479L29.2206 4.08042L29.2149 4.08887L29.2093 4.09732L29.2008 4.10295L29.1924 4.10858L29.1868 4.11702H29.3277L30.117 3.94811C30.6433 3.83551 31.146 3.69945 31.6252 3.53992L32.3864 3.28655L32.4709 3.2584L32.5132 3.24433L32.5414 3.23025L32.5696 3.21617L32.5978 3.2021L32.626 3.18802L32.6824 3.17958L32.7387 3.17395V3.23025L32.7246 3.23588L32.7106 3.24433L32.7049 3.25277L32.6965 3.2584L32.688 3.26403L32.6824 3.27248L32.6768 3.28092L32.6683 3.28655L32.6598 3.29218L32.6542 3.30063L32.6486 3.30907L32.6401 3.31471L32.626 3.34286L32.6119 3.37101L32.6034 3.37664C32.5997 3.38227 32.4804 3.54177 32.2454 3.85521C32.0105 4.17051 31.8836 4.33001 31.8648 4.33379C31.8461 4.33942 31.8197 4.36757 31.7859 4.41824C31.754 4.47077 31.5547 4.68005 31.1883 5.04602C30.8218 5.41199 30.4629 5.73759 30.1114 6.02287C29.7581 6.31002 29.5796 6.66284 29.5758 7.08137C29.5702 7.49801 29.5485 7.9691 29.5109 8.49457C29.4734 9.02007 29.4029 9.58778 29.2995 10.1977C29.1962 10.8077 29.0364 11.4974 28.8203 12.2669C28.6042 13.0363 28.341 13.787 28.0309 14.519C27.7209 15.2509 27.3967 15.9078 27.0584 16.4896C26.7201 17.0714 26.41 17.564 26.1281 17.9675C25.8462 18.371 25.5596 18.7511 25.2683 19.1077C24.977 19.4643 24.6087 19.8659 24.1633 20.3125C23.716 20.7573 23.4717 21.0013 23.4303 21.0445C23.3871 21.0858 23.2029 21.2397 22.8777 21.5062C22.5545 21.7745 22.2068 22.0429 21.8347 22.3113C21.4645 22.5778 21.1243 22.8002 20.8142 22.9785C20.5041 23.1568 20.1301 23.3604 19.6922 23.5894C19.2562 23.8202 18.7845 24.0342 18.2771 24.2312C17.7696 24.4283 17.234 24.6113 16.6702 24.7802C16.1064 24.9491 15.5614 25.0805 15.0352 25.1743C14.509 25.2681 13.9123 25.3479 13.2451 25.4136L12.2443 25.5121V25.5262H10.4119V25.5121L10.1723 25.498C10.0126 25.4887 9.88103 25.4793 9.77766 25.4699C9.67431 25.4605 9.28433 25.4089 8.60776 25.3151C7.93119 25.2212 7.40028 25.1274 7.015 25.0335C6.62975 24.9397 6.05653 24.7614 5.29539 24.4987C4.53424 24.2359 3.88305 23.9703 3.34179 23.702C2.80242 23.4355 2.46414 23.2666 2.32694 23.1953C2.19162 23.1258 2.03939 23.0395 1.87025 22.9363L1.61654 22.7814L1.61093 22.773L1.60244 22.7674L1.59399 22.7617L1.58835 22.7533L1.56016 22.7392L1.53197 22.7251L1.52636 22.7167L1.51787 22.7111L1.50941 22.7054L1.50378 22.697L1.49817 22.6885L1.48968 22.6829H1.47559V22.6266L1.50378 22.6322L1.53197 22.6407L1.65882 22.6547C1.74339 22.6641 1.97363 22.6782 2.34949 22.697C2.72538 22.7158 3.12472 22.7158 3.54758 22.697C3.97044 22.6782 4.40271 22.636 4.84434 22.5703C5.286 22.5046 5.80752 22.392 6.40891 22.2325C7.01032 22.0729 7.56285 21.8834 8.06653 21.6638C8.56832 21.4424 8.92538 21.2772 9.13777 21.1684C9.34824 21.0614 9.66961 20.8624 10.1018 20.5715L10.7502 20.1352L10.7559 20.1267L10.7643 20.1211L10.7728 20.1155L10.7784 20.107L10.7841 20.0986L10.7925 20.093L10.801 20.0873L10.8066 20.0789L10.8348 20.0704L10.863 20.0648L10.8686 20.0367L10.8771 20.0085L10.8856 20.0029L10.8912 19.9944L10.6657 19.9804C10.5153 19.971 10.3697 19.9616 10.2287 19.9522C10.0878 19.9428 9.86694 19.9006 9.56623 19.8255C9.26555 19.7504 8.94136 19.6378 8.59366 19.4877C8.24599 19.3376 7.90771 19.1593 7.57881 18.9528C7.24994 18.7464 7.01218 18.5746 6.86559 18.4377C6.72089 18.3025 6.53294 18.1111 6.30178 17.8634C6.07251 17.6138 5.87329 17.3576 5.70415 17.0948C5.535 16.8321 5.37339 16.529 5.2193 16.1855L4.98529 15.6732L4.9712 15.631L4.9571 15.5887L4.94864 15.5606L4.94301 15.5324L4.98529 15.5381L5.02758 15.5465L5.33767 15.5887C5.54442 15.6169 5.86861 15.6263 6.31024 15.6169C6.7519 15.6075 7.05729 15.5887 7.22643 15.5606C7.39557 15.5324 7.49895 15.5137 7.53652 15.5043L7.5929 15.4902L7.66338 15.4761L7.73386 15.4621L7.73949 15.4536L7.74795 15.448L7.75644 15.4423L7.76205 15.4339L7.70567 15.4198L7.64928 15.4058L7.5929 15.3917L7.53652 15.3776L7.48014 15.3635C7.44256 15.3541 7.3768 15.3354 7.28281 15.3072C7.18885 15.2791 6.93514 15.1758 6.52167 14.9976C6.10823 14.8193 5.77933 14.6457 5.535 14.4768C5.29007 14.3074 5.05653 14.1221 4.83588 13.9222C4.616 13.7195 4.37452 13.4586 4.11139 13.1396C3.84829 12.8205 3.61338 12.4498 3.40663 12.0276C3.19991 11.6053 3.04486 11.2018 2.94149 10.8171C2.83853 10.4346 2.7706 10.0435 2.73854 9.64878L2.68777 9.0576L2.71596 9.06323L2.74415 9.07168L2.77234 9.08575L2.80053 9.09983L2.82873 9.1139L2.85692 9.12798L3.29387 9.32504C3.58519 9.45642 3.94695 9.56903 4.3792 9.66286C4.81147 9.75668 5.06986 9.80831 5.15443 9.81769L5.28129 9.83176H5.535L5.52939 9.82332L5.52091 9.81769L5.51245 9.81206L5.50681 9.80361L5.5012 9.79517L5.49272 9.78954L5.48426 9.78391L5.47862 9.77546L5.45043 9.76139L5.42224 9.74731L5.41663 9.73887L5.40815 9.73323L5.39969 9.7276L5.39405 9.71916L5.36586 9.70508L5.33767 9.69101L5.33206 9.68256C5.32642 9.67879 5.2456 9.61874 5.0896 9.50239C4.93548 9.38416 4.77386 9.23121 4.60472 9.04352C4.43558 8.85584 4.26644 8.65878 4.09729 8.45234C3.92784 8.24544 3.77691 8.02407 3.64625 7.79078C3.51471 7.5562 3.37562 7.25777 3.22903 6.89557C3.08433 6.53523 2.97439 6.17208 2.8992 5.80611C2.82405 5.44014 2.78176 5.07887 2.77234 4.72228C2.76296 4.36568 2.77234 4.06072 2.80053 3.80736C2.82873 3.55399 2.88511 3.26778 2.96968 2.94874C3.05425 2.6297 3.17643 2.29188 3.33615 1.93528L3.57577 1.40041L3.58987 1.35818L3.60396 1.31595L3.61245 1.31032L3.61806 1.30188L3.62369 1.29343L3.63215 1.2878L3.64064 1.29343L3.64625 1.30188L3.65189 1.31032L3.66034 1.31595L3.66883 1.32158L3.67444 1.33003L3.68008 1.33847L3.68853 1.3441L3.70263 1.37226L3.71672 1.40041L3.72521 1.40604L3.73082 1.41448L4.11139 1.83675C4.3651 2.11827 4.66581 2.43264 5.01348 2.77983C5.36118 3.12702 5.55381 3.30719 5.59138 3.32034C5.62899 3.33534 5.67596 3.3785 5.73234 3.44983C5.78872 3.51928 5.97666 3.68538 6.29615 3.94811C6.61566 4.21085 7.0338 4.51584 7.55062 4.86303C8.06746 5.21023 8.64066 5.55274 9.27023 5.89056C9.89984 6.22838 10.5764 6.53334 11.2999 6.80548C12.0235 7.07762 12.5309 7.25591 12.8222 7.34036C13.1135 7.42482 13.6116 7.53272 14.3163 7.6641C15.0211 7.79549 15.552 7.87994 15.9091 7.91747C16.2662 7.95499 16.5105 7.97658 16.642 7.98221L16.8394 7.98784L16.8337 7.94562L16.8253 7.90339L16.7689 7.5515C16.7313 7.31691 16.7125 6.98847 16.7125 6.5662C16.7125 6.14393 16.7454 5.75451 16.8112 5.39791C16.877 5.04132 16.9756 4.68005 17.1072 4.31408C17.2387 3.94811 17.3675 3.65438 17.4934 3.43294C17.6212 3.21336 17.7884 2.96281 17.9952 2.6813C18.2019 2.39978 18.4697 2.10889 18.7986 1.8086C19.1275 1.50831 19.5033 1.24087 19.9262 1.00629C20.3491 0.771701 20.739 0.593389 21.0961 0.471409C21.4532 0.349429 21.7539 0.269648 21.9982 0.232122C22.2425 0.194596 22.3647 0.173004 22.3647 0.167373V0.167373Z" fill="url(#paint0_linear_1349_134)"/>
<defs>
<linearGradient id="paint0_linear_1349_134" x1="17.1072" y1="0.161743" x2="17.1072" y2="25.5262" gradientUnits="userSpaceOnUse">
<stop stop-color="#20D4FE"/>
<stop offset="1" stop-color="#B722FF"/>
</linearGradient>
</defs>
</svg>
