<svg width="32" height="32" viewBox="0 0 32 32" fill="none" xmlns="http://www.w3.org/2000/svg">
<path fill-rule="evenodd" clip-rule="evenodd" d="M0.00195312 16.3177C0.00195312 10.0735 0.00195312 6.95139 1.48989 4.70264C2.15433 3.69846 3.01431 2.83847 4.01849 2.17403C6.26725 0.686096 9.38934 0.686096 15.6335 0.686096C21.8777 0.686096 24.9998 0.686096 27.2486 2.17403C28.2528 2.83847 29.1127 3.69846 29.7772 4.70264C31.2651 6.95139 31.2651 10.0735 31.2651 16.3177C31.2651 22.5619 31.2651 25.684 29.7772 27.9327C29.1127 28.9369 28.2528 29.7969 27.2486 30.4613C24.9998 31.9493 21.8777 31.9493 15.6335 31.9493C9.38934 31.9493 6.26725 31.9493 4.01849 30.4613C3.01431 29.7969 2.15433 28.9369 1.48989 27.9327C0.00195312 25.684 0.00195312 22.5619 0.00195312 16.3177ZM23.7262 16.3181C23.7262 20.7875 20.103 24.4107 15.6336 24.4107C11.1641 24.4107 7.54093 20.7875 7.54093 16.3181C7.54093 11.8486 11.1641 8.22539 15.6336 8.22539C20.103 8.22539 23.7262 11.8486 23.7262 16.3181ZM15.6336 21.6727C18.5909 21.6727 20.9883 19.2754 20.9883 16.3181C20.9883 13.3607 18.5909 10.9634 15.6336 10.9634C12.6763 10.9634 10.2789 13.3607 10.2789 16.3181C10.2789 19.2754 12.6763 21.6727 15.6336 21.6727ZM24.0458 9.72034C25.0959 9.72034 25.9473 8.869 25.9473 7.81881C25.9473 6.76862 25.0959 5.91727 24.0458 5.91727C22.9956 5.91727 22.1442 6.76862 22.1442 7.81881C22.1442 8.869 22.9956 9.72034 24.0458 9.72034Z" fill="url(#paint0_linear_198_893)"/>
<defs>
<linearGradient id="paint0_linear_198_893" x1="15.6335" y1="0.686096" x2="15.6335" y2="31.9493" gradientUnits="userSpaceOnUse">
<stop stop-color="#20D4FE"/>
<stop offset="1" stop-color="#B722FF"/>
</linearGradient>
</defs>
</svg>
