<svg width="38" height="27" viewBox="0 0 38 27" fill="none" xmlns="http://www.w3.org/2000/svg">
<path d="M20.5533 25.9144L13.4979 25.7826C11.2135 25.7366 8.92347 25.8283 6.68388 25.3523C3.27695 24.641 3.03559 21.1536 2.78304 18.2284C2.43504 14.1158 2.56976 9.9286 3.22647 5.85036C3.59721 3.56204 5.05622 2.19659 7.31251 2.048C14.9292 1.50875 22.5965 1.57266 30.1963 1.82424C30.9989 1.8473 31.807 1.97335 32.5985 2.11684C36.5052 2.81664 36.6005 6.76865 36.8537 10.0955C37.1063 13.4567 36.9996 16.8351 36.5169 20.1734C36.1296 22.9374 35.3887 25.2553 32.2617 25.4791C28.3438 25.7717 24.5158 26.0072 20.5869 25.9322C20.5871 25.9144 20.5645 25.9144 20.5533 25.9144ZM16.4054 18.9167C19.3579 17.1844 22.254 15.4809 25.1896 13.7602C22.2316 12.0278 19.341 10.3244 16.4054 8.60363V18.9167Z" fill="url(#paint0_linear_1349_148)"/>
<defs>
<linearGradient id="paint0_linear_1349_148" x1="19.7914" y1="1.63647" x2="19.7914" y2="25.9463" gradientUnits="userSpaceOnUse">
<stop stop-color="#20D4FE"/>
<stop offset="1" stop-color="#B722FF"/>
</linearGradient>
</defs>
</svg>
