<svg width="34" height="32" viewBox="0 0 34 32" fill="none" xmlns="http://www.w3.org/2000/svg">
<path d="M2.2124 5.626C2.2124 4.62348 2.56448 3.79641 3.26859 3.1448C3.97271 2.49316 4.88809 2.16736 6.01468 2.16736C7.12117 2.16736 8.0164 2.48814 8.70041 3.12976C9.40453 3.79142 9.7566 4.65355 9.7566 5.71623C9.7566 6.67864 9.41461 7.48062 8.73059 8.12224C8.02647 8.7839 7.10104 9.11472 5.95433 9.11472H5.92415C4.81766 9.11472 3.92243 8.7839 3.23841 8.12224C2.5544 7.46059 2.2124 6.6285 2.2124 5.626ZM2.6047 31.9418V11.8516H9.30395V31.9418H2.6047ZM13.0157 31.9418H19.7149V20.7237C19.7149 20.022 19.7954 19.4806 19.9564 19.0997C20.238 18.418 20.6655 17.8415 21.2389 17.3704C21.8122 16.8992 22.5314 16.6636 23.3965 16.6636C25.6497 16.6636 26.7763 18.1774 26.7763 21.2049V31.9418H33.4756V20.423C33.4756 17.4556 32.7714 15.2049 31.3632 13.6711C29.9549 12.1373 28.094 11.3704 25.7805 11.3704C23.1853 11.3704 21.1634 12.4831 19.7149 14.7087V14.7689H19.6848L19.7149 14.7087V11.8516H13.0157C13.0559 12.4932 13.076 14.4881 13.076 17.8365C13.076 21.1849 13.0559 25.8866 13.0157 31.9418Z" fill="url(#paint0_linear_1349_144)"/>
<defs>
<linearGradient id="paint0_linear_1349_144" x1="17.844" y1="2.16736" x2="17.844" y2="31.9418" gradientUnits="userSpaceOnUse">
<stop stop-color="#20D4FE"/>
<stop offset="1" stop-color="#B722FF"/>
</linearGradient>
</defs>
</svg>
