<svg width="51" height="50" viewBox="0 0 51 50" fill="none" xmlns="http://www.w3.org/2000/svg">
<g clip-path="url(#clip0_216_114)">
<path d="M42.2145 9.16771C41.0612 10.0393 39.9094 10.9094 38.7561 11.7795C36.828 13.2351 34.8941 14.6833 32.9749 16.1506C32.501 16.5131 32.0021 16.6803 31.4034 16.6745C29.3712 16.6554 27.339 16.6642 25.3067 16.6686C22.1858 16.6745 20.0582 18.7727 20.0347 21.8922C20.0186 23.9787 20.0156 26.0667 20.0347 28.1532C20.064 31.2434 22.1916 33.3431 25.2759 33.3475C27.3272 33.3504 29.3771 33.3592 31.4284 33.3416C32.0079 33.3372 32.4907 33.5045 32.9499 33.8508C35.9007 36.0767 38.8661 38.285 41.8125 40.5182C42.1338 40.7618 42.3554 40.7926 42.7193 40.596C44.6033 39.5747 46.9583 39.9269 48.5093 41.4235C50.0661 42.9275 50.4755 45.2958 49.5129 47.2385C48.5401 49.2032 46.4624 50.2656 44.2218 49.9457C42.1925 49.6552 40.4494 47.9765 40.1295 45.8988C40.0312 45.2635 40.1163 44.5885 40.1955 43.9415C40.2337 43.623 40.1852 43.4484 39.9314 43.2592C37.1156 41.158 34.3116 39.0392 31.49 36.9468C31.264 36.7781 30.928 36.6856 30.6419 36.6812C28.7197 36.6563 26.7961 36.69 24.8739 36.6577C20.3795 36.5814 16.7729 32.9777 16.7054 28.4848C16.6702 26.1606 16.6658 23.8349 16.7068 21.5107C16.7861 16.9782 20.4793 13.3701 25.0133 13.3583C26.8988 13.3525 28.7857 13.3671 30.6712 13.3466C30.9412 13.3437 31.2567 13.2542 31.4694 13.0972C34.2911 11.0018 37.0936 8.88305 39.9123 6.7848C40.1896 6.57938 40.2571 6.39303 40.1823 6.05995C39.5602 3.29701 41.3356 0.654388 44.1617 0.107082C46.8351 -0.410878 49.5657 1.51717 49.9693 4.20821C50.3948 7.04305 48.477 9.62111 45.6965 9.97913C44.4375 10.1361 43.3003 9.8368 42.2145 9.16771ZM46.6913 4.98295C46.6825 4.0468 45.9444 3.33369 44.998 3.3469C44.0927 3.35864 43.3722 4.09082 43.3722 4.99909C43.3722 5.9367 44.1059 6.67035 45.0406 6.66595C45.9796 6.66008 46.7001 5.92496 46.6913 4.98295ZM46.6928 44.9642C46.6854 44.031 45.9503 43.3178 45.0098 43.3296C44.0765 43.3413 43.362 44.0779 43.3737 45.0155C43.3854 45.959 44.1514 46.678 45.1198 46.6574C46.0061 46.6384 46.7001 45.8915 46.6928 44.9642Z" fill="white"/>
<path d="M26.6669 46.7279C26.6669 47.7843 26.6669 48.8232 26.6669 49.9501C25.0235 49.843 23.3742 50.1848 21.769 49.6639C19.6854 48.9875 18.3693 47.0712 18.3502 44.7382C18.3428 43.7947 18.2974 43.8769 17.5138 43.4426C16.6804 42.9789 16.1888 43.1652 15.533 43.8123C13.5594 45.7668 10.5984 45.7345 8.5603 43.8197C7.73274 43.0435 6.93159 42.2364 6.15098 41.4133C4.1393 39.293 4.22 36.1926 6.36961 34.2103C6.85089 33.7657 6.88317 33.4473 6.67628 32.8325C6.36521 31.9095 5.90007 31.6527 4.92725 31.6175C2.11442 31.5148 0.189308 29.5413 0.0455118 26.7549C-0.0161151 25.5502 -0.020517 24.3353 0.055783 23.1321C0.23186 20.3559 2.31104 18.3516 5.08278 18.3516C5.93529 18.3516 6.34026 18.1315 6.59264 17.3113C6.88904 16.3502 6.9624 16.3722 6.2757 15.6679C4.17452 13.5095 4.20973 10.4369 6.36227 8.3196C7.07979 7.61383 7.7973 6.90658 8.52509 6.21108C10.773 4.06588 13.8866 4.17299 15.9599 6.49427C16.3106 6.88604 16.5586 6.84202 17.0208 6.7129C18.0773 6.41944 18.3795 5.86333 18.4074 4.74964C18.472 2.10995 20.4822 0.180442 23.1204 0.0322441C24.2854 -0.0337848 25.4578 0.0205056 26.6684 0.0205056C26.6684 1.12245 26.6684 2.19212 26.6684 3.34102C26.4717 3.34102 26.278 3.34102 26.0844 3.34102C25.1688 3.34249 24.2532 3.32635 23.3376 3.34983C22.4293 3.37184 21.7543 4.0556 21.7323 4.96387C21.7133 5.71366 21.7323 6.46492 21.725 7.21619C21.7147 8.13619 21.3024 8.65855 20.4528 8.98869C19.2805 9.44503 18.1183 9.93071 16.965 10.4369C16.1536 10.7935 15.4977 10.7216 14.8536 10.1024C14.3254 9.59469 13.825 9.05912 13.2953 8.55437C12.5426 7.83539 11.5874 7.83392 10.8478 8.55437C10.0863 9.29536 9.33504 10.0466 8.59552 10.8067C7.878 11.5433 7.87213 12.5073 8.57791 13.26C9.07826 13.7941 9.60503 14.3033 10.1083 14.8359C10.707 15.4683 10.7759 16.1037 10.4297 16.9004C9.9205 18.0713 9.43335 19.251 8.96675 20.4396C8.65127 21.2422 8.11131 21.6648 7.22065 21.6838C6.50754 21.6985 5.79296 21.678 5.07838 21.6897C4.07181 21.7059 3.38804 22.3764 3.37337 23.3801C3.35723 24.46 3.35723 25.5399 3.37337 26.6199C3.38804 27.6235 4.06887 28.297 5.07251 28.3161C5.76801 28.3278 6.46352 28.3146 7.16049 28.3205C8.18614 28.3293 8.68649 28.7284 9.04598 29.6733C9.47443 30.7988 9.9381 31.911 10.4311 33.0085C10.8302 33.8977 10.7569 34.5433 10.0628 35.2535C9.57568 35.7509 9.07239 36.2322 8.58965 36.7326C7.86773 37.4809 7.8604 38.4244 8.57644 39.18C9.30716 39.9504 10.0467 40.7134 10.7979 41.4632C11.5712 42.2364 12.5294 42.2306 13.3247 41.4602C13.8367 40.9628 14.3312 40.4463 14.8433 39.9489C15.486 39.3253 16.1301 39.2534 16.9518 39.6129C18.1051 40.1176 19.2687 40.5974 20.4411 41.0552C21.2863 41.3854 21.6971 41.9166 21.7133 42.8366C21.7235 43.3853 21.7514 43.937 21.7089 44.4844C21.59 46.028 22.4763 46.766 23.8731 46.6765C24.7476 46.6207 25.6295 46.6706 26.5084 46.6765C26.5407 46.675 26.5744 46.6956 26.6669 46.7279Z" fill="white"/>
<path d="M25.0558 26.6551C25.0558 25.518 25.0558 24.463 25.0558 23.3419C25.2906 23.3419 25.5048 23.3419 25.7175 23.3419C30.4041 23.3419 35.0907 23.3361 39.7773 23.3507C40.1793 23.3522 40.3774 23.2451 40.5535 22.8651C41.5307 20.758 43.9004 19.5959 46.1058 20.1021C48.4153 20.6318 50.0059 22.6156 50.0103 24.9706C50.0132 27.2905 48.3948 29.3315 46.1586 29.8274C43.8535 30.3381 41.5395 29.2317 40.5476 27.0997C40.3745 26.7285 40.1764 26.6463 39.8081 26.6478C35.1215 26.658 30.4349 26.6551 25.7484 26.6551C25.5312 26.6551 25.314 26.6551 25.0558 26.6551ZM46.6927 25.022C46.7015 24.0815 45.9767 23.3463 45.0405 23.3434C44.1044 23.3405 43.3707 24.0741 43.3737 25.0103C43.3766 25.9244 44.0912 26.6492 44.9994 26.6625C45.9415 26.6742 46.6839 25.9537 46.6927 25.022Z" fill="white"/>
</g>
<defs>
<clipPath id="clip0_216_114">
<rect width="50.0293" height="50" fill="white"/>
</clipPath>
</defs>
</svg>
