<svg width="276" height="439" viewBox="0 0 276 439" fill="none" xmlns="http://www.w3.org/2000/svg">
<g clip-path="url(#clip0_1331_127)">
<path d="M275.295 28.2057C275.021 29.5748 274.812 30.9628 274.457 32.3131C271.453 43.7385 261.35 51.5965 249.518 51.6341C235.768 51.6787 222.018 51.6599 208.268 51.6176C207.136 51.6129 206.431 51.984 205.694 52.7989C199.052 60.1497 190.83 65.0932 181.605 68.4915C180.253 68.9893 178.919 69.5412 177.582 70.0861C176.27 70.6215 175.154 70.3749 174.461 69.3651C173.764 68.3482 173.895 67.2468 174.919 66.1994C178.494 62.5404 181.161 58.3226 182.808 53.4706C182.993 52.9211 183.137 52.3574 183.313 51.7539C181.455 51.6411 179.663 51.6529 177.907 51.4039C168.341 50.0442 161.549 44.901 157.449 36.1858C156.81 34.8307 157.327 33.4733 158.553 32.9214C159.816 32.3531 161.089 32.8909 161.773 34.3869C163.898 39.0368 167.216 42.5314 171.8 44.8C174.68 46.2255 177.74 46.923 180.95 46.9536C182.592 46.9677 184.231 46.9465 185.873 46.9606C187.902 46.9771 188.881 48.1701 188.503 50.1592C187.737 54.1775 186.382 57.9797 184.355 61.5376C184.222 61.7748 184.095 62.0167 183.825 62.5146C184.475 62.2469 184.919 62.0825 185.346 61.8852C192.333 58.6772 198.373 54.1963 203.378 48.3556C204.245 47.3458 205.198 46.9348 206.523 46.9371C220.78 46.97 235.04 46.9724 249.298 46.9512C259.77 46.9348 268.309 39.8353 270.284 29.5631C272.517 17.9498 264.056 6.38829 252.278 4.97685C251.158 4.84299 250.021 4.77488 248.891 4.77488C226.548 4.76314 204.202 4.74905 181.859 4.77488C172.622 4.78662 165.903 8.93169 161.824 17.2617C161.07 18.8023 159.812 19.3871 158.527 18.7883C157.252 18.1941 156.827 16.8249 157.571 15.2961C162.198 5.77533 169.83 0.305725 180.386 0.176558C203.665 -0.109956 226.95 0.0145133 250.23 0.117846C262.7 0.171861 273.548 10.1036 275.07 22.5106C275.112 22.8511 275.218 23.1823 275.295 23.5181C275.295 25.0822 275.295 26.6439 275.295 28.2057Z" fill="white"/>
<path d="M157.628 28.1985C156.336 28.1961 155.263 27.0923 155.296 25.8007C155.329 24.5513 156.385 23.525 157.632 23.5273C158.926 23.5297 160 24.6335 159.964 25.9228C159.932 27.1698 158.875 28.1985 157.628 28.1985Z" fill="white"/>
<path d="M178.594 16.9082H183.564C185.661 16.9082 187.295 17.5234 188.467 18.7539C189.645 19.9844 190.234 21.7096 190.234 23.9297C190.234 26.1562 189.648 27.8913 188.477 29.1348C187.305 30.3783 185.667 31 183.564 31H178.594V16.9082ZM180.781 18.793V29.1055H183.359C184.857 29.1055 186.003 28.6628 186.797 27.7773C187.598 26.8919 187.998 25.6159 187.998 23.9492C187.998 22.2891 187.598 21.0163 186.797 20.1309C185.996 19.2389 184.85 18.793 183.359 18.793H180.781ZM198.154 22.9824C197.692 22.4876 197.096 22.2402 196.367 22.2402C195.638 22.2402 195.033 22.4909 194.551 22.9922C194.069 23.487 193.802 24.1283 193.75 24.916H198.887C198.861 24.1217 198.617 23.4772 198.154 22.9824ZM198.877 27.9824H200.879C200.729 28.9264 200.247 29.6979 199.434 30.2969C198.62 30.8958 197.627 31.1953 196.455 31.1953C194.951 31.1953 193.766 30.7233 192.9 29.7793C192.041 28.8288 191.611 27.5397 191.611 25.9121C191.611 24.2975 192.041 22.9987 192.9 22.0156C193.766 21.0326 194.922 20.541 196.367 20.541C197.786 20.541 198.913 21.0065 199.746 21.9375C200.579 22.862 200.996 24.1055 200.996 25.668V26.3906H193.74V26.5176C193.74 27.416 193.991 28.1354 194.492 28.6758C194.993 29.2161 195.664 29.4863 196.504 29.4863C197.096 29.4863 197.604 29.3496 198.027 29.0762C198.451 28.8027 198.734 28.4382 198.877 27.9824ZM202.451 23.6367C202.451 22.7188 202.822 21.9733 203.564 21.4004C204.307 20.8275 205.277 20.541 206.475 20.541C207.614 20.541 208.548 20.8307 209.277 21.4102C210.013 21.9831 210.397 22.7285 210.43 23.6465H208.447C208.395 23.1777 208.19 22.8099 207.832 22.543C207.474 22.276 207.002 22.1426 206.416 22.1426C205.843 22.1426 205.381 22.2695 205.029 22.5234C204.684 22.7773 204.512 23.1061 204.512 23.5098C204.512 24.1348 205.036 24.5775 206.084 24.8379L207.812 25.2383C208.848 25.4857 209.58 25.8242 210.01 26.2539C210.446 26.6771 210.664 27.2695 210.664 28.0312C210.664 28.9688 210.267 29.7305 209.473 30.3164C208.685 30.9023 207.66 31.1953 206.396 31.1953C205.192 31.1953 204.209 30.9089 203.447 30.3359C202.692 29.763 202.272 29.0013 202.188 28.0508H204.277C204.362 28.5456 204.593 28.9264 204.971 29.1934C205.348 29.4538 205.856 29.584 206.494 29.584C207.126 29.584 207.624 29.4635 207.988 29.2227C208.359 28.9753 208.545 28.6432 208.545 28.2266C208.545 27.8945 208.434 27.6309 208.213 27.4355C207.992 27.2402 207.614 27.0742 207.08 26.9375L205.244 26.4883C203.382 26.0391 202.451 25.0885 202.451 23.6367ZM212.373 31V20.7266H214.482V31H212.373ZM214.297 18.8711C214.056 19.1055 213.766 19.2227 213.428 19.2227C213.089 19.2227 212.799 19.1055 212.559 18.8711C212.324 18.6367 212.207 18.3535 212.207 18.0215C212.207 17.6829 212.324 17.3965 212.559 17.1621C212.799 16.9277 213.089 16.8105 213.428 16.8105C213.773 16.8105 214.062 16.9277 214.297 17.1621C214.538 17.3965 214.658 17.6829 214.658 18.0215C214.658 18.3535 214.538 18.6367 214.297 18.8711ZM221.016 29.291C221.842 29.291 222.503 28.9785 222.998 28.3535C223.499 27.7285 223.75 26.8887 223.75 25.834C223.75 24.7793 223.499 23.9329 222.998 23.2949C222.503 22.6569 221.842 22.3379 221.016 22.3379C220.202 22.3379 219.551 22.6536 219.062 23.2852C218.581 23.9167 218.34 24.7663 218.34 25.834C218.34 26.9017 218.581 27.7448 219.062 28.3633C219.551 28.9818 220.202 29.291 221.016 29.291ZM221.035 34.8672C219.837 34.8672 218.822 34.5807 217.988 34.0078C217.161 33.4349 216.683 32.6992 216.553 31.8008H218.672C218.822 32.2305 219.115 32.5755 219.551 32.8359C219.993 33.0964 220.514 33.2266 221.113 33.2266C221.927 33.2266 222.568 33.0117 223.037 32.582C223.506 32.1589 223.74 31.5924 223.74 30.8828V29.1934H223.701C223.408 29.7598 222.972 30.209 222.393 30.541C221.82 30.873 221.172 31.0391 220.449 31.0391C219.154 31.0391 218.118 30.5703 217.344 29.6328C216.569 28.6888 216.182 27.4193 216.182 25.8242C216.182 24.2096 216.569 22.9303 217.344 21.9863C218.125 21.0358 219.176 20.5605 220.498 20.5605C221.221 20.5605 221.868 20.7331 222.441 21.0781C223.014 21.4167 223.457 21.8854 223.77 22.4844H223.809V20.7266H225.859V30.8145C225.859 32.0384 225.42 33.0182 224.541 33.7539C223.669 34.4961 222.5 34.8672 221.035 34.8672ZM227.949 31V20.7266H229.961V22.4453H230.01C230.296 21.8464 230.713 21.3809 231.26 21.0488C231.807 20.7168 232.467 20.5508 233.242 20.5508C234.368 20.5508 235.244 20.8893 235.869 21.5664C236.494 22.237 236.807 23.1647 236.807 24.3496V31H234.688V24.7598C234.688 23.9785 234.502 23.3861 234.131 22.9824C233.766 22.5723 233.223 22.3672 232.5 22.3672C231.758 22.3672 231.165 22.6081 230.723 23.0898C230.28 23.5716 230.059 24.2129 230.059 25.0137V31H227.949ZM244.932 22.9824C244.469 22.4876 243.874 22.2402 243.145 22.2402C242.415 22.2402 241.81 22.4909 241.328 22.9922C240.846 23.487 240.579 24.1283 240.527 24.916H245.664C245.638 24.1217 245.394 23.4772 244.932 22.9824ZM245.654 27.9824H247.656C247.507 28.9264 247.025 29.6979 246.211 30.2969C245.397 30.8958 244.404 31.1953 243.232 31.1953C241.729 31.1953 240.544 30.7233 239.678 29.7793C238.818 28.8288 238.389 27.5397 238.389 25.9121C238.389 24.2975 238.818 22.9987 239.678 22.0156C240.544 21.0326 241.699 20.541 243.145 20.541C244.564 20.541 245.69 21.0065 246.523 21.9375C247.357 22.862 247.773 24.1055 247.773 25.668V26.3906H240.518V26.5176C240.518 27.416 240.768 28.1354 241.27 28.6758C241.771 29.2161 242.441 29.4863 243.281 29.4863C243.874 29.4863 244.382 29.3496 244.805 29.0762C245.228 28.8027 245.511 28.4382 245.654 27.9824ZM249.414 31V20.7266H251.426V22.4746H251.475C251.644 21.8757 251.947 21.4069 252.383 21.0684C252.819 20.7298 253.34 20.5605 253.945 20.5605C254.147 20.5605 254.388 20.5866 254.668 20.6387V22.6016C254.479 22.5234 254.163 22.4844 253.721 22.4844C253.044 22.4844 252.507 22.696 252.109 23.1191C251.719 23.5423 251.523 24.1185 251.523 24.8477V31H249.414Z" fill="white"/>
</g>
<path fill-rule="evenodd" clip-rule="evenodd" d="M145.204 229.254C148.556 229.329 147.119 198.056 144.88 192.292C144.567 191.125 144.308 189.529 144.36 188.095C147.128 188.372 146.83 186.477 146.687 184.193C146.734 182.378 146.86 178.635 144.084 180.093C135.76 163.427 144.76 120.347 122.843 116.289C120.201 115.648 117.472 114.984 115.249 113.153C112.896 108.804 111.697 108.248 107.799 107.967C107.077 104.049 105.727 99.8641 101.706 98.34C98.0239 96.8968 93.7388 96.7822 89.8997 97.5517C86.7223 98.5881 86.4319 104.495 85.7256 107.407C81.4459 106.272 76.1716 103.885 73.8678 109.296C72.752 108.963 71.7177 109.179 70.5838 109.55C61.0791 111.082 51.8579 115.381 48.3328 124.352C46.1554 129.736 47.7004 135.597 48.5171 141.173C49.2786 147.244 47.2706 152.869 46.3398 158.709C44.9534 166.751 44.7026 173.201 45.6072 179.178C43.216 179.722 43.0403 181.897 44.007 184.172C44.291 184.942 44.5778 185.754 45.2058 186.19C46.4834 186.994 48.135 186.067 49.5235 185.925C49.8124 189.137 50.3719 192.287 51.2974 195.869C51.0294 196.94 50.7218 198.138 50.4453 199.214L50.3526 199.113C47.1822 212.392 37.7536 225.291 40.6839 239.405C40.8559 239.875 41.1828 239.777 41.4342 239.769C42.8891 240.322 44.2251 239.971 45.6924 240.028C49.172 240.03 52.5337 240.476 55.6521 240.864C56.2223 244.588 58.0754 250.684 61.3808 252.105C61.4366 252.123 62.4162 251.919 62.4982 251.913C53.6987 287.591 37.8678 320.582 31.579 356.979C31.5415 357.423 32.2644 357.188 32.5013 357.242C32.4692 358.252 33.1213 358.495 34.035 358.854C32.8577 361.316 31.7971 363.774 30.6246 366.242C30.0812 367.464 29.1954 368.671 29.034 369.977C27.7361 370.806 26.8621 372.427 26.8851 373.94C23.3857 375.419 24.3369 382.725 23.539 386.344C22.7314 391.734 18.8917 395.498 16.2588 399.918C15.7224 400.805 15.1506 401.968 15.1254 403.082C13.493 403.847 12.8848 405.519 12.9925 408.332C12.9871 411.624 13.9153 412.878 16.419 412.957C23.2196 413.636 31.1551 413.36 37.9948 412.587C43.1115 411.937 47.6458 412.476 46.5016 406.328C46.2658 404.84 46.7187 402.835 45.8371 401.631C45.2942 398.045 45.6104 394.431 46.7814 390.888C47.4936 387.905 48.6967 381.744 48.1977 377.741C47.9673 375.889 44.1882 374.871 43.5226 374.781C43.7343 373.387 43.641 370.952 42.8913 369.983C44.2685 369.791 44.6142 369.427 44.9009 367.898C45.5868 365.421 45.678 362.731 47.3751 360.645C50.4271 360.684 53.4694 359.909 56.5202 359.815L56.6719 359.465C58.4841 359.444 60.2799 359.117 61.9832 358.498C62.3631 358.677 62.8492 358.832 63.0625 358.257L64.0812 355.071C75.9406 317.33 89.0867 279.497 101.904 242.032C102.652 240.211 103.552 238.275 104.723 236.651C105.119 259.575 109.921 282.474 110.333 305.386C110.89 321.148 110.747 336.744 112.229 352.562C112.611 355.91 113.017 355.799 113.517 355.593C113.717 355.625 114.188 355.725 114.392 355.768C114.058 359.095 113.674 364.495 112.247 367.898C109.093 368.384 109.658 370.804 110.358 372.81C109.606 373.452 109.712 374.95 109.936 375.779C106.969 375.782 106.322 378.195 106.526 379.718C106.808 382.265 106.65 386.228 108.35 388.404C109.351 391.177 110.98 393.795 111.616 396.784C112.016 398.982 111.861 402.185 112.247 404.366C111.277 404.814 111.688 405.517 111.524 406.877C110.684 413.099 113.641 412.042 118.868 412.47C122.002 413.162 145.855 414.539 144.824 410.398C145 408.713 144.216 407.972 143.88 406.312C143.729 405.871 140.757 400.772 138.985 398.842C133.04 393.256 133.299 385.757 133.487 377.119C133.138 374.777 131.337 372.536 129.039 372.788C129.699 370.287 128.476 368.113 125.92 367.39C126.175 364.559 126.444 360.712 127.379 358.263L126.498 357.367L127.677 357.508L128.068 356.523L128.494 357.602C130.517 357.602 132.8 357.153 134.737 356.942C135.047 356.96 134.909 356.539 134.96 356.377C136.79 355.998 136.99 355.026 136.666 352.709C137.092 315.092 136.908 277.828 136.325 240.141C139.185 240.268 141.973 239.225 144.784 238.53C145.783 239.157 146.065 236.925 145.948 236.443C145.79 233.95 145.481 231.518 145.204 229.254Z" fill="white"/>
<path fill-rule="evenodd" clip-rule="evenodd" d="M86.4747 102.162C86.8997 102.498 86.8552 103.428 86.897 103.949L86.9002 103.983C87.0337 105.556 86.8525 107.136 86.4694 108.663L86.4099 108.896C86.2266 109.626 86.0444 110.501 85.471 111.002C84.8199 111.57 83.7856 111.202 83.762 110.285C83.7502 109.859 83.8922 109.449 84.0723 109.049C82.812 109.537 81.5485 110.016 80.2819 110.487C79.4721 117.18 88.822 125.373 94.2356 128.242C102.119 132.605 108.752 125.922 109.761 118.065C109.93 117.021 110.044 115.949 110.066 114.891L110.068 114.789C110.072 113.915 109.927 112.745 110.497 112.017C110.077 112.008 109.704 112.067 109.294 112.131L109.314 112.165C109.546 112.581 109.875 113.617 109.138 113.696C107.547 113.528 106.807 110.739 106.419 109.401L106.404 109.343C106.153 108.34 105.835 104.702 106.589 104.265C106.821 105.163 106.729 106.138 107.011 107.038C107.653 107.297 108.876 107.367 109.159 107.414C112.466 107.453 114.341 109.827 115.681 112.605C119.61 115.829 125.257 115.275 129.5 117.93C142.482 127.34 138.242 163.973 144.709 179.558C146.003 179.022 147.323 180.094 147.496 181.403C147.674 182.41 147.621 183.488 147.635 184.508L147.642 184.635C147.747 186.721 148.108 189.065 145.291 189.11C145.295 190.275 145.514 191.402 145.795 192.526C147.355 199.331 148.036 206.338 148.19 213.314L148.198 213.826C148.248 217.492 148.293 228.834 146.185 230.176L146.284 230.975C146.528 232.973 146.758 234.976 146.886 236.984C147.088 238.026 146.4 240.523 144.995 239.862C142.42 240.499 139.88 241.439 137.203 241.444C137.851 263.017 137.529 284.612 137.625 306.194C137.418 322.102 138.278 338.142 137.526 353.99L137.554 354.213C137.766 355.993 137.83 357.54 135.773 358.15C135.744 358.585 135.408 358.818 135.011 358.869C133.884 359.02 132.756 359.165 131.627 359.303C130.576 359.381 129.451 359.643 128.403 359.518C128.504 359.62 128.229 359.636 128.2 359.561C127.244 361.959 126.967 364.572 126.73 367.129C129.049 368.013 130.315 370.001 129.936 372.493C132.276 372.588 133.985 375.187 134.313 377.379C134.523 378.89 134.354 380.392 134.287 381.906C133.963 387.083 134.724 392.659 138.066 396.787C140.234 399.379 143.059 401.723 144.005 405.097C144.262 405.217 144.473 405.45 144.566 405.813L145.167 408.169L145.465 409.347C145.684 410.206 145.878 411.085 145.761 411.974L145.749 412.06C145.164 417.692 122.072 414.977 117.565 414.573C115.753 414.289 113.765 414.444 112.134 413.485C110.134 412.164 109.883 409.485 110.227 407.291L110.255 407.086C110.394 406.105 110.598 405.077 111.529 404.528C111.215 402.495 111.337 400.415 110.964 398.39C110.401 395.525 108.698 393.039 107.828 390.288C106.56 388.878 106.517 386.68 106.252 384.876C106.051 383.127 105.887 381.366 105.819 379.606C105.635 377.28 106.645 375.361 109.091 375.057C108.978 374.616 109.288 374.235 109.598 373.953C108.868 371.362 108.667 367.805 111.832 366.922C113.03 363.95 113.378 360.729 113.698 357.56C113.66 357.552 113.622 357.546 113.584 357.539C112.134 358.143 111.74 355.559 111.605 354.194L111.575 353.868C110.082 338.094 110.22 322.227 109.659 306.404L109.605 305.261C109.113 294.835 108.821 284.319 107.018 274.032C105.203 262.568 104.728 250.917 104.108 239.332C103.377 240.467 102.985 241.77 102.394 242.98C94.7216 265.518 86.8499 287.988 79.2653 310.557C73.7681 326.897 68.5157 343.323 63.2484 359.74C62.9794 360.58 62.1327 360.754 61.5126 360.485C59.9345 361.034 58.2827 361.341 56.6129 361.397C56.5127 361.628 56.3069 361.796 56.0052 361.763C55.114 361.666 54.0883 361.944 53.1971 362.048C51.158 362.25 49.1779 362.562 47.12 362.592C45.8457 364.204 45.7653 366.389 45.1779 368.307C44.8392 369.285 44.8923 371.478 43.724 371.753C44.1426 372.399 44.1978 373.173 44.1297 373.971C44.4931 374.053 44.8617 374.209 45.2037 374.37C45.5364 374.538 45.9764 374.523 46.2058 374.863C52.7325 376.046 47.963 388.438 46.8285 392.537C45.7149 395.887 45.3666 399.387 45.8746 402.885C46.6511 403.958 46.3912 405.553 46.5102 406.825C46.5723 407.959 46.687 409.111 46.6768 410.247C46.5504 414.966 40.7241 414.198 37.4374 414.811C35.3849 415.049 33.3228 415.216 31.2612 415.345C26.0325 415.67 20.7742 415.695 15.5562 415.189C12.187 415.082 11.463 412.885 11.4684 409.879L11.463 409.754C11.3869 407.714 11.716 405.251 13.6538 404.19C13.7502 403.112 14.2968 402.024 14.8558 401.081C17.4522 396.717 21.3503 392.892 22.1172 387.653C22.8691 384.224 22.017 376.676 25.503 374.888C25.5839 373.344 26.5324 371.77 27.7071 370.935C27.9338 369.649 28.7875 368.467 29.3159 367.285C30.3931 365.028 31.3898 362.735 32.4616 360.477C31.9005 360.24 31.3041 359.803 31.2258 359.183C30.6873 359.189 30.1551 358.841 30.22 358.186C30.4107 356.281 30.8271 354.41 31.2205 352.539L31.2692 352.305C38.2681 318.478 52.7196 286.845 61.175 253.451C60.0373 253.657 58.9735 252.356 58.3449 251.509C56.3128 248.774 55.1129 245.464 54.5856 242.106L53.6306 241.988C50.4458 241.597 47.2454 241.255 44.0338 241.346L43.26 241.373C42.4004 241.399 41.5386 241.392 40.7214 241.083C40.1512 241.135 39.5574 240.829 39.4165 240.189C37.0382 228.336 42.8843 217.087 47.0723 206.376C48.0584 203.743 48.7604 201.072 49.4303 198.344C49.4517 198.256 49.5905 198.275 49.5868 198.366C49.456 201.397 48.7047 204.454 47.9416 207.376C45.4341 217.285 40.2118 227.002 41.4888 237.493C45.4577 234.367 50.1714 232.196 55.1231 231.277C55.4087 230.036 55.7244 228.804 55.9618 227.554C55.7287 225.633 55.5695 223.703 55.3659 221.773C54.7564 215.992 53.8299 210.248 52.5905 204.569C50.6693 198.862 48.9924 193.078 48.3928 187.061L48.2835 187.082C46.9518 187.352 45.4845 187.939 44.2481 187.091C43.4641 186.547 43.1249 185.646 42.8082 184.78C41.9025 182.682 41.7353 179.924 44.2969 179.047C43.3419 172.375 43.9625 165.411 45.1163 158.802C46.0402 153.009 48.0675 147.301 47.3081 141.371C46.4662 135.672 44.8955 129.703 47.1661 124.125C50.8981 114.815 60.3481 110.398 69.6422 108.977L69.7928 108.932C70.9423 108.592 71.9894 108.233 73.1871 108.491C76.0129 103.248 80.5954 105.38 85.0707 106.549C85.3729 105.66 85.6243 104.75 85.8611 103.842C86.0085 103.379 85.9603 102.311 86.4747 102.162ZM112.375 407.072L112.364 407.3C112.245 409.755 112.378 411.858 115.422 411.842C117.517 412.066 119.611 412.283 121.709 412.473L122.496 412.543C128.722 413.098 135.023 413.37 141.236 412.536L141.495 412.5C142.015 412.426 142.977 412.441 143.388 412.057C143.883 411.391 143.309 410.119 143.189 409.344C133.493 409.232 123.784 408.874 114.082 408.998C113.062 409.003 112.601 408.131 112.695 407.336C112.58 407.259 112.473 407.17 112.375 407.072ZM13.9324 405.84C13.4555 407.517 13.5734 409.101 13.8424 410.78C13.9764 412.538 14.8129 412.65 16.3263 412.692C22.2346 413.237 28.1852 413.122 34.0945 412.665C37.2617 412.324 40.5167 412.337 43.6249 411.636C45.1083 410.979 44.2519 408.913 44.3023 407.645C37.3217 412.144 26.764 411.573 19.1515 408.97L19.0293 408.918C17.2287 408.161 14.9271 407.685 13.9324 405.84ZM25.4955 375.571C24.6927 376.476 24.6761 379.055 24.6423 379.932L24.6381 380.03C24.548 381.874 24.5625 383.72 24.4826 385.563C24.5416 393.325 20.0593 397.196 16.7309 403.437C15.8204 404.951 17.1451 405.166 18.2223 405.657C25.1981 408.903 33.4493 409.4 40.7369 406.914C44.4003 405.85 43.6008 403.384 43.2894 400.369C42.9834 394.207 46.2256 388.656 47.1849 382.695L47.2106 382.541C47.4962 380.791 47.9903 376.306 45.2026 377.265C44.5959 377.639 44.0252 377.17 43.9539 376.598C43.8818 376.61 43.8089 376.616 43.7358 376.617C43.4138 378.61 43.0794 380.599 42.7589 382.591C43.0284 382.763 43.2819 382.957 43.5059 383.178C43.7792 383.449 43.5885 384.016 43.1774 383.982C42.9669 383.963 42.7574 383.932 42.5499 383.892C42.3854 385.624 39.6346 384.652 40.4293 383.264C36.4744 381.898 32.1181 382.007 28.1026 383.054L28.086 383.061C27.7752 383.185 25.5394 383.633 26.2586 383.982C26.5587 384.018 25.876 384.41 25.7565 383.804C25.7179 383.042 27.4553 382.669 27.9874 382.352C26.645 380.431 25.7275 377.94 25.4955 375.571ZM126.804 369.487C123.078 367.469 118.5 368.218 114.46 368.575L114.29 368.594C113.262 368.705 111.829 368.773 111.356 369.832C110.673 371.529 111.806 375.325 112.162 377.213L112.283 377.707C112.578 378.916 112.858 380.114 112.959 381.363C112.961 381.403 112.924 381.43 112.889 381.43C111.473 379.918 110.837 377.885 110.176 375.945C109.894 376.105 109.619 376.28 109.359 376.471C108.345 379.957 108.005 383.669 108.808 387.225L108.837 387.35C109.829 391.745 112.919 395.339 113.212 399.931C113.408 401.788 113.364 403.69 113.899 405.493C114.05 405.529 114.191 405.599 114.31 405.698C114.43 405.798 114.524 405.923 114.586 406.066L116.328 406.068C124.745 406.082 133.165 406.159 141.577 406.505C141.306 404.14 139.218 402.041 137.747 400.419C133.235 395.798 131.283 389.159 132.027 382.761C132.418 379.561 134.204 374.532 129.835 373.349C129.515 375.958 129.084 378.558 128.845 381.177C129.67 381.575 129.619 382.624 128.612 382.603C128.16 384.125 126.644 383.509 126.807 382.074C121.262 380.026 118.081 379.34 112.678 382.425C112.527 382.403 113.094 381.797 113.165 381.689C114.872 379.848 117.495 378.983 119.954 378.952C122.393 378.951 124.686 379.87 126.986 380.581C127.332 378.11 127.565 375.623 127.839 373.143L127.899 372.612C128.042 371.31 127.99 370.235 126.804 369.487ZM37.6877 401.4C38.499 401.219 39.2455 400.945 40.0703 401.131C42.9722 403.311 31.1149 403.925 30.1053 403.771C27.5351 403.695 24.9639 403.369 22.4902 402.643L22.3182 402.591C22.0743 402.523 19.6087 401.837 20.0765 401.53C23.4216 401.826 26.697 402.441 30.1053 402.281C31.8057 402.245 33.512 402.125 35.1942 401.869C36.0305 401.742 36.8622 401.585 37.6877 401.4ZM116.083 398.699C115.551 397.902 118.141 398.96 118.479 398.969C120.624 399.498 122.806 399.899 125.009 400.066C126.49 400.179 127.976 400.2 129.459 400.129C130.554 400.091 131.639 399.929 132.727 399.818L132.767 399.816C133.413 399.793 134.71 400.195 133.911 400.965C132.669 401.928 130.83 401.634 129.341 401.776C124.819 401.761 120.031 401.033 116.083 398.699ZM31.071 392.911C32.3748 392.675 39.5499 392.598 38.835 394.8C38.6614 395.219 38.2649 395.357 37.8469 395.291C33.4064 394.211 28.616 393.646 24.1895 395.136C24.1177 395.16 24.0679 395.043 24.1381 395.011C26.3149 393.921 28.6439 393.158 31.071 392.911ZM124.208 390.758C125.38 390.669 126.558 390.701 127.73 390.788L128.21 390.826C128.705 390.866 129.21 390.917 129.682 391.061L129.776 391.091C130.419 391.298 131.87 392.404 130.769 392.936C129.587 393.319 128.587 392.863 127.447 392.57C124.268 391.817 120.926 392.072 117.776 392.843L118.22 392.985C118.248 392.965 118.283 393.011 118.257 393.034C117.938 393.312 117.501 393.213 117.275 392.868C117.236 392.808 117.261 392.713 117.324 392.68C119.459 391.56 121.812 390.94 124.208 390.758ZM25.1981 390.477C28.7886 388.888 32.9477 388.712 36.7981 389.173L37.0725 389.206C38.2734 389.347 39.8404 389.412 40.5274 390.531C40.7648 390.919 40.5194 391.363 40.1362 391.503C39.006 391.917 37.6775 391.089 36.5923 390.781C33.3823 389.903 29.9536 389.81 26.6895 390.418C26.7125 390.538 26.1718 390.486 26.0539 390.529C25.9065 390.52 24.9274 390.844 25.1981 390.477ZM115.733 387.995C118.865 386.472 122.486 386.108 125.867 386.895L126.008 386.935C127.506 387.356 129.919 387.852 130.455 389.439C130.572 389.796 130.32 390.279 129.942 390.352C128.665 390.596 127.505 389.663 126.349 389.215C122.948 387.936 119.097 387.63 115.58 388.57C115.557 388.709 115.533 388.846 115.508 388.985C115.569 388.945 115.631 389.033 115.583 389.083C115.021 389.475 114.437 388.483 115.733 387.995ZM33.2681 385.317C35.8024 385.149 38.3576 385.471 40.8045 386.14L41.2643 386.266C41.9331 386.454 42.7991 386.749 42.8966 387.472C42.9341 387.759 42.8629 387.957 42.6287 388.135C41.7777 388.772 39.9251 387.438 38.8661 387.28C35.0216 386.125 30.8947 386.142 27.0003 387.025L26.8679 387.056L26.9617 387.725C27.0539 388.045 26.198 387.291 26.5233 386.948C28.579 385.901 30.9783 385.506 33.2681 385.317ZM118.122 384.122C120.156 383.755 122.254 383.685 124.311 383.87L124.553 383.892C125.782 384.001 129.761 384.159 128.819 386.235C128.662 386.582 128.203 386.627 127.907 386.477C126.913 385.973 125.826 385.791 124.729 385.625C120.854 385.085 116.895 385.306 113.113 386.35C113.195 386.479 113.026 386.632 112.865 386.663C112.466 386.737 112.466 386.26 112.637 386.007C112.84 385.708 113.246 385.598 113.559 385.466C115.016 384.831 116.561 384.402 118.122 384.122ZM41.0885 372.568L40.857 372.513C36.9755 371.6 28.3706 369.962 27.4788 375.31C27.1627 377.665 28.2061 379.963 28.1289 382.296C32.1535 380.658 36.6046 380.676 40.7857 381.758C41.1566 379.336 41.5102 376.913 41.8886 374.493L41.9497 374.204C42.118 373.388 42.1748 372.75 41.0885 372.568ZM32.4434 373.542C33.289 372.817 34.6995 372.827 35.5296 373.619C36.2879 373.778 36.8233 374.583 36.8356 375.274C37.9889 377.303 36.5982 380.105 34.3957 380.611C29.4225 381.659 27.1991 374.826 32.4434 373.542ZM118.608 370.306C122.769 369.562 124.281 374.843 120.865 376.984C116.041 379.405 112.826 371.794 118.608 370.306ZM34.5023 358.577C34.5634 358.981 34.3651 359.268 34.1277 359.54C33.2746 363.039 31.9906 366.294 30.7248 369.648C34.8431 368.965 38.7343 369.56 42.3784 370.679C42.4223 369.656 42.8886 368.595 43.2123 367.63C43.8441 365.799 44.6033 364.015 45.4845 362.29L45.5949 362.075C45.911 361.461 46.2149 360.82 46.5879 360.233C42.5569 359.682 38.5264 359.187 34.5023 358.577ZM115.682 357.832L115.574 358.318C115.112 360.43 114.673 362.562 113.984 364.613L113.975 364.655C113.87 365.173 113.632 367.57 113.483 365.878C113.369 366.133 113.246 366.385 113.115 366.633L114.114 366.514C117.836 366.077 121.72 365.728 125.371 366.663C124.992 363.727 125.549 360.922 126.364 358.146C122.795 358.064 119.258 358.09 115.682 357.832ZM48.1055 361.481C47.9753 361.604 47.8472 361.729 47.7261 361.86C47.8906 361.817 48.0546 361.777 48.2074 361.741C48.2009 361.645 48.1329 361.572 48.1055 361.481ZM128.521 358.788L128.404 359.061C128.464 359.026 128.531 358.992 128.603 358.961C128.569 358.907 128.541 358.849 128.521 358.788ZM32.2976 358.189C32.2558 358.346 32.2237 358.518 32.1476 358.66C32.2076 358.671 32.2692 358.683 32.3303 358.696C32.4048 358.546 32.4831 358.399 32.5677 358.255C32.4774 358.235 32.3873 358.213 32.2976 358.189ZM63.3352 185.046C62.9703 185.222 62.5892 185.267 62.0855 185.288C57.9934 185.458 53.9141 185.933 49.8954 186.741C50.1173 189.993 51.1066 193.144 52.0476 196.244L52.2427 196.924C55.4232 208.032 58.1986 219.641 57.6397 231.26C57.6713 231.272 57.7013 231.288 57.7297 231.303C57.6788 231.445 57.6429 231.59 57.5915 231.732L57.5588 231.816L57.368 232.29C57.2624 232.553 57.1601 232.818 57.0711 233.089C56.9146 233.145 56.7228 233.186 56.54 233.213C55.6113 239.364 56.4939 246.262 60.6777 251.072C59.1863 248.069 58.6659 244.658 58.7318 241.321L58.7436 240.811C58.7608 240.181 58.7983 239.553 58.9902 238.955C58.9982 238.923 59.04 238.928 59.0507 238.955C59.936 241.691 59.9939 244.664 60.8642 247.42L60.9306 247.632C61.6187 249.792 62.7682 252.574 64.7644 253.69C65.1315 253.8 65.6969 253.67 65.8882 254.093L65.9005 254.124L65.9123 254.12C65.0217 251.2 64.4477 248.181 64.2511 245.132L64.2382 244.925C64.1755 243.861 64.0378 242.721 64.3025 241.682C64.8073 242.632 64.6819 244.183 64.9166 245.332L64.9263 245.398C65.1117 246.639 66.8984 256.13 68.072 254.862C68.3148 254.512 68.2515 253.836 68.259 253.419L68.2601 253.378C68.2766 252.777 68.2736 252.175 68.251 251.574C68.124 248.03 67.5736 244.393 68.6529 240.94C68.833 240.358 69.8115 240.249 69.9305 240.94C70.4053 243.705 70.8592 246.473 71.3131 249.241C71.6443 250.932 71.6304 252.839 72.6362 254.297C72.648 251.114 72.4717 247.939 72.319 244.76L72.2783 244.627C72.1577 244.226 72.0387 243.705 72.3152 243.364C72.4262 242.638 73.4862 242.721 73.5757 243.481C73.5955 243.64 73.61 243.8 73.6255 243.96C73.9765 244.401 74.3029 244.851 74.7177 245.229C77.4883 239.569 68.423 229.794 67.1717 223.402C63.4858 210.955 65.6053 197.904 66.6771 185.229C65.5683 185.098 64.4509 185.063 63.3352 185.046ZM116.086 113.408C118.023 117.3 119.445 121.419 120.431 125.658C120.734 126.967 118.98 127.77 118.272 126.623L118.25 126.588C117.379 125.133 116.08 123.851 114.436 123.35C113.316 128.05 113.862 133.015 114.444 137.76C115.476 144.37 116.297 151.009 116.42 157.708L116.425 158.067C116.785 180.943 120.145 203.717 123.825 226.115C129.707 227.061 135.092 229.728 140.515 232.073C141.457 232.441 142.42 232.762 143.406 232.983C140.682 207.59 130.321 183.776 127.119 158.475C126.273 151.894 126.233 145.212 127.402 138.671C127.422 138.545 127.599 138.587 127.608 138.698C127.736 141.386 128.195 144.038 128.467 146.71C128.653 145.184 129.081 143.638 129.426 142.174C129.849 140.743 130.005 138.445 131.244 137.512L131.322 137.241C131.355 137.126 131.527 137.174 131.5 137.29C131.487 137.346 131.473 137.4 131.462 137.455C132.258 137.667 131.514 138.612 131.317 139.063C130.04 142.493 129.66 146.205 128.788 149.74C130.05 160.774 132.321 171.668 135.119 182.393C137.69 181.714 140.269 181.06 142.846 180.397C137.098 161.64 140.459 140.708 131.846 122.798C128.62 116.787 120.673 117.604 116.086 113.408ZM72.4096 109.979C71.2038 109.914 69.9444 110.57 68.7869 110.796C67.2526 111.094 65.7258 111.33 64.2253 111.788C56.5443 113.898 49.1345 119.66 47.7422 127.963C46.7862 133.664 49.1543 139.218 49.0712 144.903C48.821 150.535 46.9678 155.948 46.246 161.523C45.3773 167.225 45.0777 173.193 45.8232 178.921C52.7132 176.963 59.9092 176.84 66.9745 177.852C66.3855 169.168 67.1588 160.442 67.5865 151.765C67.8946 146.192 68.4214 140.594 68.2349 135.01C68.2312 134.887 68.4321 134.856 68.4514 134.98C70.5704 146.384 69.3276 157.96 69.1133 169.461C68.9777 172.366 69.3362 175.3 69.1915 178.189C72.4037 178.882 72.2874 182.636 71.3051 185.11C71.1314 185.706 70.5403 185.602 70.0618 185.53C69.5436 186.076 68.3067 185.363 67.602 185.364C67.0506 199.639 63.6991 214.887 70.5666 228.229C73.4379 228.244 76.2021 227.252 78.9925 226.689L79.1447 226.659L79.149 226.657C79.559 226.122 79.7594 225.262 79.8146 224.632C80.2042 213.638 78.9839 202.62 79.6978 191.625C80.5723 179.421 83.2888 167.292 82.0327 155.006C81.1634 144.025 78.7792 133.244 77.6297 122.295L77.5713 121.729C77.4995 121.054 77.4727 120.308 77.1394 119.794C75.2 121.564 73.573 123.67 72.408 126.039C71.7627 127.184 70.035 126.674 70.0082 125.382C69.7601 123.076 69.7231 120.76 69.975 118.452L69.998 118.249C70.3099 115.36 71.1807 112.604 72.4096 109.979ZM144.501 189.206C142.003 189.338 139.503 189.616 137.001 189.583L137.253 190.53C140.282 201.895 143.507 213.24 145.408 224.869L145.477 223.779C145.546 222.688 145.612 221.597 145.654 220.504C146.194 210.053 145.37 199.616 144.501 189.206ZM79.4845 116.671C79.4952 117.143 79.5182 117.614 79.5552 118.084C80.7095 119.819 80.6067 122.126 80.865 124.122C82.314 134.904 84.4469 145.641 85.1661 156.534C85.8343 165.249 84.7427 173.932 83.6264 182.559C82.2497 192.439 82.3944 202.421 82.7138 212.368C88.0031 207.569 95.5207 206.727 102.194 205.237L102.511 205.172C107.643 204.119 112.763 202.592 117.123 199.593C113.988 177.114 114.726 154.346 111.52 131.888C111.421 130.119 111.401 128.341 111.547 126.574C111.406 124.661 111.364 122.737 111.361 120.819C109.956 126.485 105.249 131.96 99.0817 131.781C92.5202 131.395 86.9506 126.008 82.672 121.391C81.5123 120.014 80.3591 118.406 79.4845 116.671ZM137.194 189.216L136.897 189.202L136.916 189.266C136.977 189.254 137.039 189.243 137.101 189.232L137.194 189.216ZM145.333 181.54C145.286 181.526 145.206 181.526 145.118 181.53C144.99 181.825 144.732 182.069 144.432 182.15L141.928 182.828C139.842 183.395 137.754 183.953 135.663 184.502C136.014 185.859 136.37 187.215 136.73 188.57C139.581 187.647 142.738 187.856 145.645 187.262C145.609 185.697 145.524 184.123 145.497 182.555C145.491 182.299 145.543 181.888 145.413 181.658C145.331 181.511 145.413 181.565 145.333 181.54ZM49.5605 186.81L49.4823 186.827C49.508 186.898 49.5321 186.97 49.5541 187.042C49.5551 186.964 49.5567 186.888 49.5605 186.81ZM68.1218 179.277C62.7505 178.491 57.2876 178.026 51.8697 178.561C49.4196 178.895 46.9319 179.25 44.5306 179.705C43.6951 180.994 44.619 184.13 45.6586 185.122C45.9705 185.241 46.507 185.01 46.8055 184.943C49.0479 184.436 51.3104 184.023 53.5872 183.704C53.6202 183.749 53.6642 183.784 53.7149 183.807C53.7656 183.83 53.8213 183.839 53.8766 183.833L54.3997 183.785C57.5379 183.497 60.7034 183.287 63.8486 183.467L63.8722 183.485C65.9938 183.64 68.1084 183.977 70.2215 184.22C71.0553 182.027 70.9117 179.511 68.1218 179.277ZM107.206 107.765C107.414 108.472 107.663 109.159 107.973 109.826C108.297 109.736 108.744 109.808 108.982 110.014L109.083 109.995C109.362 109.942 109.696 109.861 109.783 109.851C113.621 109.317 113.329 114.48 113.343 117.075C113.366 118.375 113.392 119.677 113.431 120.979C114.53 120.602 115.998 121.278 116.959 121.877C116.203 119.363 115.328 116.886 114.338 114.455L114.152 113.981C113.376 112.019 112.517 110.032 110.868 108.666C109.614 108.337 108.399 108.277 107.206 107.765ZM79.3789 106.47C75.8114 105.19 74.3983 108.098 73.409 110.997C72.2424 114.209 71.924 117.744 72.1186 121.2L72.2386 121.04C73.551 119.281 75.4433 116.377 77.8366 116.844C77.8125 115.509 77.8607 114.042 78.1153 112.656C77.9668 111.762 77.9288 110.858 78.0322 109.954C78.0869 108.821 79.3141 108.993 80.1222 108.832C80.8215 108.364 81.6688 108.175 82.5193 108.506C83.1613 108.42 83.8033 108.338 84.4453 108.256C84.5439 108.038 84.6232 107.82 84.7063 107.597C82.9298 107.227 81.1533 106.846 79.3789 106.47Z" fill="#292929"/>
<path fill-rule="evenodd" clip-rule="evenodd" d="M103.903 108.572C101.079 108.588 98.678 107.788 96.8463 106.465C94.5601 105.652 91.8024 104.397 90.1277 103.08C89.4745 103.246 88.6926 102.554 88.1926 102.187C85.0844 99.8713 82.6445 96.4802 81.921 93.0837C80.8053 94.4899 79.2168 94.5483 77.6954 93.8495C74.5058 92.044 74.6253 88.2434 75.7732 85.4037C73.3595 79.9981 71.6864 65.7288 75.3713 59.97C76.1247 59.1083 77.2308 58.5928 78.0272 57.7091C78.7361 56.9374 79.4103 56.148 80.2345 55.5376C82.75 53.6266 87.0827 52.6095 89.796 52.1309C101.121 49.6872 109.822 54.0794 120.08 57.7836C119.49 59.2573 118.673 60.6008 117.737 61.8537C120.284 62.8022 119.114 64.9351 117.138 66.0166L115.962 65.4458C117.796 71.9929 122.015 88.274 120.194 93.5022C118.742 101.659 112.371 108.631 103.903 108.572Z" fill="white"/>
<path fill-rule="evenodd" clip-rule="evenodd" d="M105.54 109.274C101.872 109.649 97.5145 108.784 95.0692 105.81C95.0017 105.729 94.964 105.627 94.9622 105.522C94.9605 105.416 94.9948 105.313 95.0596 105.229C95.1241 105.144 95.218 105.086 95.323 105.065C95.428 105.045 95.5369 105.064 95.6287 105.119L95.8532 105.244C97.5236 106.165 99.2578 106.949 101.15 107.285C103.099 107.631 105.083 107.592 107.014 107.153C110.532 106.353 113.379 104.313 115.475 101.622C117.813 98.6196 119.217 94.8083 119.575 90.9965C120.009 86.3776 119.003 81.786 117.962 77.3134C116.868 72.6136 115.672 67.9384 114.284 63.3169C114.245 63.1911 114.231 63.0589 114.243 62.9278C113.833 62.767 113.397 62.8121 112.963 62.9584C112.17 63.2252 111.38 63.8276 110.722 64.3249C110.483 64.505 110.261 64.6727 110.061 64.8088C109.245 65.3661 108.352 65.7681 107.354 65.8308C106.315 65.8967 105.297 65.5746 104.354 65.1716C103.875 64.9664 103.403 64.7541 102.934 64.5425C101.597 63.9401 100.276 63.3437 98.8323 62.9562C96.8972 62.436 94.9004 62.1813 92.8967 62.199C89.3206 62.2311 85.7339 63.1497 83.5426 66.1678C82.6551 67.3908 82.0758 68.7959 82.5276 70.305C82.773 71.1254 83.2366 71.8703 83.7425 72.5557L83.9156 72.7894C84.1932 73.1656 84.4343 73.5396 84.5067 73.9389C84.5678 74.2733 84.5201 74.627 84.2811 75.0144C84.1305 75.2583 83.9392 75.4769 83.7468 75.695C83.6074 75.852 83.4681 76.0091 83.3486 76.1779C83.1069 76.5187 82.8931 76.8858 82.7253 77.2684C82.3968 78.0176 82.2575 78.8236 82.2286 79.6366C82.1932 80.6172 82.3315 81.5765 82.4681 82.5374C82.5657 83.2185 82.6621 83.9002 82.7018 84.5904C82.7111 84.6917 82.6806 84.7926 82.6166 84.8717C82.5527 84.9508 82.4603 85.0017 82.3593 85.0137C82.3268 85.018 82.2939 85.0187 82.2613 85.0159C82.2773 85.0823 82.2918 85.1488 82.3041 85.2158C82.2376 85.1301 82.1671 85.0474 82.093 84.9682L82.0785 84.9607C81.9996 84.9179 81.9358 84.8519 81.8958 84.7715C81.7892 84.673 81.6774 84.5803 81.5608 84.4939C80.951 84.0395 80.2383 83.7699 79.5239 83.7614C78.8347 83.7528 78.144 83.9864 77.6129 84.4811C76.5577 85.4639 76.2485 87.0678 76.2372 88.4456C76.226 89.8518 76.5523 91.5388 77.7806 92.4118C78.2736 92.7623 78.8755 92.9724 79.4816 92.9788C79.9842 92.9836 80.4649 92.8062 80.9387 92.6374C81.0844 92.5849 81.2297 92.5335 81.3749 92.4863C81.5394 92.4327 81.6895 92.4359 81.8202 92.475C81.9681 92.519 82.093 92.6101 82.1868 92.7317C82.2811 92.8572 82.3405 93.0054 82.359 93.1613C82.3774 93.3172 82.3542 93.4752 82.2918 93.6192C82.2754 93.6547 82.2583 93.6899 82.2404 93.7248L82.5105 94.1679C83.5447 95.8614 84.5978 97.5237 85.9777 98.9792C86.7703 99.8147 87.6101 100.603 88.5313 101.293L88.6642 101.391C88.7435 101.45 88.8319 101.522 88.9257 101.598C89.1947 101.817 89.5168 102.112 89.8174 102.123C89.9064 102.127 89.9841 102.116 90.0554 102.106C90.2263 102.084 90.3699 102.077 90.5109 102.135C90.6245 102.181 90.7424 102.268 90.8635 102.445C90.9455 102.566 90.9873 102.718 90.9873 102.871C90.9873 103.025 90.9449 103.18 90.8688 103.301C90.7124 103.554 90.5232 103.71 90.3179 103.799C90.0886 103.898 89.8356 103.913 89.5725 103.864C88.9246 103.743 88.207 103.207 87.7505 102.858L87.662 102.791C86.6503 102.02 85.6915 101.168 84.8491 100.216C83.4134 98.5929 82.1246 96.6802 81.4622 94.5908C80.9955 94.8968 80.4188 95.042 79.816 95.065C78.9376 95.0983 78.0084 94.8727 77.3235 94.5484C75.8133 93.8341 74.8964 92.4826 74.4672 90.929C73.9677 89.1241 74.1301 87.0496 74.7619 85.4285C74.7801 85.3814 74.7994 85.3342 74.8187 85.2865C72.8739 80.3691 72.2759 74.9083 72.4425 69.6603C72.5203 67.2037 72.688 64.6266 73.2689 62.2306C73.5294 61.1572 73.9811 60.1347 74.7035 59.2891C75.1151 58.8068 75.6204 58.4316 76.1274 58.0576C76.5668 57.7334 77.0084 57.4097 77.3792 57.0051L77.555 56.8132L77.6692 56.6878C78.3101 55.9826 78.9339 55.2982 79.712 54.72C80.6144 54.0501 81.6096 53.5249 82.6444 53.0887C84.8727 52.1504 87.2714 51.5877 89.6443 51.152C94.7782 50.2104 100.048 50.1638 105.118 51.4875C107.476 52.1032 109.764 52.9451 112.048 53.7865C112.26 53.8652 112.472 53.9429 112.684 54.0212C114.459 54.6734 116.235 55.3229 118.011 55.9719L120.487 56.8775C120.666 56.9434 120.842 57.0849 120.941 57.2602C121.039 57.4316 121.068 57.6315 120.989 57.8303C120.489 59.1014 119.843 60.3105 119.066 61.4337C119.336 61.617 119.566 61.8614 119.74 62.1465C119.96 62.5077 120.091 62.9353 120.099 63.3892C120.129 64.9085 118.744 65.9379 117.595 66.6828C117.487 66.7525 117.381 66.7938 117.279 66.8125C118.393 71.0622 119.458 75.3258 120.364 79.6232L120.427 79.9211C121.36 84.4189 121.962 89.0089 121.079 93.5667C120.32 97.4911 118.554 101.279 115.796 104.203C113.097 107.07 109.457 108.87 105.54 109.274ZM81.3877 83.3996C80.9076 81.8788 80.653 80.2239 80.8368 78.6816C80.9526 77.7127 81.2441 76.7797 81.72 75.9255C81.9922 75.4362 82.324 74.9834 82.6862 74.5568L82.8111 74.4132C82.8743 74.3403 82.937 74.2728 82.9569 74.1881C82.9681 74.1399 82.9563 74.0863 82.9269 74.022C82.8604 73.8799 82.7377 73.7433 82.6225 73.6098C82.5515 73.5294 82.4834 73.4464 82.4183 73.3612C81.3658 71.9389 80.5807 70.246 80.8358 68.4427C81.085 66.6834 82.2398 65.0435 83.4702 63.8077C86.1787 61.0865 90.3774 60.4611 94.0558 60.6111C96.1973 60.6985 98.335 61.0752 100.374 61.7328C101.38 62.0592 102.363 62.4509 103.318 62.9053L103.53 63.0071L103.872 63.1732C104.619 63.5393 105.369 63.9085 106.179 64.1068C107.762 64.4948 108.836 63.6781 109.966 62.8539C110.352 62.5714 110.745 62.2847 111.163 62.0339L111.248 61.983C112.001 61.5473 112.902 61.2542 113.768 61.2671C114.52 61.2788 115.245 61.5184 115.835 62.0843C115.956 62.2006 116.026 62.3271 116.059 62.4541C116.124 62.5452 116.177 62.654 116.211 62.7826C116.423 63.5746 116.633 64.3672 116.843 65.1604L117.015 65.05C117.523 64.7204 118.076 64.3436 118.326 63.7927C118.421 63.5805 118.408 63.2268 118.287 62.9675C118.25 62.8785 118.189 62.8015 118.111 62.7451C118.051 62.7069 117.98 62.6903 117.909 62.6979C117.734 62.722 117.555 62.699 117.392 62.6315C117.228 62.5635 117.088 62.4461 116.994 62.2954C116.9 62.1466 116.861 61.9699 116.883 61.7955C116.902 61.6411 116.969 61.4798 117.1 61.3282C117.968 60.3308 118.698 59.2301 119.253 58.0361L115.582 56.6803C114.273 56.1975 112.964 55.7152 111.654 55.2345L110.937 54.9713C108.555 54.0994 106.16 53.2474 103.683 52.6863C98.7599 51.5711 93.6271 51.8331 88.7178 52.8829L88.4214 52.9473C86.3614 53.3953 84.2741 53.9376 82.3829 54.8802C81.4553 55.3427 80.5732 55.9054 79.8154 56.6165C79.481 56.9306 79.1782 57.2741 78.876 57.6171C78.4516 58.0983 78.0271 58.5779 77.5229 58.9836L77.055 59.3571C76.3589 59.9171 75.7308 60.4627 75.338 61.3308C74.927 62.2386 74.7314 63.2413 74.5711 64.2182C74.1676 66.6796 74.0084 69.1807 74.0235 71.6737C74.0492 75.8595 74.6869 79.9608 75.4918 84.047C76.1376 83.1247 77.0448 82.4093 78.2093 82.2566C78.7919 82.1806 79.3841 82.2447 79.9369 82.4435C80.4897 82.6423 80.987 82.9701 81.3877 83.3996ZM80.1675 88.3706C79.3176 88.0416 78.4242 87.9339 77.5245 88.0914C77.4351 88.1069 77.3433 88.0902 77.2651 88.0443C77.1893 88 77.1298 87.9325 77.0952 87.8519C77.076 87.8093 77.0655 87.7634 77.0641 87.7167C77.0628 87.6701 77.0707 87.6236 77.0873 87.58C77.104 87.5364 77.1292 87.4966 77.1613 87.4628C77.1935 87.4289 77.232 87.4018 77.2747 87.3829C78.249 86.9189 79.332 86.7142 80.4065 86.8599L80.5132 86.8749C81.0625 86.9564 81.8352 87.1273 82.4145 87.4644C82.8695 87.7291 83.2028 88.0941 83.2859 88.5705C83.3293 88.8192 83.2671 89.0785 83.1241 89.2666C83.0519 89.3632 82.9571 89.4406 82.8481 89.492C82.7391 89.5434 82.6191 89.5672 82.4987 89.5614C82.0147 89.548 81.728 89.3438 81.3829 89.0791L81.2538 88.981C80.9212 88.729 80.5557 88.5237 80.1675 88.3706Z" fill="#292929"/>
<path fill-rule="evenodd" clip-rule="evenodd" d="M106.217 98.0875C105.354 97.7362 104.602 97.1588 104.04 96.416C103.846 96.1577 103.796 95.8855 103.837 95.6363C103.882 95.356 104.048 95.102 104.275 94.9316C104.502 94.7607 104.787 94.6765 105.061 94.7194C105.3 94.7569 105.538 94.8871 105.726 95.1578L105.765 95.2119C106.093 95.6592 106.524 96.0203 107.022 96.2644C107.504 96.5007 108.044 96.5955 108.578 96.5377C109.624 96.4193 110.346 95.8544 111.113 95.0876C111.207 94.9906 111.302 94.8909 111.398 94.7891C111.454 94.7031 111.538 94.6388 111.635 94.6069C111.742 94.5728 111.856 94.5745 111.962 94.6117C112.066 94.6474 112.156 94.7156 112.219 94.8062C112.278 94.8925 112.311 94.9991 112.301 95.1213C112.23 95.9166 111.814 96.6261 111.222 97.1829C110.565 97.8019 109.695 98.2295 108.875 98.3801C107.971 98.5452 107.051 98.4267 106.217 98.0875ZM109.301 85.823C110.262 86.406 111.726 87.7656 110.692 89.2109C109.475 90.4853 107.723 89.0239 106.86 88.3631C106.059 87.8513 105.159 89.1686 105.903 89.7666C112.142 94.3764 114.674 85.9757 109.787 85.1375C109.249 85.0454 109.049 85.6429 109.301 85.823ZM98.1198 80.4608C98.2264 79.1451 100.233 78.8467 100.433 80.1478C100.612 81.3139 100.402 82.3852 99.8754 83.435C99.3727 84.4377 98.1085 83.9698 98.0131 83.0567C97.885 81.8327 98.0538 81.2786 98.1198 80.4608ZM113.4 79.8783C113.681 79.5122 114.085 79.2625 114.569 79.404C116.081 79.845 115.636 81.9881 115.104 83.0309C114.816 83.5974 113.883 83.741 113.461 83.2426C112.773 82.4291 112.444 80.8048 113.318 80.0037C113.342 79.9619 113.368 79.9201 113.4 79.8783ZM99.8539 74.7047L100.093 74.6629C100.832 74.5354 101.751 74.4126 102.274 75.0059C102.551 75.3204 102.647 75.9051 102.274 76.2057C101.618 76.7357 100.894 76.5305 100.107 76.575C99.4663 76.6116 98.8312 76.7196 98.2141 76.8971C96.8454 77.2872 95.7307 77.9999 94.5619 78.7823C94.4087 78.8852 94.2522 78.6891 94.3251 78.546C94.9998 77.2272 96.3074 76.1441 97.6171 75.4839C98.3159 75.1313 99.0806 74.8387 99.8539 74.7047ZM112.021 74.1141L112.205 74.1517C114.195 74.5664 116.78 75.396 117.723 77.3467C117.759 77.6227 117.721 77.6816 117.69 77.7202L117.679 77.7331C117.654 77.7663 117.634 77.8118 117.514 77.8493L117.413 77.8242C116.981 77.7111 116.639 77.5551 116.309 77.3938L115.95 77.2175C115.534 77.0139 115.114 76.8177 114.669 76.6725C113.72 76.3622 112.742 76.1468 111.75 76.0294C111.539 76.0088 111.337 75.9322 111.165 75.8076C111.001 75.6848 110.885 75.5087 110.837 75.3097C110.767 75.0295 110.787 74.8172 110.938 74.5638C111.052 74.3735 111.214 74.2422 111.4 74.1661C111.598 74.0885 111.814 74.0704 112.021 74.1141Z" fill="#292929"/>
<path fill-rule="evenodd" clip-rule="evenodd" d="M124.079 76.1527C123.974 76.1355 123.87 76.1191 123.765 76.1034C123.674 76.0535 123.576 76.0185 123.475 76C123.225 75.9365 122.97 75.8925 122.713 75.8682C119.082 75.0531 110.681 76.2106 110.335 79.3033C109.178 79.6886 108.178 79.3435 106.837 79.3778C105.817 75.1222 88.1796 75.7229 87.3318 78.2888L87.3216 78.2861C86.5071 78.0343 85.3051 78.0948 84.3726 78.0552C82.3794 78.009 80.3876 78.1951 78.4375 78.6098C74.7881 79.1886 69.8074 79.866 72.3454 84.4141L72.3471 84.4168V84.4163C72.7849 84.8637 73.5271 84.5036 73.555 83.8975C72.7013 81.7432 74.6289 81.4844 76.1117 80.8654C79.8014 79.5423 83.5586 79.359 87.3747 79.7679C87.6619 80.1055 88.0976 80.3997 88.5579 80.5535C91.1094 80.9763 89.7648 82.8654 91.3778 83.1398C91.0815 89.7243 99.0921 93.3186 103.733 88.9902C105.587 87.182 106.028 84.5036 106.458 82.0889C106.685 82.038 106.829 81.9142 106.914 81.7502C107.46 81.2057 107.804 80.703 108.884 80.5535C109.964 80.404 110.796 80.7041 110.909 80.7957C110.937 80.8531 110.968 80.9099 111.003 80.9672C111.052 81.0524 111.119 81.1205 111.196 81.1741C110.129 87.7308 115.23 91.8776 120.378 88.4768C122.616 86.376 123.089 83.1607 123.182 80.2904C123.486 80.1077 123.677 79.754 123.572 79.3086C123.428 78.695 123.767 78.1639 124.308 77.8971C125.01 77.5509 124.885 76.2862 124.079 76.1527ZM101.954 79.2636C101.314 79.1232 101.042 80.1066 101.683 80.247C102.137 80.3467 102.521 80.5755 102.782 80.9624L102.809 81.0047C103.158 81.5583 104.04 81.0471 103.688 80.4897C103.496 80.1799 103.243 79.9117 102.945 79.7011C102.647 79.4905 102.31 79.3417 101.954 79.2636ZM120.673 78.6538C120.448 78.4951 120.107 78.613 119.976 78.8365C119.832 79.083 119.927 79.3574 120.137 79.5187L120.159 79.5348C120.353 79.6709 120.541 79.9147 120.565 80.165L120.567 80.1961C120.592 80.8504 121.611 80.8536 121.586 80.1961C121.561 79.5525 121.188 79.015 120.673 78.6538Z" fill="#292929"/>
<defs>
<clipPath id="clip0_1331_127">
<rect width="120" height="70.3628" fill="white" transform="translate(155.295)"/>
</clipPath>
</defs>
</svg>
