<svg width="46" height="40" viewBox="0 0 46 40" fill="none" xmlns="http://www.w3.org/2000/svg">
<path d="M45.3125 6.28327C45.0354 7.29496 44.306 7.83224 43.3898 8.24845C41.5055 9.10473 39.8186 10.2532 38.4897 11.868C37.0175 13.6568 36.2264 15.7489 35.858 18.0068C35.688 19.0488 35.6146 20.1065 35.4895 21.2276C35.745 21.2276 35.9016 21.2276 36.0582 21.2276C38.0636 21.2276 40.0689 21.2247 42.0743 21.2288C43.6681 21.2323 44.614 22.1648 44.6157 23.7476C44.6204 28.3188 44.6198 32.8895 44.6157 37.4608C44.614 39.0423 43.6611 39.9952 42.0836 39.9964C37.5123 39.9999 32.9416 39.9999 28.3704 39.9964C26.8243 39.9952 25.8493 39.0272 25.8487 37.4858C25.8475 33.2836 25.819 29.0808 25.8726 24.8792C25.9139 21.6205 26.1619 18.3759 26.8872 15.1813C27.6806 11.6852 29.357 8.67863 31.8083 6.08536C34.2141 3.54039 37.081 1.66427 40.2715 0.260819C41.5568 -0.304401 42.8275 0.133923 43.4393 1.39534C44.0936 2.74466 44.6908 4.12191 45.3125 5.48695C45.3125 5.75239 45.3125 6.01783 45.3125 6.28327Z" fill="url(#paint0_linear_188_74)"/>
<path d="M9.59974 21.229C9.93387 21.229 10.0934 21.229 10.2529 21.229C12.2437 21.229 14.235 21.2261 16.2258 21.2301C17.8394 21.233 18.7743 22.1702 18.7754 23.7885C18.7778 28.3458 18.7784 32.9031 18.7749 37.4603C18.7737 39.0402 17.8196 39.996 16.241 39.9972C11.6691 40.0007 7.0967 40.0012 2.52485 39.9972C0.978781 39.996 0.00899306 39.0268 0.00899293 37.4819C0.00841082 33.2785 -0.0206957 29.0746 0.0305296 24.8718C0.0718577 21.5078 0.320999 18.156 1.13071 14.873C2.48177 9.39537 5.79627 5.36372 10.463 2.37287C11.6976 1.5812 13.0336 0.938565 14.3555 0.294758C15.7159 -0.367675 16.9756 0.11256 17.6357 1.47293C18.1433 2.51956 18.6375 3.57258 19.1311 4.62619C19.8349 6.12802 19.4053 7.35742 17.9104 8.05944C16.4627 8.73934 15.0907 9.53158 13.8829 10.5904C11.8996 12.3292 10.7412 14.5493 10.2045 17.0908C9.92339 18.4244 9.80406 19.7917 9.59974 21.229Z" fill="url(#paint1_linear_188_74)"/>
<defs>
<linearGradient id="paint0_linear_188_74" x1="47.0408" y1="51.5936" x2="8.26314" y2="37.1903" gradientUnits="userSpaceOnUse">
<stop stop-color="#20D4FE"/>
<stop offset="1" stop-color="#B722FF"/>
</linearGradient>
<linearGradient id="paint1_linear_188_74" x1="21.1882" y1="51.6" x2="-17.5762" y2="37.2172" gradientUnits="userSpaceOnUse">
<stop stop-color="#20D4FE"/>
<stop offset="1" stop-color="#B722FF"/>
</linearGradient>
</defs>
</svg>
