<svg width="36" height="39" viewBox="0 0 36 39" fill="none" xmlns="http://www.w3.org/2000/svg">
<path d="M18.3001 -3.72524e-05C18.6176 0.270484 18.9736 0.506251 19.246 0.815284C21.8967 3.82483 24.5343 6.84659 27.1738 9.86648C27.6697 10.4338 27.7289 10.9871 27.3616 11.4971C27.0883 11.8766 26.7003 12.0015 26.2495 12.0006C24.8499 11.9978 23.4503 11.9997 22.0508 11.9997C21.9155 11.9997 21.7802 11.9997 21.599 11.9997C21.599 12.1706 21.599 12.3162 21.599 12.4609C21.599 17.4091 21.599 22.3574 21.599 27.3057C21.599 28.3765 21.1744 28.7983 20.0989 28.7983C18.6739 28.7983 17.25 28.7992 15.825 28.7983C14.8528 28.7973 14.3991 28.3474 14.3991 27.3809C14.3982 22.4204 14.3991 17.4589 14.3991 12.4984C14.3991 12.35 14.3991 12.2007 14.3991 11.9987C14.2489 11.9987 14.1174 11.9987 13.9858 11.9987C12.5487 11.9987 11.1116 12.0081 9.67441 11.995C8.7614 11.9865 8.18655 11.2069 8.48619 10.3981C8.55382 10.2159 8.67311 10.044 8.80273 9.89559C11.5305 6.77051 14.2592 3.64636 16.9992 0.531612C17.1889 0.315571 17.4641 0.174674 17.6989 -0.000976562C17.9 -3.72524e-05 18.1 -3.72524e-05 18.3001 -3.72524e-05Z" fill="white"/>
<path d="M0.000417471 26.415C1.61133 26.415 3.18092 26.415 4.79184 26.415C4.79184 28.8009 4.79184 31.1802 4.79184 33.5782C13.6016 33.5782 22.3701 33.5782 31.1799 33.5782C31.1799 31.2074 31.1799 28.8291 31.1799 26.4244C32.7992 26.4244 34.3782 26.4244 35.9826 26.4244C35.9882 26.5484 35.9985 26.6696 35.9985 26.7908C35.9995 29.7778 36.0004 32.7648 35.9985 35.7518C35.9976 37.42 35.0132 38.3988 33.3356 38.3988C23.1131 38.3997 12.8896 38.3997 2.66712 38.3988C0.974482 38.3988 0.00135678 37.4181 0.000417471 35.717C-0.000521839 32.7554 0.000417471 29.7928 0.000417471 26.8312C0.000417471 26.7062 0.000417471 26.5822 0.000417471 26.415Z" fill="white"/>
</svg>
