<svg width="47" height="50" viewBox="0 0 47 50" fill="none" xmlns="http://www.w3.org/2000/svg">
<g clip-path="url(#clip0_127_631)">
<path d="M1.2874 49.9999C0.336041 49.6184 -0.0405882 48.9275 0.00343342 47.8991C0.0609061 46.5834 0.0278899 45.2627 0.013216 43.9457C0.00465625 43.1411 0.344601 42.5798 1.06729 42.2326C1.62367 41.9648 2.16294 41.6603 2.7291 41.4157C3.06905 41.269 3.15098 41.066 3.15098 40.7114C3.13875 34.1045 3.14242 27.4976 3.14242 20.8906C3.14242 16.1057 3.1412 11.3221 3.14242 6.53715C3.14364 2.74151 5.86442 0.00849819 9.6564 0.00482973C15.7766 -0.00128439 21.8956 -0.00128439 28.0159 0.00482973C31.7173 0.00849819 34.3843 2.67547 34.3929 6.37818C34.4002 9.35576 34.4002 12.3346 34.3868 15.3121C34.3855 15.6398 34.4638 15.7878 34.7989 15.8856C37.8046 16.7636 40.7295 19.8733 40.6611 23.7765C40.5914 27.7617 40.6439 31.7505 40.6464 35.7369C40.6464 36.5477 41.0047 37.1212 41.6467 37.3682C42.6078 37.7375 43.6558 37.0882 43.7609 36.0561C43.7756 35.9106 43.7707 35.7638 43.7707 35.6171C43.7707 29.5311 43.7683 23.4439 43.7793 17.3579C43.7805 16.9984 43.6619 16.8321 43.3513 16.6536C41.8399 15.7878 40.8653 14.5344 40.7173 12.743C40.6965 12.4898 40.743 12.2306 40.7613 11.909C40.046 11.5483 39.2793 11.1643 38.515 10.7742C37.9281 10.4759 37.5991 10.0087 37.6016 9.33619C37.6052 8.27478 38.63 7.53619 39.6351 7.88959C39.9861 8.01309 40.315 8.19652 40.6488 8.36405C42.3645 9.22124 44.0715 10.0943 45.7957 10.9332C46.5575 11.3037 46.9024 11.865 46.9011 12.71C46.8926 20.3746 46.8999 28.0393 46.8938 35.7039C46.8926 38.0762 45.5683 39.8138 43.3109 40.4509C40.7895 41.1626 37.9109 39.2562 37.6065 36.6638C37.5539 36.2126 37.5245 35.7565 37.5233 35.3016C37.5172 31.4118 37.5282 27.5232 37.516 23.6334C37.5098 21.5705 36.4533 20.1472 34.7071 19.1689C34.6264 19.1237 34.5347 19.0968 34.3941 19.0393C34.3941 19.2472 34.3941 19.4049 34.3941 19.5614C34.3941 26.6073 34.3978 33.6545 34.3843 40.7004C34.3831 41.0843 34.4919 41.2812 34.8441 41.4304C35.3821 41.6566 35.8896 41.955 36.4191 42.202C37.1797 42.5578 37.538 43.135 37.5245 43.9824C37.5037 45.3654 37.4988 46.7497 37.5257 48.1315C37.5441 49.0339 37.2029 49.6673 36.3469 49.995C24.6617 49.9999 12.9739 49.9999 1.2874 49.9999ZM34.3941 46.8658C34.3941 46.1749 34.4088 45.5269 34.3806 44.8812C34.3758 44.765 34.2205 44.6183 34.0982 44.5523C33.598 44.282 33.0979 44.0044 32.5733 43.7892C31.6207 43.3991 31.2563 42.7241 31.2576 41.6945C31.2771 29.9774 31.271 18.2604 31.2698 6.54449C31.2698 4.35686 30.0372 3.12792 27.8496 3.12792C21.8443 3.1267 15.8378 3.1267 9.83248 3.12792C7.54091 3.12792 6.26795 4.4021 6.26795 6.69367C6.26795 18.4108 6.26429 30.1278 6.27529 41.8437C6.27651 42.7278 5.94513 43.3343 5.13562 43.7C4.55845 43.9604 3.99717 44.2563 3.4359 44.551C3.32095 44.611 3.16198 44.7345 3.15832 44.8347C3.13386 45.5097 3.14609 46.1847 3.14609 46.8658C13.5865 46.8658 23.9536 46.8658 34.3941 46.8658Z" fill="white"/>
<path d="M18.7811 23.4389C16.2584 23.4389 13.737 23.4401 11.2143 23.4377C9.98901 23.4364 9.3935 22.8373 9.3935 21.6059C9.39227 17.6195 9.39227 13.6331 9.3935 9.64667C9.3935 8.41407 9.98901 7.81488 11.2131 7.81488C16.2572 7.81366 21.3026 7.81366 26.3467 7.81488C27.539 7.81488 28.143 8.42263 28.143 9.62221C28.1455 13.6245 28.1455 17.6268 28.143 21.6303C28.143 22.8299 27.539 23.4364 26.3479 23.4377C23.8265 23.4401 21.3038 23.4389 18.7811 23.4389ZM12.5533 10.9612C12.5533 14.0977 12.5533 17.1939 12.5533 20.2754C16.7268 20.2754 20.8648 20.2754 24.993 20.2754C24.993 17.1511 24.993 14.0672 24.993 10.9612C20.8403 10.9612 16.7133 10.9612 12.5533 10.9612Z" fill="white"/>
</g>
<defs>
<clipPath id="clip0_127_631">
<rect width="46.9026" height="50" fill="white"/>
</clipPath>
</defs>
</svg>
