<svg width="276" height="439" viewBox="0 0 276 439" fill="none" xmlns="http://www.w3.org/2000/svg">
<g clip-path="url(#clip0_1331_128)">
<path d="M275.295 28.2057C275.021 29.5748 274.812 30.9628 274.457 32.3131C271.453 43.7385 261.35 51.5965 249.518 51.6341C235.768 51.6787 222.018 51.6599 208.268 51.6176C207.136 51.6129 206.431 51.984 205.694 52.7989C199.052 60.1497 190.83 65.0932 181.605 68.4915C180.253 68.9893 178.919 69.5412 177.582 70.0861C176.27 70.6215 175.154 70.3749 174.461 69.3651C173.764 68.3482 173.895 67.2468 174.919 66.1994C178.494 62.5404 181.161 58.3226 182.808 53.4706C182.993 52.9211 183.137 52.3574 183.313 51.7539C181.455 51.6411 179.663 51.6529 177.907 51.4039C168.341 50.0442 161.549 44.901 157.449 36.1858C156.81 34.8307 157.327 33.4733 158.553 32.9214C159.816 32.3531 161.089 32.8909 161.773 34.3869C163.898 39.0368 167.216 42.5314 171.8 44.8C174.68 46.2255 177.74 46.923 180.95 46.9536C182.592 46.9677 184.231 46.9465 185.873 46.9606C187.902 46.9771 188.881 48.1701 188.503 50.1592C187.737 54.1775 186.382 57.9797 184.355 61.5376C184.222 61.7748 184.095 62.0167 183.825 62.5146C184.475 62.2469 184.919 62.0825 185.346 61.8852C192.333 58.6772 198.373 54.1963 203.378 48.3556C204.245 47.3458 205.198 46.9348 206.523 46.9371C220.78 46.97 235.04 46.9724 249.298 46.9512C259.77 46.9348 268.309 39.8353 270.284 29.5631C272.517 17.9498 264.056 6.38829 252.278 4.97685C251.158 4.84299 250.021 4.77488 248.891 4.77488C226.548 4.76314 204.202 4.74905 181.859 4.77488C172.622 4.78662 165.903 8.93169 161.824 17.2617C161.07 18.8023 159.812 19.3871 158.527 18.7883C157.252 18.1941 156.827 16.8249 157.571 15.2961C162.198 5.77533 169.83 0.305725 180.386 0.176558C203.665 -0.109956 226.95 0.0145133 250.23 0.117846C262.7 0.171861 273.548 10.1036 275.07 22.5106C275.112 22.8511 275.218 23.1823 275.295 23.5181C275.295 25.0822 275.295 26.6439 275.295 28.2057Z" fill="white"/>
<path d="M157.628 28.1985C156.336 28.1961 155.263 27.0923 155.296 25.8007C155.329 24.5513 156.385 23.525 157.632 23.5273C158.926 23.5297 160 24.6335 159.964 25.9228C159.932 27.1698 158.875 28.1985 157.628 28.1985Z" fill="white"/>
<path d="M215.205 31H213.018V24.7598H205.781V31H203.594V16.9082H205.781V22.8652H213.018V16.9082H215.205V31ZM219.98 18.7441V23.8125H223.047C223.893 23.8125 224.548 23.5911 225.01 23.1484C225.472 22.7057 225.703 22.0807 225.703 21.2734C225.703 20.4857 225.462 19.8672 224.98 19.418C224.499 18.9688 223.835 18.7441 222.988 18.7441H219.98ZM219.98 25.5801V31H217.793V16.9082H223.252C224.697 16.9082 225.843 17.2988 226.689 18.0801C227.536 18.8548 227.959 19.8997 227.959 21.2148C227.959 22.1719 227.715 23.0117 227.227 23.7344C226.745 24.4505 226.077 24.9518 225.225 25.2383L228.379 31H225.859L222.988 25.5801H219.98Z" fill="white"/>
</g>
<path fill-rule="evenodd" clip-rule="evenodd" d="M49.8926 166.32C46.4837 170.306 46.7849 171.415 48.6011 175.44C52.6144 184.778 58.3683 194.272 64.9004 202.932C64.469 183.504 64.0982 163.969 63.4604 144.363C59.5768 151.939 55.4407 158.782 49.8931 166.32M49.25 406.443C47.1038 406.236 32.0011 406.794 36.0428 402.391C34.7953 399.684 38.2808 397.399 40.4286 395.339C42.4382 393.422 44.4184 391.292 46.4821 388.828C48.4039 386.544 50.57 383.843 51.9703 380.692C52.2805 380.198 52.5951 379.853 52.907 379.663L53.0871 379.555L53.1991 379.377C54.3813 377.491 55.3571 375.542 56.4311 373.621C53.8041 372.672 51.4177 371.719 48.4424 370.403C52.6407 345.685 58.9326 321.604 63.0006 296.815C65.477 275.243 66.806 253.468 72.4726 232.223L73.1972 232.278L73.6012 230.886C73.0064 230.871 71.8006 230.831 71.2036 230.807L71.3435 231.519C68.642 231.207 65.9952 230.437 63.3693 229.785C62.0291 229.601 60.6856 228.643 61.1679 227.046C61.3227 224.729 61.8024 222.469 62.028 220.153C61.1424 219.543 60.2814 218.899 59.4471 218.221C57.214 219.274 54.5152 222.673 52.0732 221.808C46.3669 214.15 41.5781 204.945 37.2443 197.591C26.7772 180.584 23.4546 169.953 34.2503 152.219C43.584 137.364 53.6519 113.752 72.3628 110.023C74.4635 109.631 76.665 109.615 78.6837 108.657C78.7876 107.286 79.473 106.497 79.9752 106.486C81.1944 106.219 82.533 105.788 83.7238 105.777C84.1434 105.602 84.6557 105.746 85.0592 105.825C86.2591 103.417 86.1519 100.342 87.4665 98.0853C87.5142 96.3747 88.0356 94.4851 93.3083 94.1411C96.8972 93.842 101.98 93.5532 104.849 95.1212C106.856 96.7369 106.877 100.356 106.625 102.907C106.349 104.78 106.472 106.958 107.939 109.158C112.121 107.868 115.037 110.596 117.654 115.685C128.612 117.177 130.975 118.023 135.226 128.875C137.254 133.581 139.365 138.609 140.945 143.761C143.062 150.059 143.248 156.651 145.305 162.994C150.894 176.973 156.577 185.993 158.367 202.267C159.241 209.453 158.739 213.015 157.909 214.095C155.546 213.412 152.5 212.89 150.019 212.599L152.673 214.617C150.424 224.813 156.902 253.89 139.338 251.656C139.182 251.276 139.469 249.189 139.544 248.323C139.064 248.357 138.176 248.388 137.703 248.329C136.866 250.745 135.608 252.916 134.814 255.374C134.422 256.872 133.926 258.38 133.441 259.836C122.38 297.081 120.189 332.936 125.125 370.328L124.902 370.409L124.812 370.569L124.676 370.62C124.328 371.085 123.834 371.105 123.046 371.107C118.208 371.277 113.957 371.495 110.015 371.605C110.433 373.698 110.166 375.901 109.981 378.03C112.275 377.869 114.38 378.8 116.477 379.918C120.485 381.885 124.476 383.951 128.356 386.209C132.208 388.673 138.437 390.781 135.345 395.211L136.239 395.562C136.26 395.57 136.28 395.579 136.3 395.591C136.405 395.968 135.194 397.525 134.835 397.508C126.364 397.903 119.139 395.925 108.303 393.853C105.823 392.954 93.3276 391.423 93.2751 389.061C93.3148 388.325 94.0757 388.375 94.6068 388.283C93.0152 380.245 98.3961 379.596 99.1668 372.303C98.1014 372.507 96.9492 372.68 95.8581 372.381C94.9005 356.818 96.439 340.886 94.7376 325.17L93.0082 324.979C87.1948 342.08 81.167 359.577 76.5374 377.34C76.4495 377.726 76.0165 377.462 75.8188 377.321C72.7931 377.249 69.7663 376.926 66.7996 376.417C66.7283 378.164 66.6533 379.943 66.5794 381.689L67.037 381.934C67.3318 382.345 67.2074 384.266 67.1544 385.093C67.1003 385.938 67.0558 386.55 67.1308 387.124C68.0847 389.005 64.8222 393.081 63.096 395.348C59.3362 400.213 56.2215 407.419 49.2495 406.443" fill="white"/>
<path fill-rule="evenodd" clip-rule="evenodd" d="M86.579 98.1385C87.6031 97.4456 86.1449 103.461 86.1422 104.04L86.1165 104.166C85.8609 105.391 85.4118 106.817 84.377 107.602C84.8505 111.503 85.4515 115.387 86.1792 119.249L86.609 119.305C92.9878 120.149 99.4089 121.31 105.894 120.705C109.389 120.732 111.702 118.345 113.111 115.383C113.016 115.034 112.919 114.685 112.822 114.337C108.384 111.623 105.024 106.115 107.023 100.917C107.109 100.694 107.373 100.679 107.51 100.795C107.532 100.797 107.552 100.815 107.55 100.839L107.48 101.939C107.344 104.126 107.298 106.386 108.483 108.353C113.312 107.254 116.314 111.274 118.333 115.079L119.783 115.293C125.331 116.116 130.682 117.091 133.422 122.767L133.797 123.564C137.625 131.721 141.193 140.108 143.281 148.891C144.333 153.564 144.713 158.379 146.255 162.936C149.457 171.398 153.97 179.351 156.417 188.112C157.935 191.274 162.208 215.069 157.993 215.25C156.477 214.793 154.934 214.432 153.373 214.169C153.613 214.352 153.701 214.663 153.655 214.981C153.111 218.795 153.069 222.659 153.072 226.505C153.36 235.82 153.102 255.859 139.055 252.643C138.029 252.266 138.695 250.623 138.654 249.476C138.573 249.48 138.492 249.479 138.411 249.474C137.604 251.647 136.474 253.652 135.765 255.861C135.164 257.759 134.744 259.8 133.907 261.617C125.038 293.116 121.376 326.245 124.844 358.847C125.038 360.799 125.257 362.749 125.502 364.695C125.467 365.941 126.922 370.959 125.619 371.348C125.568 371.446 125.394 371.559 125.289 371.594C124.502 372.442 123.194 372.128 122.155 372.24C118.483 372.404 114.812 372.554 111.138 372.676C111.358 374.233 111.18 375.813 111.05 377.367C113.729 377.389 116.191 379.017 118.56 380.123C122.08 381.857 125.541 383.709 128.937 385.675C132.072 387.866 139.077 389.982 136.667 394.951C138.464 395.679 135.967 398.724 134.601 398.759C125.714 398.714 116.882 396.7 108.197 394.933C103.262 393.631 97.8768 393.136 93.3115 390.89C92.0151 390.304 92.2868 387.971 93.7123 387.754C92.6539 379.974 96.9491 380.081 98.1592 373.6C97.4561 373.715 96.6791 373.65 95.9738 373.507C94.3409 375.015 94.9406 363.144 94.7187 361.984C94.6748 349.811 95.2525 337.612 93.954 325.481L91.7472 331.97C86.6026 347.114 81.5351 362.297 77.502 377.78C77.2603 378.715 76.2774 378.827 75.6504 378.419C73.0035 378.342 70.3645 378.092 67.7502 377.671C67.6999 378.909 67.6473 380.147 67.5954 381.385C68.7224 381.992 67.9592 385.814 68.1029 387.106C69.3301 389.899 64.3623 395.338 62.7525 397.631C59.8543 401.675 56.9749 407.334 51.37 407.522L51.199 407.527C47.0024 407.63 42.8044 407.382 38.6489 406.787L38.1446 406.705C36.9629 406.507 35.6548 406.219 34.9747 405.169C34.3917 404.269 34.463 403.109 35.1704 402.422C34.2363 399.035 37.8734 396.984 39.905 394.921C43.7002 391.264 47.1498 387.242 50.1326 382.898L50.3041 382.493C50.8566 381.19 51.5174 379.744 52.5468 379.12C53.5281 377.563 54.3678 375.924 55.2536 374.315C52.833 373.427 50.4493 372.435 48.0924 371.391C47.623 371.182 47.474 370.573 47.556 370.12L47.5619 370.089C52.1637 346.218 57.6807 322.518 61.9717 298.593C64.7122 276.542 65.836 254.212 71.598 232.647C68.8027 232.357 66.0204 231.554 63.2771 230.869C61.0778 230.401 59.9658 229.285 60.3993 226.958C60.5483 224.89 60.9631 222.855 61.1871 220.795C60.603 220.386 60.0316 219.959 59.4738 219.514C58.4431 220.282 57.3794 221.006 56.2858 221.682C53.6685 223.565 51.6476 223.858 50.0308 220.771C45.347 213.38 40.8305 205.881 36.568 198.239C32.6141 190.908 27.7139 183.593 26.7101 175.153C25.2525 159.963 43.0925 135.656 52.0302 123.311C56.9583 117.365 62.9609 111.245 70.7668 109.517C73.1682 109.161 75.6992 109.113 77.988 108.243C78.174 107.131 78.6965 106.108 79.8771 105.836C81.1182 105.561 82.4494 105.137 83.7002 105.107C83.9826 105.027 84.3164 104.977 84.6149 105.032C85.4708 102.811 85.5967 100.309 86.579 98.1385ZM38.7598 404.177C38.9742 404.282 39.1949 404.374 39.4216 404.455C39.7003 404.493 39.9779 404.529 40.2549 404.56C39.7528 404.448 39.2542 404.32 38.7598 404.177ZM66.5348 382.59C62.4347 384.077 61.3082 377.096 53.244 379.921C50.093 385.766 46.0126 391.076 41.3492 395.796C39.6917 397.855 34.7856 400.193 37.4292 403.212L37.8343 403.285C42.4259 404.12 47.086 404.783 51.765 404.405C55.3008 403.431 57.9519 400.6 60.0949 397.745C61.6453 394.999 63.4588 392.415 65.3103 389.868C66.328 388.601 66.4314 386.988 66.4266 385.429C66.4609 384.482 66.4968 383.536 66.5348 382.59ZM112.593 379.163C110.852 378.525 109.067 379.125 107.483 379.908C104.778 381.117 98.9196 382.566 96.417 380.638C95.1898 382.666 94.7788 384.92 95.1153 387.259L95.118 387.368C95.1442 388.329 95.2654 389.108 96.4283 389.175L99.6903 389.995C110.694 392.755 121.806 395.424 133.133 396.192C136.156 394.305 136.241 391.826 133.028 390.1L132.206 389.597C125.897 385.74 119.441 381.95 112.593 379.163ZM136.532 395.202C136.502 395.254 136.472 395.306 136.442 395.357C136.489 395.38 136.532 395.413 136.573 395.449C136.573 395.363 136.561 395.28 136.532 395.202ZM55.8646 374.536C55.9069 375.393 55.4852 376.361 55.1888 377.13C55.0146 377.585 54.8351 378.234 54.5575 378.755C61.4513 376.723 63.5499 382.678 66.0354 381.44L66.1109 381.4V381.398C65.6034 380.24 66.157 378.61 66.4978 377.455C62.8779 376.8 59.3232 375.783 55.8646 374.536ZM110.343 372.703L108.355 372.765C105.264 372.858 102.171 372.94 99.0772 372.935C99.4009 375.157 98.7674 378.822 97.3286 380.548C97.3259 380.55 97.3232 380.55 97.3221 380.551C101.395 381.167 105.252 379.303 108.879 377.735C109.032 376.032 109.701 374.295 110.343 372.703ZM97.0429 379.471C96.9197 379.703 96.7948 379.934 96.6699 380.165C96.7246 380.225 96.7857 380.279 96.8511 380.327C96.813 380.038 96.9159 379.753 97.0429 379.471ZM102.768 190.508C105.039 201.971 106.831 213.577 107.453 225.266L107.458 225.382C107.519 226.565 107.695 227.884 106.904 228.871C106.084 229.896 104.804 230.026 103.592 230.212C93.4187 231.759 83.1026 232.281 72.8188 231.97C69.0225 250.748 66.701 269.759 65.2846 288.853C62.208 316.136 55.2236 342.806 49.9927 369.723C58.1052 373.269 66.5187 375.786 75.4098 376.135C87.9948 329.657 111.556 280.607 112.811 234.113C112.878 234.038 113.04 234.055 113.058 234.169C113.472 236.712 113.296 239.367 113.204 241.932C112.856 249.823 111.977 257.71 110.682 265.498C107.392 284.838 101.316 303.551 95.0917 322.114C94.8833 322.947 95.1989 323.874 95.2091 324.725C96.5092 338.922 96.6426 353.19 97.0611 367.431C96.9727 369.005 97.4684 370.788 96.9223 372.266C101.623 371.636 106.348 371.297 111.072 370.903L111.108 370.88C111.303 370.756 111.615 370.625 111.795 370.846C115.786 370.533 119.782 370.245 123.776 369.977C118.112 329.452 122.027 287.208 137.351 249.137C136.38 248.249 136.803 246.269 136.581 245.032C136.376 239.983 136.387 234.819 137.38 229.848L137.128 229.863C134.077 230.037 120.652 230.575 120.284 228.298C119.774 224.44 121.007 220.616 121.259 216.787C121.711 208.134 121.602 199.447 121.543 190.783C118.886 191.139 116.338 190.651 113.711 190.551C110.06 190.519 106.415 190.612 102.768 190.508ZM55.4203 374.377C55.35 374.677 55.2719 374.976 55.1861 375.273C55.304 375.006 55.4369 374.749 55.595 374.524L55.6427 374.457L55.4203 374.377ZM98.8628 372.937L98.6453 372.939L98.6442 373.064C98.6951 373.149 98.7037 373.253 98.6404 373.337C98.6335 373.722 98.6156 374.106 98.5868 374.49C98.671 373.972 98.7551 373.454 98.8628 372.937ZM96.0976 372.81L96.1089 373.003C96.3875 372.993 96.6689 373.004 96.9465 372.99C97.0922 372.983 97.2428 372.957 97.3939 372.93C96.9596 372.92 96.5265 372.879 96.0976 372.81ZM145.63 213.623C145.492 213.784 145.342 213.882 145.189 213.931C145.191 217.599 144.45 221.205 142.42 224.38C141.575 225.499 141.099 226.773 140.691 228.1C138.544 234.176 138.145 240.702 138.928 247.064C141.037 243.972 141.875 240.283 142.465 236.644C142.496 236.461 142.799 236.464 142.832 236.644C143.545 240.538 142.32 244.363 140.855 247.963C139.939 248.616 140.157 250.329 140.048 251.335C155.599 253.6 150.191 223.765 152.183 214.576C152.22 214.323 152.435 214.139 152.679 214.061C150.346 213.705 147.983 213.68 145.63 213.623ZM72.3954 231.952C72.4147 232.05 72.4313 232.148 72.4442 232.246L72.5278 231.957C72.4849 231.956 72.4404 231.955 72.3954 231.952ZM82.9054 105.75L82.6332 105.822C79.7597 106.563 78.8299 106.461 78.667 109.928C77.9607 114.633 75.3535 118.738 74.1815 123.288C73.7121 124.894 74.2083 127.856 76.4312 127.42C77.1515 127.2 77.7131 128.17 77.1681 128.684C75.5583 130.206 73.9956 131.774 72.4233 133.333C78.7351 154.62 86.9343 175.355 96.9218 195.192C97.3178 195.979 96.1303 196.672 95.7369 195.884C85.8078 175.983 77.5502 155.256 71.1409 133.963L70.9469 133.317C70.6639 132.534 74.2834 129.724 74.942 128.807C68.3333 125.625 77.5598 114.482 77.8106 109.115C75.9195 109.946 73.7753 109.648 71.777 109.983C67.9437 110.654 64.5793 112.867 61.5885 115.256C49.4408 125.975 41.6778 140.815 33.9126 154.802C28.6238 163.928 26.0746 175.085 31.3816 184.793C37.539 197.239 44.6825 209.236 52.2349 220.883C53.064 221.961 54.3405 220.722 55.214 220.27C60.237 217.253 64.5927 213.15 67.9421 208.352C59.8216 198.395 52.7478 187.513 47.7452 175.657L47.6755 175.52C46.5534 173.265 45.6659 170.538 47.5383 168.415C54.1872 159.905 60.1008 150.871 65.6656 141.626C65.7229 141.533 65.851 141.614 65.8092 141.711C65.2364 143.006 64.636 144.288 64.0086 145.558C65.276 164.356 65.0616 183.521 65.6093 202.438C67.0879 204.392 68.6066 206.315 70.1645 208.206C75.2137 204.729 81.153 202.461 87.2532 201.759L87.6476 201.719C90.2386 201.453 94.5178 200.95 94.8575 204.312C94.4374 208.447 85.8855 206.122 83.1509 208.467C87.6336 210.272 92.7697 210.781 96.8848 213.502C98.2048 214.272 100.793 216.723 98.2642 217.662C97.1614 217.756 96.022 217.328 94.9197 217.234C96.1603 217.652 97.3012 218.359 98.0279 219.468C98.5509 220.229 98.9325 221.808 97.6828 222.133C94.8334 222.213 91.9964 221.285 89.1899 220.823L89.4391 220.924C91.4851 221.761 94.6652 223.265 91.9096 225.481C89.1513 226.908 85.8121 224.481 83.0646 223.833C75.6644 222.112 70.1896 226.828 62.6035 221.722C62.3881 223.429 62.0649 225.123 61.9352 226.839L61.9186 226.936C61.656 228.501 61.8811 229.067 63.5708 229.366C65.6083 229.981 67.7422 230.174 69.859 230.288C80.0607 230.827 90.2903 230.443 100.423 229.14C101.879 228.75 105.299 229.118 105.908 227.517C104.767 186.305 87.5827 147.527 82.8508 106.851C82.7731 106.459 82.7682 106.061 82.9054 105.75ZM111.63 109.273C110.817 109.306 110.06 109.482 109.252 109.564C109.699 110.515 112.062 111.861 111.847 112.334C112.018 112.466 112.191 112.593 112.366 112.716C112.122 111.857 111.875 111 111.627 110.142C120.605 132.004 121.838 157.87 123.031 181.72C123.425 193.745 123.638 205.808 123.057 217.826C122.733 221.018 121.878 224.244 122.111 227.467C127.38 228.225 132.726 228.29 138.016 227.729C138.173 227.319 138.349 226.915 138.55 226.519C146.47 216.866 142.27 204.768 138.457 194.312C136.151 194.409 133.831 194.263 131.523 194.291C132.236 196.498 132.42 198.833 132.799 201.115C133.061 202.74 133.384 204.354 133.766 205.955L133.868 206.382C134.011 206.972 134.2 207.61 133.993 208.196C133.789 208.773 133.087 209.007 132.621 208.557C131.781 207.6 131.871 206.174 131.6 204.987L131.55 204.614C131.088 201.206 130.479 197.671 131.324 194.29C130.495 194.112 128.228 194.766 128.109 193.652C128.144 191.811 126.808 187.823 128.295 186.61C129.18 185.936 130.701 186.149 131.738 186.107C132.937 186.058 134.135 186.014 135.332 186.022C125.708 162.768 128.384 155.61 129.361 132.467L129.39 131.761C129.387 131.608 129.633 131.57 129.66 131.724C131.131 141.203 129.169 150.801 130.099 160.311C131.749 178.378 143.201 193.892 145.115 211.873C149.244 211.394 153.421 211.981 157.424 213.017C157.507 212.287 157.572 211.555 157.618 210.821C158.378 197.4 153.667 184.364 148.171 172.327C144.878 165.938 142.842 159.118 141.99 151.988C140.335 142.7 136.622 133.951 132.921 125.324C130.582 118.873 125.524 117.352 119.253 116.603C121.367 120.109 123.472 123.621 125.569 127.137C126.037 128.2 124.602 128.96 123.976 129.614C131.68 133.815 127.181 146.786 127.341 154.055C126.769 160.734 126.553 167.451 125.545 174.084C125.471 174.544 124.766 174.409 124.76 173.978C124.852 164.04 126.038 154.142 126.558 144.22L126.621 143.497C127.026 138.799 127.423 132.022 121.774 130.733C121.011 130.609 120.953 129.476 121.565 129.135C122.366 128.69 123.096 128.128 123.733 127.469C121.571 123.849 119.422 120.221 117.284 116.587L117.184 116.418C115.667 113.845 114.258 110.851 111.63 109.273ZM93.2959 204.06C92.6727 202.225 86.624 203.42 85.0093 203.619C79.0555 204.744 73.0637 207.377 68.5289 211.435C68.2492 211.685 67.9185 211.681 67.6575 211.545C65.6265 214.139 63.2809 216.49 60.7085 218.556C61.1813 218.929 61.6655 219.288 62.1603 219.631C62.3988 219.656 62.6137 219.779 62.7107 220C69.7883 225.127 74.9945 221.128 82.347 222.052C85.0919 222.605 87.6197 224.351 90.4487 224.424C92.5248 223.952 90.6968 223.085 89.7274 222.749C87.5318 221.701 85.2934 220.746 83.0506 219.804L81.2559 219.051C80.3744 218.682 80.6772 217.349 81.6621 217.582C83.3867 217.988 85.1165 218.375 86.8469 218.755C90.1759 219.433 93.5837 220.304 96.9475 220.634C96.1994 218.556 88.2665 216.312 85.96 215.486C85.0887 215.075 82.6042 215.153 82.8877 213.803C83.1171 212.547 85.7607 213.986 86.6422 214.088C90.2402 215.001 93.9133 215.554 97.5799 216.11C93.6416 212.159 87.5366 211.818 82.5072 209.969L82.3974 209.944C81.5003 209.737 80.2415 209.347 80.9762 208.32C83.5608 204.511 93.7284 206.439 93.2959 204.06ZM85.8545 182.85C87.6888 181.345 88.6717 184.436 88.5554 185.873C88.6417 187.066 88.7349 188.258 88.8126 189.451C88.699 190.384 89.6926 193.783 88.363 193.814C82.5512 193.519 76.7496 193.594 70.9361 193.244C70.9286 194.416 70.8713 195.587 70.9313 196.761C70.8992 198.228 71.4093 199.694 71.1119 201.145C70.9297 201.812 70.0224 201.902 69.6682 201.333C68.6061 198.835 69.3365 195.613 70.0884 193.088C67.2417 192.561 66.8489 189.886 67.5991 187.499L67.5911 187.37C67.5493 186.633 67.5525 185.843 67.8815 185.248C68.7609 184.213 70.5841 184.886 71.7952 184.808C75.5074 184.425 79.2881 184.319 82.9569 183.638C83.9065 183.392 84.8748 182.897 85.8545 182.85ZM62.7782 147.976C59.8881 153.492 56.5628 158.74 53.0227 163.85C52.2626 164.941 51.4864 166.02 50.6942 167.088L50.5474 167.275C48.9665 169.283 47.3234 170.949 48.8181 173.614C52.7333 183.121 57.9755 192.05 64.0493 200.336C63.6646 182.882 63.3253 165.424 62.7782 147.976ZM135.439 186.301C128.177 187.823 128.041 184.974 129.254 193.037C132.166 193.057 135.076 192.991 137.989 193.038C137.157 190.786 136.294 188.544 135.439 186.301ZM86.6969 184.024C82.9043 185.341 78.8776 185.153 74.9168 185.316C74.9248 186.167 70.8724 185.377 70.0948 185.494L69.7958 185.468C69.1521 185.416 68.344 185.408 68.337 186.196C68.5434 187.575 67.7668 189.085 68.2481 190.44C68.8971 192.266 71.6741 192.078 73.2062 192.113C75.7324 192.17 78.2592 192.231 80.7854 192.297C83.0544 192.357 85.3314 192.47 87.6031 192.486C87.3984 190.871 87.3421 189.215 87.2189 187.601C87.0634 186.44 87.2875 185.064 86.6969 184.024ZM102.644 189.893L102.656 189.955C102.701 189.943 102.751 189.936 102.794 189.924C102.744 189.915 102.694 189.904 102.644 189.893Z" fill="#292929"/>
<path fill-rule="evenodd" clip-rule="evenodd" d="M122.83 78.1628C122.347 70.2626 119.778 61.3051 112.218 57.4263C95.5511 50.7506 73.6371 67.5617 72.4769 84.7356C72.0723 90.6139 75.3429 97.0377 81.3198 98.6722C82.6488 100.429 84.6579 101.502 86.6418 102.434C110.266 114.665 125.527 104.722 122.83 78.1628Z" fill="white"/>
<path fill-rule="evenodd" clip-rule="evenodd" d="M128.212 73.2482C127.377 70.9343 126.495 68.6375 125.567 66.3592C124.664 64.1417 123.847 61.8759 122.726 59.7634C116.023 47.1462 103.836 47.1462 97.5362 48.7946C94.2689 47.3901 88.15 47.7861 84.7481 49.0535C79.2407 51.106 72.5275 59.1787 70.2323 62.8057C65.1643 70.8136 62.0014 81.4721 65.3679 90.7259C65.8079 91.9355 66.369 93.0555 67.0008 94.1348C66.6026 94.6733 66.145 95.183 65.6375 95.6841C64.1295 97.1728 62.6215 98.6127 61.3187 100.292C60.0245 101.96 58.9511 103.735 58.1526 105.692C56.6462 109.382 56.5733 113.56 58.5652 117.081C60.2978 120.145 63.3669 122.426 66.825 122.643C67.0029 122.668 67.1803 122.691 67.3593 122.709C67.8175 123.463 68.3738 124.152 69.0136 124.76C70.967 126.614 75.6239 127.566 78.2798 127.627C78.4165 127.736 78.5537 127.845 78.6914 127.953C80.3163 129.23 82.022 130.517 83.8875 131.426C85.1517 132.041 86.8086 132.556 88.127 132.111C88.725 132.51 89.7062 132.426 90.2995 132.1C91.2743 131.564 92.0674 130.599 92.5497 129.611C93.7191 127.211 93.4377 124.586 93.1376 122.023C92.8069 119.192 92.4886 116.359 92.1655 113.528C91.912 111.314 91.6473 109.064 90.9726 106.931C90.6242 105.826 90.1671 104.764 89.5766 103.766C89.5928 103.684 89.5889 103.599 89.5653 103.519C89.3718 102.892 88.9721 102.563 88.4989 102.136C88.4372 102.081 88.3765 102.025 88.3167 101.969C88.086 101.702 87.8312 101.457 87.5557 101.237C87.4512 101.131 87.3483 101.025 87.2449 100.918C86.3885 100.023 85.5788 99.0816 84.8601 98.0731C84.1624 97.0951 83.5327 96.0742 82.933 95.034C82.3237 93.9756 81.9202 92.8084 81.3114 91.7581C81.2983 91.7368 81.2807 91.7187 81.2597 91.7051C81.2387 91.6915 81.215 91.6828 81.1902 91.6796C81.1654 91.6765 81.1403 91.6789 81.1165 91.6867C81.0928 91.6945 81.0711 91.7075 81.0531 91.7248C80.865 91.9194 80.7439 92.1353 80.7669 92.3626L80.6726 92.3765C80.6373 92.0335 80.32 91.7543 79.8902 91.8293C79.2461 91.9408 78.7166 91.9832 78.1593 91.7693C78.2573 91.1204 78.3474 90.4703 78.4369 89.8187C78.5998 88.6193 78.7509 87.4168 78.8806 86.2142C79.2006 86.2912 79.5127 86.3983 79.8125 86.5341C80.2506 86.7277 80.6549 86.9901 81.0102 87.3112C81.3564 87.629 81.5954 88.0572 82.0183 88.278C82.5043 88.5309 83.0911 88.1129 82.9486 87.5641C82.6592 86.4554 81.0242 85.8203 80.0124 85.6108C79.6645 85.5392 79.3096 85.5072 78.9545 85.5154C79.0742 84.3786 79.1702 83.2394 79.2423 82.0985C80.0347 81.8589 80.8693 81.7918 81.6898 81.9018C81.9593 82.1167 82.2294 82.3284 82.4904 82.5433C83.3945 83.2862 84.2904 84.039 85.1779 84.8016C85.6618 85.2169 86.2652 84.8053 86.1838 84.2175C85.5193 79.3987 88.4769 75.5654 91.9399 72.5954C95.7731 69.3072 102.742 68.9246 107.301 63.228C109.401 63.6551 114.089 64.9214 116.023 67.9974C118.732 72.3087 118.378 76.171 118.584 81.061C118.79 85.9548 119.315 91.0593 118.201 95.8845C117.174 100.334 114.393 104.136 110.078 105.883C109.972 105.926 109.863 105.968 109.755 106.009C107.524 106.848 105.09 107.086 102.742 106.644C100.145 106.154 97.9762 104.967 95.8155 103.508C95.6906 103.426 95.5084 103.596 95.6027 103.72C98.451 107.487 104.046 108.746 108.484 107.751C108.691 107.705 108.897 107.654 109.103 107.598C108.109 110.447 108.309 113.574 109.603 116.348C110.38 118.017 111.566 119.461 113.011 120.6C114.603 121.855 116.578 122.869 117.683 124.631C118.695 126.245 118.394 128.058 116.662 128.991C116.226 129.227 116.057 129.99 116.49 130.326C116.656 130.453 116.821 130.582 116.99 130.709C117.96 131.44 120.624 132.811 121.056 132.862C124.886 133.315 127.462 130.508 129.113 127.198C131.051 123.311 130.548 118.574 128.412 114.873C126.699 111.904 123.325 108.977 124.666 105.219C125.145 103.876 126.123 102.732 127.074 101.698C128.158 100.521 129.324 99.4182 130.364 98.199C131.397 96.9884 132.314 95.6712 132.826 94.1525C133.573 91.9322 133.201 89.5314 132.64 87.3149C131.437 82.5572 129.876 77.8628 128.212 73.2482Z" fill="#292929"/>
<path fill-rule="evenodd" clip-rule="evenodd" d="M106.753 98.0875C105.891 97.7362 105.139 97.1588 104.576 96.416C104.382 96.1577 104.332 95.8855 104.373 95.6363C104.418 95.356 104.585 95.102 104.811 94.9316C105.038 94.7607 105.323 94.6765 105.597 94.7194C105.836 94.7569 106.074 94.8871 106.262 95.1578L106.302 95.2119C106.629 95.6592 107.06 96.0203 107.558 96.2644C108.041 96.5007 108.58 96.5955 109.114 96.5377C110.161 96.4193 110.882 95.8544 111.649 95.0876C111.744 94.9906 111.838 94.8909 111.934 94.7891C111.99 94.7031 112.074 94.6388 112.171 94.6069C112.278 94.5728 112.393 94.5745 112.498 94.6117C112.603 94.6475 112.693 94.7157 112.756 94.8062C112.814 94.8925 112.848 94.9991 112.837 95.1213C112.767 95.9166 112.35 96.6261 111.759 97.1829C111.102 97.8019 110.231 98.2295 109.411 98.3801C108.507 98.5452 107.587 98.4267 106.753 98.0875ZM109.837 85.823C110.798 86.406 112.262 87.7656 111.229 89.2109C110.012 90.4853 108.259 89.0239 107.396 88.3631C106.595 87.8513 105.695 89.1686 106.439 89.7666C112.678 94.3764 115.21 85.9757 110.323 85.1375C109.785 85.0454 109.585 85.6429 109.837 85.823ZM98.6559 80.4608C98.7625 79.1451 100.769 78.8467 100.969 80.1478C101.148 81.3139 100.938 82.3852 100.411 83.435C99.9088 84.4377 98.6446 83.9698 98.5493 83.0567C98.4212 81.8327 98.59 81.2786 98.6559 80.4608ZM113.936 79.8783C114.217 79.5122 114.621 79.2625 115.105 79.404C116.618 79.845 116.172 81.9881 115.64 83.0309C115.352 83.5974 114.419 83.741 113.997 83.2426C113.309 82.4291 112.98 80.8048 113.854 80.0037C113.878 79.9619 113.904 79.9201 113.936 79.8783ZM100.39 74.7047L100.629 74.6629C101.368 74.5354 102.287 74.4126 102.81 75.0059C103.087 75.3204 103.183 75.9051 102.81 76.2057C102.154 76.7357 101.43 76.5305 100.644 76.575C100.002 76.6116 99.3674 76.7196 98.7502 76.8971C97.3815 77.2872 96.2669 77.9999 95.0981 78.7823C94.9448 78.8852 94.7883 78.6891 94.8612 78.546C95.5359 77.2272 96.8435 76.1441 98.1532 75.4839C98.852 75.1313 99.6168 74.8387 100.39 74.7047ZM112.558 74.1141L112.741 74.1517C114.731 74.5664 117.316 75.396 118.259 77.3467C118.295 77.6227 118.257 77.6816 118.226 77.7202L118.216 77.7331C118.19 77.7663 118.17 77.8118 118.05 77.8493L117.949 77.8242C117.517 77.7111 117.175 77.5551 116.845 77.3938L116.486 77.2175C116.07 77.0139 115.65 76.8177 115.205 76.6725C114.256 76.3622 113.278 76.1468 112.286 76.0294C112.072 76.0042 111.864 75.9319 111.701 75.8076C111.537 75.6848 111.421 75.5087 111.373 75.3097C111.304 75.0295 111.323 74.8172 111.475 74.5638C111.588 74.3735 111.75 74.2422 111.937 74.1661C112.134 74.0885 112.35 74.0704 112.558 74.1141Z" fill="#292929"/>
<defs>
<clipPath id="clip0_1331_128">
<rect width="120" height="70.3628" fill="white" transform="translate(155.295)"/>
</clipPath>
</defs>
</svg>
