<svg width="51" height="50" viewBox="0 0 51 50" fill="none" xmlns="http://www.w3.org/2000/svg">
<path d="M31.2554 50.0001C30.7349 50.0001 30.2131 50.0001 29.6926 50.0001C29.6039 49.9688 29.5164 49.9257 29.4238 49.9101C27.6471 49.5957 26.2838 48.6669 25.3172 47.1471C25.2272 47.0062 25.1424 46.864 25.0354 46.6918C24.9219 46.8679 24.8345 47.0036 24.7484 47.1379C23.8926 48.4581 22.712 49.34 21.2001 49.7744C20.9079 49.8579 20.6104 49.9257 20.3156 50.0001C19.7951 50.0001 19.2733 50.0001 18.7528 50.0001C18.6967 49.9727 18.6432 49.9296 18.5832 49.9192C16.3968 49.5357 14.8522 48.3342 13.956 46.3017C13.9247 46.23 13.8817 46.1635 13.8451 46.0982C8.16522 48.102 2.78534 43.5753 4.57254 37.564C0.656346 36.7682 -0.971707 30.9513 2.45529 28.0435C1.41689 27.1969 0.705918 26.1272 0.317168 24.8514C0.185411 24.4209 0.103225 23.9747 -0.00244141 23.5364C-0.00244141 23.0159 -0.00244141 22.4941 -0.00244141 21.9736C0.0275628 21.8653 0.0680032 21.7596 0.0875711 21.6501C0.486757 19.341 1.77302 17.7169 3.88636 16.732C4.08856 16.638 4.29337 16.552 4.5021 16.4606C3.87462 14.3956 3.92158 12.4101 4.9639 10.5198C6.03753 8.57345 7.7869 7.67854 9.91459 7.46851C9.93807 7.39676 9.95373 7.36676 9.95764 7.33545C10.3059 3.83409 12.8354 1.99862 16.2311 2.80091C16.539 2.87396 16.659 2.76047 16.8129 2.53739C17.8292 1.06327 19.2133 0.157932 21.0161 0.020956C22.6246 -0.10167 23.9787 0.481455 25.0419 1.7038C26.1612 0.657566 26.5134 0.421446 27.2844 0.195763C29.4173 -0.429107 31.7824 0.48015 33.1535 2.4826C33.3622 2.78786 33.5305 2.857 33.8997 2.76829C36.6053 2.11473 38.956 3.38273 39.7844 5.93569C39.9422 6.42359 40.0036 6.94148 40.1157 7.47373C42.2565 7.68376 43.9915 8.60345 45.0586 10.5511C46.0931 12.4401 46.1231 14.4282 45.5035 16.4698C47.9377 17.3973 49.4927 19.071 49.901 21.6461C50.3054 24.1965 49.4901 26.3529 47.5516 28.0696C50.9668 31.044 49.3296 36.7539 45.4017 37.564C46.0618 40.2892 45.8087 42.8421 43.6054 44.8198C41.4255 46.7753 38.849 46.924 36.1513 46.0787C35.3842 47.9481 34.0901 49.1861 32.1842 49.7522C31.8776 49.8422 31.5659 49.9179 31.2554 50.0001ZM24.3114 39.6565C24.3114 39.4386 24.3114 39.3434 24.3114 39.2481C24.3114 27.5661 24.3127 15.8827 24.3088 4.20067C24.3088 3.08921 23.7504 2.31171 22.759 1.86687C20.93 1.04371 18.9719 1.95557 17.9909 3.60058C17.9348 3.69451 17.9179 3.81453 17.8983 3.92411C17.7809 4.60638 17.7887 5.2756 18.0314 5.94221C18.2049 6.41706 18.004 6.8319 17.5878 6.98845C17.1665 7.14629 16.7412 6.93105 16.5651 6.4275C16.4477 6.09224 16.3524 5.74262 16.3094 5.3904C16.175 4.28807 16.1868 4.28416 15.0649 4.16936C14.8718 4.14979 14.6735 4.14196 14.4817 4.16023C12.645 4.33112 11.45 5.80915 11.5283 7.80247C11.5674 8.80566 11.4174 8.96481 10.4299 9.00525C8.43134 9.08743 6.86591 9.87537 6.07667 11.8087C5.46484 13.3102 5.5392 14.83 6.1432 16.3237C6.52673 17.2721 6.39236 17.5682 5.41527 17.8447C2.64314 18.6327 1.15468 20.9313 1.67649 23.7634C1.99479 25.488 2.84143 26.8969 4.66125 27.3835C5.41657 27.5857 6.2306 27.583 7.02114 27.6313C7.57166 27.6639 7.91866 27.8987 7.94475 28.3553C7.97215 28.8367 7.63949 29.2098 7.07854 29.1863C6.19016 29.1498 5.30699 29.0246 4.41861 28.9606C4.21119 28.9463 3.9568 28.9659 3.79113 29.0728C2.41094 29.9625 1.83564 31.6167 2.32223 33.3217C2.70707 34.6706 3.45326 35.6894 4.93259 35.9842C5.25351 36.0481 5.47397 35.9934 5.67748 35.7011C6.21364 34.9289 6.9207 34.3314 7.74255 33.8722C8.28784 33.5682 8.72877 33.6335 8.98185 34.0509C9.23754 34.4736 9.07447 34.8897 8.54353 35.2172C7.07332 36.1238 6.11971 37.3514 5.89012 39.132C5.57573 41.5637 6.7772 43.7736 9.00664 44.6202C10.6125 45.2307 12.1988 45.0664 13.7564 44.4154C14.6083 44.0593 14.9449 44.2093 15.1927 45.0807C15.4484 45.9782 15.8919 46.7583 16.6081 47.3688C19.1559 49.5383 23.0147 48.3003 24.0335 44.9881C24.7275 42.7325 24.0009 40.8723 22.0102 39.9539C20.3847 39.2038 18.7632 39.2703 17.1847 40.1378C16.6564 40.4274 16.2337 40.357 15.9924 39.9526C15.7445 39.5378 15.9037 39.0877 16.4294 38.785C17.7574 38.0219 19.1833 37.7492 20.703 37.9488C22.0467 38.1276 23.213 38.6872 24.3114 39.6565ZM25.8925 41.0314C25.8925 42.0046 25.8442 42.9334 25.9042 43.8545C25.9929 45.2112 26.4573 46.4296 27.5127 47.3506C29.8126 49.3583 33.8879 48.6029 34.8441 45.0063C35.0463 44.2471 35.4155 44.1154 36.1539 44.3619C36.9197 44.6176 37.705 44.8694 38.5007 44.9633C40.9846 45.2594 43.2975 43.741 43.938 41.4672C44.3372 40.0478 44.1376 38.6663 43.6562 37.3031C43.3392 36.4056 43.6367 35.9921 44.5746 36.0181C45.3091 36.0377 45.9483 35.8016 46.4988 35.3202C48.1856 33.8422 48.6513 30.3578 45.8557 28.8511C45.5191 28.6697 45.2452 28.4532 45.2556 28.0409C45.266 27.6326 45.5452 27.4239 45.8831 27.2452C49.0622 25.5636 49.3544 20.7121 46.3736 18.6862C45.7683 18.2752 45.0364 18.0378 44.3398 17.7808C43.7189 17.5525 43.5088 17.2029 43.7476 16.5898C43.8297 16.3784 43.9289 16.1723 44.0032 15.9571C44.9869 13.1263 43.9119 9.32095 39.9188 9.0196C38.506 8.91263 38.5086 8.88001 38.4838 7.45938C38.4525 5.63304 37.1884 4.22285 35.4299 4.16675C34.8311 4.14718 34.2088 4.31808 33.6244 4.49288C32.8313 4.73031 32.5925 4.66508 32.2168 3.93846C31.6624 2.86744 30.8405 2.08994 29.6769 1.72076C27.9093 1.15851 26.1155 2.03515 25.9368 3.68538C25.7868 5.07992 25.9055 6.50186 25.9055 7.96423C26.8043 7.96423 27.6797 7.94858 28.555 7.97076C28.9581 7.98119 29.2125 7.90814 29.4277 7.4946C29.943 6.50186 31.1119 6.02701 32.1712 6.28791C33.2331 6.54882 34.0197 7.44764 34.0953 8.48866C34.1801 9.65751 33.5905 10.6346 32.5482 11.056C31.5098 11.4747 30.2105 11.2412 29.673 10.2928C29.2321 9.51532 28.6881 9.46705 27.9706 9.5088C27.4031 9.54141 26.8317 9.51271 26.2616 9.51793C26.139 9.51923 26.0177 9.54663 25.899 9.56228C25.899 12.1179 25.899 14.6343 25.899 17.2003C26.0829 17.2003 26.2408 17.2003 26.3986 17.2003C27.6679 17.2003 28.9412 17.1442 30.2065 17.2173C31.331 17.2812 32.222 16.715 33.1926 16.3811C32.9552 14.0277 33.9414 12.3566 35.8434 11.8269C37.6241 11.3312 39.4817 12.1479 40.2892 13.7837C41.0994 15.4222 40.6076 17.4103 39.1256 18.4892C37.4936 19.6776 35.6177 19.4324 33.8827 17.7899C33.3805 17.9869 32.8547 18.1591 32.3577 18.3939C31.7224 18.6953 31.0701 18.7866 30.3735 18.771C29.056 18.7423 27.7371 18.7631 26.4182 18.7631C26.246 18.7631 26.0738 18.7631 25.899 18.7631C25.899 20.3273 25.899 21.8183 25.899 23.3381C29.7095 23.3381 33.494 23.3381 37.2758 23.3381C38.309 21.0278 39.8196 20.052 41.7464 20.4434C43.4932 20.7982 44.756 22.2932 44.8094 24.0686C44.8603 25.7867 43.6315 27.3978 41.9551 27.81C39.9344 28.3084 38.4929 27.4304 37.2654 24.9649C33.4744 24.9649 29.69 24.9649 25.9146 24.9649C25.9146 26.5538 25.9146 28.1062 25.9146 29.6807C26.9309 29.6807 27.908 29.7264 28.8811 29.6703C30.5327 29.5751 32.1216 29.7368 33.6009 30.5365C33.824 30.6565 33.9636 30.6069 34.1371 30.4178C34.8154 29.6755 35.6777 29.2842 36.6744 29.2176C38.6547 29.0859 40.4458 30.5952 40.6441 32.5416C40.8528 34.5845 39.4778 36.4173 37.5171 36.7108C35.4442 37.0213 33.5448 35.709 33.2017 33.6804C33.1143 33.1638 33.1887 32.6198 33.1887 32.0589C32.1372 31.6532 31.1445 31.1301 29.9365 31.224C28.7559 31.3153 27.561 31.2436 26.3738 31.2449C26.2173 31.2449 26.0608 31.2592 25.912 31.267C25.912 34.0183 25.912 36.7239 25.912 39.4412C27.2166 39.4412 28.4833 39.4412 29.7434 39.4412C30.4805 38.0467 31.4915 37.5027 32.7752 37.8001C33.8736 38.0545 34.6759 39.0707 34.6824 40.2161C34.6889 41.3615 33.9101 42.3829 32.813 42.666C31.5463 42.9935 30.5183 42.4495 29.7395 41.0314C28.478 41.0314 27.2113 41.0314 25.8925 41.0314ZM41.0667 21.9566C39.8183 21.9397 38.8099 22.9063 38.7969 24.1352C38.7838 25.3353 39.77 26.3424 40.978 26.3633C42.216 26.3842 43.2257 25.4097 43.2453 24.173C43.2649 22.9676 42.2878 21.9736 41.0667 21.9566ZM36.8988 13.2528C35.666 13.2515 34.685 14.2195 34.6824 15.4392C34.6798 16.6537 35.6634 17.6517 36.8753 17.6634C38.1146 17.6765 39.1139 16.6811 39.1113 15.4379C39.1073 14.209 38.1394 13.2541 36.8988 13.2528ZM36.8949 35.1898C38.1263 35.1898 39.0982 34.2322 39.11 33.0047C39.1217 31.768 38.1172 30.7648 36.8792 30.7765C35.6647 30.7883 34.6772 31.7836 34.6824 32.9942C34.6876 34.2061 35.6764 35.1885 36.8949 35.1898ZM32.1568 39.286C31.622 39.2938 31.2149 39.7295 31.2319 40.2735C31.2476 40.7901 31.6702 41.1984 32.179 41.1919C32.7021 41.1854 33.1287 40.7314 33.1104 40.2018C33.0935 39.6956 32.6578 39.2782 32.1568 39.286ZM31.6233 7.79726C31.0936 7.78421 30.6788 8.16252 30.6553 8.68173C30.6292 9.22702 31.0271 9.66012 31.5659 9.67447C32.1099 9.68882 32.5351 9.2792 32.5377 8.73913C32.5403 8.21731 32.1451 7.8103 31.6233 7.79726Z" fill="white"/>
<path d="M12.5107 22.3623C12.0867 20.502 11.0131 19.2131 9.27938 18.4657C9.17502 18.4213 9.06414 18.3926 8.95847 18.3482C8.4771 18.146 8.26577 17.7182 8.43535 17.2942C8.59451 16.8976 9.01848 16.7215 9.49724 16.8898C11.6823 17.6621 13.1291 19.1623 13.8648 21.3539C13.8961 21.4465 13.9235 21.5404 13.9483 21.6344C13.9731 21.7257 13.994 21.8196 14.0005 21.8483C14.7988 21.924 15.5672 21.9214 16.3004 22.0818C18.9368 22.6558 20.9001 25.0666 20.9823 27.75C21.0032 28.4557 20.5753 28.8758 19.9857 28.7114C19.5317 28.5849 19.4365 28.2314 19.4078 27.8061C19.2669 25.6967 17.9493 24.0686 15.9494 23.6016C14.1166 23.1737 12.5851 23.7412 11.3588 25.1553C11.274 25.2531 11.2036 25.3653 11.1201 25.4645C10.8044 25.8389 10.3452 25.9132 9.99948 25.6471C9.66683 25.3914 9.59899 24.9531 9.8599 24.5591C10.4287 23.6994 11.1983 23.0589 12.1024 22.5762C12.2315 22.5097 12.3594 22.4432 12.5107 22.3623Z" fill="white"/>
<path d="M16.925 35.7183C15.173 35.7287 13.588 34.5586 13.0832 32.8823C12.5796 31.2099 13.2345 29.3874 14.6825 28.4377C15.1978 28.0999 15.657 28.1299 15.9309 28.5186C16.2114 28.9152 16.0849 29.3509 15.5839 29.7096C14.4803 30.5015 14.1594 31.8112 14.7947 32.9253C15.4339 34.0446 16.758 34.4386 18.0117 33.8881C18.1721 33.8176 18.39 33.6898 18.5087 33.7446C18.7787 33.8685 19.0918 34.0407 19.2262 34.2833C19.4049 34.6055 19.2653 34.9995 18.9131 35.1495C18.2804 35.4183 17.6164 35.6126 16.9654 35.8383C16.9524 35.7966 16.9393 35.7574 16.925 35.7183Z" fill="white"/>
<path d="M22.3587 9.8415C22.3587 10.5551 21.829 10.9725 21.3464 10.7586C19.8801 10.1102 18.7295 10.5812 17.6402 11.613C16.697 12.5066 15.5856 13.0402 14.2236 12.7115C13.4657 12.5275 12.8708 12.0944 12.3908 11.4956C12.0699 11.0965 12.0933 10.6607 12.4286 10.3646C12.7717 10.0633 13.1905 10.0985 13.5531 10.4611C13.6679 10.5759 13.771 10.7025 13.8936 10.8082C14.4558 11.2934 15.0925 11.4121 15.7408 11.0443C16.1726 10.799 16.5692 10.4755 16.941 10.1415C18.3368 8.88788 20.2427 8.52131 21.7716 9.28185C22.0404 9.41752 22.2295 9.71496 22.3587 9.8415Z" fill="white"/>
<path d="M22.0195 16.7332C22.0182 18.4525 20.6784 19.8758 18.9551 19.9932C18.4124 20.0297 18.0119 19.7336 17.9754 19.2679C17.9402 18.8139 18.2429 18.5099 18.7973 18.4408C19.8109 18.3143 20.454 17.6463 20.4501 16.724C20.4462 15.7978 19.807 15.1495 18.7816 15.0373C18.2611 14.9799 17.9376 14.6355 17.9767 14.1828C18.0146 13.7445 18.3563 13.4718 18.8651 13.4731C20.5714 13.4745 22.0221 14.9734 22.0195 16.7332Z" fill="white"/>
<path d="M41.8026 24.1599C41.7961 24.5865 41.4478 24.9218 41.0133 24.9192C40.5789 24.9166 40.2411 24.5748 40.2437 24.143C40.2463 23.719 40.605 23.3681 41.029 23.3746C41.453 23.3811 41.8091 23.7425 41.8026 24.1599Z" fill="white"/>
<path d="M36.8833 14.6681C37.2981 14.6603 37.6764 15.0203 37.6842 15.4312C37.6934 15.85 37.3438 16.2074 36.9159 16.2179C36.4789 16.2283 36.1397 15.9009 36.1306 15.4626C36.1214 15.0281 36.4554 14.6746 36.8833 14.6681Z" fill="white"/>
<path d="M36.904 32.2217C37.3371 32.2256 37.6893 32.5726 37.6854 32.9927C37.6815 33.4023 37.3071 33.7728 36.8961 33.7728C36.4735 33.7728 36.1304 33.4206 36.1304 32.9875C36.1304 32.5465 36.463 32.2178 36.904 32.2217Z" fill="white"/>
</svg>
