<svg width="51" height="50" viewBox="0 0 51 50" fill="none" xmlns="http://www.w3.org/2000/svg">
<g clip-path="url(#clip0_168_865)">
<path d="M-3.80059e-05 23.5328C0.0351907 23.294 0.0821624 23.0565 0.105648 22.8165C0.223077 21.6109 1.01507 20.781 2.21024 20.601C2.94874 20.4901 3.68854 20.3726 4.42051 20.2226C4.56404 20.1939 4.74932 20.023 4.78715 19.8833C5.30776 17.9236 6.06583 16.0669 7.0979 14.3185C7.17488 14.188 7.13965 13.9127 7.04832 13.7757C6.62688 13.1377 6.16238 12.5297 5.72528 11.9034C5.04158 10.9235 5.0455 9.82489 5.85445 8.94417C6.85391 7.8573 7.90555 6.81218 8.99242 5.81143C9.82225 5.04683 10.9391 5.03901 11.8747 5.68356C12.5179 6.12588 13.1533 6.57994 13.777 7.04835C13.991 7.20883 14.1449 7.21927 14.3798 7.07705C16.0708 6.0489 17.8805 5.29213 19.8011 4.81589C20.1051 4.74021 20.2252 4.60843 20.2669 4.30834C20.3635 3.59985 20.4979 2.89658 20.6075 2.1907C20.8045 0.928987 21.6213 0.177441 22.9091 0.082193C23.2822 0.0547929 23.6541 0.0104308 24.0286 -7.37421e-06C25.0946 -0.0274075 25.8096 0.649767 25.8317 1.73794C25.8539 2.81177 25.8383 3.88559 25.8383 4.95941C25.8383 5.968 25.8396 6.97789 25.8383 7.98647C25.8357 9.34865 25.2811 9.93449 23.9124 10.0376C20.2108 10.3168 16.9946 11.7338 14.4203 14.3929C10.3233 18.6255 8.9872 23.6894 10.6808 29.3207C12.3757 34.956 16.3148 38.3784 22.044 39.7093C22.7838 39.8815 23.5575 39.9063 24.3143 40.0081C25.2146 40.1281 25.8148 40.7244 25.8252 41.6338C25.8526 43.8793 25.8448 46.1248 25.8265 48.3703C25.82 49.2328 25.2759 49.7169 24.5152 49.9987C24.1251 49.9987 23.7337 49.9987 23.3436 49.9987C23.2183 49.97 23.0943 49.9269 22.9665 49.9139C21.5573 49.7782 20.8188 49.088 20.597 47.7062C20.4861 47.016 20.3517 46.3297 20.2552 45.6382C20.2173 45.372 20.113 45.2598 19.8468 45.1945C17.9118 44.7105 16.0838 43.9563 14.3798 42.919C14.1463 42.7768 13.991 42.7859 13.777 42.9477C13.1403 43.4253 12.4944 43.8937 11.8342 44.3412C10.9417 44.9466 9.80007 44.931 9.03156 44.2186C7.94861 43.2126 6.89174 42.1753 5.88838 41.091C5.04028 40.1738 5.03636 39.0817 5.7566 38.0548C6.18717 37.4429 6.64123 36.8466 7.05223 36.2229C7.14226 36.0859 7.17618 35.8106 7.0992 35.6789C6.06713 33.9305 5.30776 32.0751 4.78585 30.1153C4.74801 29.9757 4.56273 29.8048 4.41921 29.7761C3.68723 29.626 2.94743 29.5112 2.20893 29.3964C0.990281 29.2059 0.204811 28.363 0.0991243 27.1326C0.0795528 26.9082 0.0325812 26.6864 -0.00134277 26.4633C-3.80059e-05 25.486 -3.80059e-05 24.5087 -3.80059e-05 23.5328ZM24.1382 1.65574C23.7272 1.68967 23.3749 1.72881 23.02 1.74447C22.5516 1.76404 22.3219 2.00151 22.2528 2.46078C22.1119 3.39239 21.9448 4.32138 21.7922 5.25168C21.6748 5.9693 21.5534 6.11544 20.828 6.27853C18.6333 6.77043 16.5914 7.62375 14.6956 8.83327C14.1097 9.20643 13.9088 9.19078 13.3269 8.77586C12.5453 8.21872 11.7637 7.66289 10.9874 7.09923C10.6312 6.84089 10.2907 6.83828 9.97752 7.14881C9.042 8.07129 8.1117 9.00289 7.18271 9.93449C6.83825 10.2803 6.85782 10.6391 7.14226 11.0253C7.72158 11.8107 8.2761 12.6132 8.85412 13.4C9.1503 13.8044 9.17248 14.1893 8.89587 14.6134C7.62372 16.5692 6.74822 18.6921 6.26024 20.9715C6.15846 21.4491 5.88185 21.6983 5.40692 21.774C4.42704 21.9279 3.45107 22.1054 2.47119 22.2515C2.02888 22.318 1.77836 22.5503 1.77314 22.9835C1.75879 24.3313 1.75748 25.6804 1.77445 27.0283C1.77966 27.434 2.01583 27.6767 2.43727 27.742C3.40149 27.892 4.3605 28.0721 5.32472 28.2143C5.85837 28.2926 6.15977 28.547 6.2772 29.0911C6.76127 31.3379 7.62502 33.4307 8.88152 35.3579C9.16856 35.7976 9.15943 36.1929 8.84629 36.6144C8.2761 37.3855 7.72158 38.1697 7.16705 38.9525C6.81737 39.4444 6.80824 39.6701 7.2349 40.1112C8.11562 41.0219 9.02765 41.9039 9.92272 42.8029C10.2854 43.1669 10.6443 43.1669 11.0487 42.8694C11.8342 42.2901 12.6379 41.7356 13.4221 41.155C13.8292 40.8536 14.2115 40.847 14.6342 41.1224C16.5744 42.3854 18.6803 43.2609 20.9454 43.7449C21.4634 43.8558 21.7152 44.152 21.7909 44.6713C21.9305 45.6368 22.1106 46.5959 22.2593 47.5601C22.3115 47.9019 22.4615 48.1642 22.8073 48.2203C23.2327 48.2894 23.6684 48.3012 24.1238 48.3403C24.1369 48.155 24.1512 48.0285 24.1525 47.9019C24.159 45.9813 24.1512 44.0607 24.1773 42.1414C24.1825 41.7252 24.026 41.6456 23.6502 41.5999C22.7173 41.4864 21.7726 41.3794 20.8658 41.1432C12.1382 38.8703 6.84477 30.298 8.70146 21.4804C10.0858 14.903 15.5241 9.67223 22.121 8.58275C22.7864 8.47315 23.4571 8.39748 24.1434 8.30353C24.1382 6.08282 24.1382 3.90647 24.1382 1.65574Z" fill="url(#paint0_linear_168_865)"/>
<path d="M25.8553 14.1593C25.8553 14.7386 25.8553 15.241 25.8553 15.8242C26.0536 15.8242 26.2402 15.8242 26.4268 15.8242C29.1772 15.8242 31.929 15.8229 34.6794 15.8268C34.8725 15.8268 35.0761 15.8294 35.2561 15.8881C35.6606 16.0186 35.8707 16.3266 35.825 16.7467C35.7793 17.1603 35.5275 17.4265 35.0983 17.4787C34.9378 17.4982 34.7734 17.4891 34.6103 17.4891C31.8924 17.4891 29.1733 17.4891 26.4555 17.4891C26.2793 17.4891 26.1032 17.4891 25.8827 17.4891C25.8827 18.3281 25.8827 19.1305 25.8827 20.0034C26.0549 20.0034 26.2284 20.0034 26.4007 20.0034C30.5511 20.0034 34.7016 20.0034 38.8521 20.0034C39.7276 20.0034 40.0055 19.7359 40.0094 18.8787C40.0133 17.6744 40.0055 16.4701 40.0146 15.2658C40.0172 14.9996 39.9598 14.8365 39.6936 14.6956C38.5859 14.1071 38.0979 12.9146 38.4515 11.7625C38.7894 10.6626 39.8594 9.9071 40.9684 9.98799C42.2132 10.078 43.1435 10.9561 43.3209 12.2074C43.4527 13.1403 42.9686 14.1619 42.0957 14.629C41.7474 14.8156 41.6665 15.0283 41.6717 15.3884C41.6912 16.5758 41.6834 17.7644 41.6782 18.953C41.6691 20.6284 40.6318 21.6683 38.9656 21.6696C34.7825 21.6722 30.5994 21.6709 26.4163 21.6709C26.2415 21.6709 26.0667 21.6709 25.8657 21.6709C25.8657 22.5138 25.8657 23.3031 25.8657 24.1382C26.0601 24.1473 26.2337 24.1617 26.4059 24.1617C32.4939 24.163 38.5807 24.1604 44.6687 24.1682C44.9897 24.1682 45.1802 24.1004 45.3498 23.7807C45.89 22.763 47.0904 22.2854 48.1838 22.5934C49.2485 22.8921 49.9974 23.8772 50.0026 24.9824C50.0078 26.1097 49.2524 27.1052 48.1629 27.404C47.0617 27.7067 45.8848 27.2253 45.3368 26.1971C45.1789 25.9009 45.0001 25.8292 44.6935 25.8305C38.5898 25.8383 32.4861 25.8357 26.3824 25.837C26.2232 25.837 26.064 25.8514 25.8735 25.8605C25.8735 26.6773 25.8735 27.468 25.8735 28.3265C26.0614 28.3265 26.2506 28.3265 26.4398 28.3265C30.5746 28.3265 34.7081 28.3252 38.8429 28.3265C40.6722 28.3265 41.6769 29.3338 41.6795 31.167C41.6808 32.3556 41.6834 33.543 41.6769 34.7316C41.6756 34.9926 41.716 35.1622 41.99 35.307C43.0652 35.8785 43.5479 37.0058 43.2557 38.1501C42.9817 39.2213 41.9666 40.0094 40.8484 40.0172C39.7224 40.025 38.6851 39.2187 38.4137 38.1227C38.1318 36.9902 38.6446 35.8889 39.7054 35.2718C39.8489 35.1883 39.9964 34.9678 40.0003 34.8073C40.0238 33.5377 40.0211 32.2682 40.0107 30.9987C40.0042 30.298 39.691 29.994 38.9799 29.994C34.7316 29.9901 30.4833 29.9914 26.235 29.9927C26.1241 29.9927 26.0145 30.011 25.8749 30.0227C25.8749 30.8473 25.8749 31.6497 25.8749 32.5057C26.0823 32.5057 26.2571 32.5057 26.432 32.5057C29.1498 32.5057 31.869 32.5057 34.5868 32.5057C34.7499 32.5057 34.913 32.4991 35.0748 32.5148C35.4962 32.5566 35.8054 32.8697 35.8381 33.2729C35.8694 33.6643 35.598 34.0453 35.1948 34.1366C35.0239 34.1758 34.8399 34.1693 34.6612 34.1693C31.9264 34.1706 29.1916 34.1706 26.4581 34.1706C26.2806 34.1706 26.1045 34.1706 25.8853 34.1706C25.8853 34.7251 25.8853 35.2496 25.8853 35.8354C26.0627 35.8354 26.2363 35.8354 26.4111 35.8354C27.8111 35.8354 29.2111 35.8328 30.6112 35.8354C32.3295 35.8393 33.329 36.8427 33.3342 38.5715C33.3381 40.0524 33.342 41.5334 33.329 43.0156C33.3264 43.3222 33.3955 43.5036 33.693 43.6601C34.7277 44.2042 35.2196 45.3733 34.926 46.4745C34.6325 47.5757 33.6565 48.3351 32.5279 48.3416C31.4005 48.3482 30.3841 47.5823 30.0984 46.511C29.7931 45.3681 30.2745 44.2173 31.3314 43.6549C31.5845 43.5192 31.6758 43.3796 31.6732 43.0978C31.6602 41.5673 31.6706 40.0381 31.6654 38.5076C31.6628 37.7939 31.3705 37.5016 30.6555 37.5003C29.0924 37.4964 27.5306 37.4938 25.9675 37.5068C25.8122 37.5081 25.6035 37.5721 25.5134 37.6817C25.1129 38.1697 24.6092 38.338 23.9986 38.2897C21.0107 38.0535 18.3516 36.9889 16.1569 34.9547C12.1944 31.2831 10.763 26.7308 12.1644 21.5261C13.5565 16.3579 17.0768 13.199 22.2815 11.9504C22.8935 11.8029 23.5354 11.7664 24.1656 11.7051C24.6875 11.6555 25.1037 11.876 25.4652 12.2531C25.5891 12.3822 25.8109 12.484 25.9884 12.4866C27.5502 12.5049 29.1133 12.4997 30.6764 12.4958C31.364 12.4944 31.6615 12.2022 31.6654 11.5198C31.6719 9.97364 31.6615 8.42749 31.6732 6.88134C31.6758 6.61647 31.5897 6.48469 31.3549 6.35943C30.285 5.78533 29.8009 4.66584 30.0932 3.51504C30.3659 2.44252 31.3797 1.65966 32.5005 1.65705C33.6487 1.65444 34.6507 2.43208 34.9339 3.54505C35.2157 4.65149 34.7199 5.79708 33.6734 6.34899C33.389 6.49904 33.3277 6.66997 33.3303 6.95832C33.3407 8.47185 33.3407 9.98538 33.3342 11.4989C33.3264 13.156 32.3061 14.1593 30.6399 14.1606C29.2242 14.1619 27.8072 14.1606 26.3915 14.1606C26.2245 14.1593 26.0653 14.1593 25.8553 14.1593ZM24.1408 13.4091C20.9859 13.4991 17.0129 15.3897 14.9161 19.1736C12.6393 23.2823 12.7345 27.4197 15.2671 31.377C17.3091 34.5685 20.3374 36.249 24.1408 36.6431C24.1408 28.8615 24.1408 21.1529 24.1408 13.4091ZM33.3212 4.17786C33.3277 3.71075 32.9623 3.33107 32.5044 3.32976C32.0555 3.32846 31.6628 3.7238 31.6693 4.17134C31.6758 4.60713 32.036 4.97116 32.4757 4.98421C32.9493 4.99856 33.3146 4.65019 33.3212 4.17786ZM32.5031 45.0119C32.0438 45.0106 31.6602 45.3942 31.668 45.8456C31.6758 46.2958 32.0777 46.6807 32.5253 46.6663C32.965 46.6533 33.3159 46.2932 33.3225 45.8469C33.329 45.3746 32.9754 45.0132 32.5031 45.0119ZM47.5105 25.8253C47.9698 25.8213 48.3469 25.4364 48.3351 24.9811C48.3247 24.5231 47.9385 24.163 47.474 24.1786C47.0251 24.193 46.6833 24.544 46.6807 24.9928C46.6781 25.456 47.0499 25.8292 47.5105 25.8253ZM40.8497 11.6764C40.3786 11.6698 40.0185 12.026 40.0198 12.4971C40.0198 12.9472 40.3578 13.3008 40.8027 13.3191C41.2607 13.3373 41.6534 12.9759 41.6691 12.5205C41.6847 12.0678 41.3116 11.6842 40.8497 11.6764ZM40.8144 36.6796C40.3447 36.6914 40.0016 37.0619 40.0198 37.5355C40.0368 37.9818 40.3904 38.3236 40.8379 38.3223C41.2972 38.321 41.6756 37.9413 41.6691 37.4873C41.6612 37.0319 41.2763 36.6679 40.8144 36.6796Z" fill="url(#paint1_linear_168_865)"/>
</g>
<defs>
<linearGradient id="paint0_linear_168_865" x1="12.9211" y1="-0.000808716" x2="12.9211" y2="49.9987" gradientUnits="userSpaceOnUse">
<stop stop-color="#20D4FE"/>
<stop offset="1" stop-color="#B722FF"/>
</linearGradient>
<linearGradient id="paint1_linear_168_865" x1="30.8212" y1="1.65704" x2="30.8212" y2="48.3417" gradientUnits="userSpaceOnUse">
<stop stop-color="#20D4FE"/>
<stop offset="1" stop-color="#B722FF"/>
</linearGradient>
<clipPath id="clip0_168_865">
<rect width="50.0039" height="50" fill="white"/>
</clipPath>
</defs>
</svg>
