<svg width="255" height="411" viewBox="0 0 255 411" fill="none" xmlns="http://www.w3.org/2000/svg">
<g clip-path="url(#clip0_1331_125)">
<path d="M254.295 28.2057C254.021 29.5748 253.812 30.9628 253.457 32.3131C250.453 43.7385 240.35 51.5965 228.518 51.6341C214.768 51.6787 201.018 51.6599 187.268 51.6176C186.136 51.6129 185.431 51.984 184.694 52.7989C178.052 60.1497 169.83 65.0932 160.605 68.4915C159.253 68.9893 157.919 69.5412 156.582 70.0861C155.27 70.6215 154.154 70.3749 153.461 69.3651C152.764 68.3482 152.895 67.2468 153.919 66.1994C157.494 62.5404 160.161 58.3226 161.808 53.4706C161.993 52.9211 162.137 52.3574 162.313 51.7539C160.455 51.6411 158.663 51.6529 156.907 51.4039C147.341 50.0442 140.549 44.901 136.449 36.1858C135.81 34.8307 136.327 33.4733 137.553 32.9214C138.816 32.3531 140.089 32.8909 140.773 34.3869C142.898 39.0368 146.216 42.5314 150.8 44.8C153.68 46.2255 156.74 46.923 159.95 46.9536C161.592 46.9677 163.231 46.9465 164.873 46.9606C166.902 46.9771 167.881 48.1701 167.503 50.1592C166.737 54.1775 165.382 57.9797 163.355 61.5376C163.222 61.7748 163.095 62.0167 162.825 62.5146C163.475 62.2469 163.919 62.0825 164.346 61.8852C171.333 58.6772 177.373 54.1963 182.378 48.3556C183.245 47.3458 184.198 46.9348 185.523 46.9371C199.78 46.97 214.04 46.9724 228.298 46.9512C238.77 46.9348 247.309 39.8353 249.284 29.5631C251.517 17.9498 243.056 6.38829 231.278 4.97685C230.158 4.84299 229.021 4.77488 227.891 4.77488C205.548 4.76314 183.202 4.74905 160.859 4.77488C151.622 4.78662 144.903 8.93169 140.824 17.2617C140.07 18.8023 138.812 19.3871 137.527 18.7883C136.252 18.1941 135.827 16.8249 136.571 15.2961C141.198 5.77533 148.83 0.305725 159.386 0.176558C182.665 -0.109956 205.95 0.0145133 229.23 0.117846C241.7 0.171861 252.548 10.1036 254.07 22.5106C254.112 22.8511 254.218 23.1823 254.295 23.5181C254.295 25.0822 254.295 26.6439 254.295 28.2057Z" fill="white"/>
<path d="M136.628 28.1985C135.336 28.1961 134.263 27.0923 134.296 25.8007C134.329 24.5513 135.385 23.525 136.632 23.5273C137.926 23.5297 139 24.6335 138.964 25.9228C138.932 27.1698 137.875 28.1985 136.628 28.1985Z" fill="white"/>
<path d="M183.688 32.2344C181.656 32.2344 180.048 31.5833 178.863 30.2812C177.678 28.9792 177.086 27.2051 177.086 24.959C177.086 22.7194 177.678 20.9453 178.863 19.6367C180.048 18.3281 181.656 17.6738 183.688 17.6738C185.712 17.6738 187.317 18.3314 188.502 19.6465C189.693 20.9551 190.289 22.7259 190.289 24.959C190.289 26.2676 190.077 27.4297 189.654 28.4453C189.231 29.4609 188.626 30.2747 187.838 30.8867L189.674 33.4941H187.389L186.188 31.8145C185.445 32.0944 184.612 32.2344 183.688 32.2344ZM183.688 30.3203C184.143 30.3203 184.583 30.2552 185.006 30.125L183.326 27.752H185.543L186.539 29.0996C187.542 28.1686 188.043 26.7884 188.043 24.959C188.043 23.3118 187.649 22.0065 186.861 21.043C186.08 20.0729 185.022 19.5879 183.688 19.5879C182.353 19.5879 181.292 20.0729 180.504 21.043C179.716 22.0065 179.322 23.3118 179.322 24.959C179.322 26.5996 179.716 27.9049 180.504 28.875C181.292 29.8385 182.353 30.3203 183.688 30.3203ZM193.307 31.7363C193.059 31.9837 192.757 32.1074 192.398 32.1074C192.04 32.1074 191.738 31.9837 191.49 31.7363C191.243 31.4889 191.119 31.1862 191.119 30.8281C191.119 30.4701 191.243 30.1673 191.49 29.9199C191.738 29.6725 192.04 29.5488 192.398 29.5488C192.757 29.5488 193.059 29.6725 193.307 29.9199C193.554 30.1673 193.678 30.4701 193.678 30.8281C193.678 31.1862 193.554 31.4889 193.307 31.7363ZM205.504 32L204.215 28.1914H198.844L197.555 32H195.279L200.367 17.9082H202.73L207.818 32H205.504ZM201.5 20.252L199.4 26.4336H203.658L201.559 20.252H201.5Z" fill="white"/>
</g>
<path fill-rule="evenodd" clip-rule="evenodd" d="M129.718 403.003C130.614 398.842 126.517 397.435 123.935 396.509C122.085 395.312 115.231 391.165 109.928 386.046C105.589 381.857 102.635 376.489 101.405 375.977C101.405 375.977 100.139 375.244 100.008 374.7C99.2375 371.51 99.88 368.537 100.008 366.604C102.476 365.957 104.455 365.15 105.935 364.021C106.366 364.165 107.013 364.349 107.205 363.719C108.542 354.815 109.119 346.018 110.207 337.108C114.326 303.173 114.79 263.527 107.706 232.532C107.631 230.996 107.765 229.608 107.903 228.288C108.861 228.185 109.44 227.26 110.222 226.707C111.436 225.744 112.873 225.003 112.814 223.321C113.103 223.103 113.069 222.98 112.927 222.702C113.853 218.728 109.722 214.54 108.554 211.264C110.678 190.536 107.788 170.949 109.4 150.216C111.436 149.366 110.067 144.052 109.928 141.86C108.801 127.739 101.445 113.778 88.2007 109.165C87.4434 109.012 86.3052 108.148 85.6787 108.729C84.4676 108.25 82.8567 109.193 81.9199 108.107L81.929 108.1C81.1402 107.008 80.7865 105.62 80.5271 104.307C80.5705 104.677 80.6429 105.044 80.7318 105.402C78.4489 98.9802 77.8734 97.2632 70.5225 96.9604C67.2117 96.9165 62.8468 97.0156 60.916 100.167C60.125 101.632 60.3667 103.315 59.8758 104.857C58.9744 107.687 55.0838 106.319 53.041 107.789C36.6934 113.021 23.2847 123.702 18.877 140.846C17.9761 142.912 16.9542 144.968 16.2007 147.101C16.0839 147.417 15.7634 148.489 16.5335 148.982L16.9059 149.22C11.9992 172.108 11.674 191.394 28.1587 206.652C29.3955 213.209 26.2134 222.163 27.4368 228.529C26.7396 229.516 27.6233 230.31 28.5145 230.374C28.6003 230.421 28.9475 230.573 29.0424 230.616C27.6244 250.597 33.5782 277.525 36.2031 288.153C36.56 294.533 34.3778 299.776 29.8886 303.253C24.9283 306.302 15.1225 320.072 16.9402 334.516C14.8159 334.932 12.7066 335.16 10.6686 335.957C1.75021 334.386 1.83863 351.544 1.27004 357.577C0.308105 367.678 -0.290494 382.319 9.32512 388.785C11.8583 390.619 16.9949 392.766 19.6272 389.831C20.4895 388.797 20.7054 387.798 20.3662 386.742C24.7123 380.614 23.5414 372.598 23.9406 365.41C25.2005 365.335 26.5194 365.924 27.7386 365.709C28.9899 364.609 24.4251 364.909 23.9514 364.844C23.9996 363.736 24.0891 362.569 24.2043 361.452C24.9208 361.595 25.8377 361.938 26.5264 361.964C26.9336 362.062 27.2219 361.502 26.976 361.212C26.4385 360.701 25.0682 360.78 24.2976 360.708C24.4278 359.772 24.5869 358.789 24.7638 357.884C25.707 357.85 26.6812 358.45 27.574 358.327C26.8983 357.877 25.6293 358.014 24.8056 357.717C25.3415 354.803 26.4331 352.037 27.4476 349.311C29.9384 350.336 32.0868 350.377 34.5182 350.07C35.5123 350.222 35.9973 350.019 36.1586 348.778L36.0948 348.699C38.0219 337.192 44.2399 326.221 55.7901 313.78C58.0714 311.232 60.6496 308.232 62.3677 304.878C65.8194 297.897 66.4089 290.194 69.068 282.944C71.5514 275.657 74.9463 268.687 78.1343 261.778C78.6016 265.319 79.2297 268.951 79.8824 272.422C82.7554 284.724 82.4767 297.849 80.3626 310.219C77.234 327.544 78.7421 344.951 78.0465 362.398C78.0561 363.404 78.181 364.319 78.0331 365.366C78.0132 365.447 78.0518 365.543 78.1472 365.54L78.3278 365.545C79.8315 366.644 81.9081 366.842 83.675 367.439C84.4167 368.024 84.2077 368.952 84.2757 369.677C84.4697 372.798 84.7178 375.93 84.4102 379.147C83.0469 381.754 81.3535 381.215 81.0073 384.891C80.704 389.086 80.1681 393.547 82.2152 397.283L81.4403 397.417C80.2908 399.824 80.9928 401.387 83.6943 402.405C97.0322 407.624 115.8 412.362 129.718 408.423C129.971 408.673 130.339 408.414 130.627 408.02C130.903 407.642 131.106 407.141 131.061 406.85C130.823 405.572 131.15 403.239 129.718 403.003Z" fill="white"/>
<path fill-rule="evenodd" clip-rule="evenodd" d="M130.354 407.181C118.369 412.552 96.6054 405.775 84.8291 401.854C81.6539 400.711 80.596 400.487 81.4856 396.833C83.1501 400.04 86.7304 400.814 90.1602 401.457C101.779 404.1 113.624 408.98 126.049 406.599C127.873 406.312 129.678 405.327 130.208 403.509C130.536 404.279 130.333 405.323 130.464 406.17C130.489 406.509 130.496 406.874 130.354 407.181ZM81.8805 387.203C82.0965 385.05 82.4427 382.775 83.671 380.873C83.5375 383.95 85.3891 389.181 89.4464 387.438C90.5958 386.83 91.24 385.606 91.979 384.623C94.4366 381.389 97.5882 378.581 101.148 376.541C103.128 376.881 103.98 380.495 105.256 382.007C103.833 382.64 101.255 384.082 100.994 385.574C102.77 384.977 104.406 383.866 106.269 383.476C106.867 384.299 107.499 385.096 108.163 385.866C107.295 386.247 103.795 388.013 103.818 388.894C105.71 388.587 107.544 387.663 109.447 387.283C110.293 388.12 111.063 389.022 111.906 389.863C110.633 390.386 109.289 390.97 108.594 392.189C108.561 392.244 108.643 392.306 108.687 392.253C109.641 391.105 111.281 390.895 112.703 390.637C114.884 392.687 117.326 394.495 120.06 395.848C122.795 397.34 126.952 397.682 128.04 400.919C128.91 404.156 126.196 404.502 123.691 404.73C121.157 405.09 118.606 405.145 116.088 404.935C108.219 404.607 100.78 402.295 93.3434 400.275C84.2514 398.605 81.3012 397.253 81.8805 387.203ZM84.5461 368.275C84.5241 368.417 84.5054 368.56 84.485 368.703C84.4593 368.551 84.4416 368.399 84.4046 368.251L84.5461 368.275ZM99.2356 375.504C95.7523 378.075 92.3514 380.94 89.9319 384.526C88.3311 387.443 86.2004 385.668 85.671 383.33C85.2422 378.112 85.6109 373.606 85.1088 368.356C89.926 369.011 94.8739 368.608 99.5791 367.448C99.0127 369.792 98.7533 370.681 98.7351 373.085C98.7661 373.877 98.7543 374.845 99.2356 375.504ZM107.033 183.432C107.136 191.112 107.185 198.795 106.917 206.473C100.143 188.999 102.216 170.037 101.254 151.67C103.256 151.004 105.406 150.713 107.47 150.428C106.641 161.829 106.855 172.013 107.033 183.432ZM68.7462 222.234C52.112 214.297 49.8114 193.947 36.6401 182.735C36.2151 182.331 35.8625 181.916 35.6573 181.427C36.602 171.905 36.5329 163.556 37.6492 154.045C38.8968 151.786 39.3892 149.163 40.318 146.76C40.8046 145.297 41.3946 143.848 41.535 142.312C41.6518 141.807 40.8603 141.587 40.7129 142.065C38.9552 145.473 38.0806 149.265 36.7687 152.859C36.5838 152.933 36.3384 152.875 36.266 152.681C36.2542 152.728 36.2414 152.776 36.2301 152.823C30.5834 150.62 24.7609 148.569 18.6082 148.584L18.6211 148.525C18.2417 148.537 17.4464 148.507 17.6843 147.958C23.0921 128.277 32.8015 114.787 53.3976 108.379C50.7642 123.65 89.0905 124.534 88.561 110.32C102.999 116.511 109.218 133.898 107.582 148.537C106.21 148.167 102.637 149.622 101.244 150.466C100.96 144.522 101.665 137.349 101.25 132.033C99.0534 159.135 94.9538 191.564 108.502 216.155C109.381 217.804 110.815 219.381 110.78 221.317C110.885 221.424 110.896 221.61 110.767 221.747C110.767 221.756 110.767 221.765 110.766 221.774C110.76 221.776 110.752 221.776 110.745 221.776C110.351 222.243 109.524 222.336 108.955 222.439C107.611 222.709 106.197 222.914 104.966 223.537C91.8536 230.407 81.5687 221.551 68.7462 222.234ZM72.8909 234.722C73.5243 235.93 74.5886 236.901 75.8501 237.508C75.6947 237.813 75.6411 238.156 75.6245 238.477C73.3528 238.941 73.9916 240.017 72.4568 240.53C71.4525 240.807 70.4868 240.925 69.6187 241.532C66.6648 244.278 65.9317 244.076 62.7613 241.661C62.8047 241.442 58.4902 237.237 57.1537 234.886C56.0401 232.924 54.8745 230.95 53.1677 229.433C44.8098 220.892 35.9059 212.833 27.8155 204.056C11.6014 187.932 14.6951 169.648 18.419 149.508C24.4302 150.224 30.4741 151.663 35.8872 154.305C33.9783 163.195 33.8556 171.252 33.0335 180.273C32.7854 181.388 33.0657 183.536 34.6487 183.04C49.2021 194.572 50.8933 218.269 69.9917 225.121C77.7756 228.278 74.4905 230.841 77.0628 236.804C75.6475 236.544 74.3849 235.361 73.7767 234.228C73.475 233.665 72.5967 234.16 72.8909 234.722ZM28.9007 227.726C28.5711 225.466 28.8283 223.217 28.8433 220.954C28.6665 216.832 28.8042 212.814 28.9634 208.679C33.5271 213.397 38.2719 217.956 42.9321 222.587C37.9686 223.212 32.2441 223.726 28.9007 227.726ZM28.8171 231.05C28.8948 231.025 28.9709 230.99 29.0411 230.948C29.0228 232.721 29.0512 234.495 29.1161 236.265C28.9916 234.528 28.8919 232.79 28.8171 231.05ZM23.2335 357.085C21.8949 356.982 16.1688 356.785 15.4818 357.682C16.2556 358.008 17.3199 357.828 18.1516 357.865C19.7684 357.931 21.3809 358.073 22.9801 358.299C22.8596 358.919 22.7542 359.542 22.6639 360.166C21.0498 360.32 17.9073 360.39 16.8832 361.516C18.7106 361.807 20.613 361.546 22.4474 361.909C22.3595 362.762 22.292 363.616 22.2448 364.472C21.5144 364.549 17.2181 365.259 17.2218 365.934C18.8301 366.147 20.5342 365.867 22.1735 366.025C21.8182 371.148 23.0224 386.617 16.0075 387.563C9.87416 387.24 7.18395 377.321 6.35063 372.562C4.50178 361.473 4.81903 349.651 8.48189 338.963C9.79002 335.991 13.3511 335.475 16.3623 335.321C16.4769 335.824 16.59 336.318 16.7176 336.816C15.4116 339.771 14.9957 343.097 14.9598 346.294C15.2363 350.889 20.9174 354.306 25.0433 351.27C24.2721 353.15 23.6767 355.106 23.2335 357.085ZM15.1179 390.143C2.96965 387.536 0.97665 373.496 1.81158 363.173C2.49217 355.986 1.67439 340.835 8.32166 336.613C-0.268776 344.439 0.476658 397.721 19.515 388.421C19.0401 389.923 16.5991 390.356 15.1179 390.143ZM17.4989 340.049C17.5203 339.863 17.5445 339.679 17.5696 339.494C18.9174 343.148 21.2261 346.62 24.6639 348.736C23.3477 350.375 20.7845 350.863 19.0551 349.521C16.0386 347.264 17.2963 343.181 17.4989 340.049ZM58.9066 106.606C58.8824 106.648 58.8574 106.69 58.8316 106.731C58.6639 106.742 58.4945 106.758 58.3225 106.776C58.5176 106.718 58.7121 106.663 58.9066 106.606ZM81.9915 107.948C81.9852 107.929 81.9791 107.91 81.9733 107.892L82.0204 107.921C82.0093 107.928 81.9995 107.937 81.9915 107.948ZM131.533 404.958C131.5 404.048 131.488 402.875 130.421 402.552C130.904 398.635 127.646 396.405 124.226 395.32C121.309 393.539 118.001 392.295 115.32 390.148C116.565 389.915 117.81 389.633 118.916 389.092C119.75 388.685 119.348 387.327 118.444 387.453C116.841 387.664 115.402 388.477 113.896 389.042C113.04 388.345 112.217 387.608 111.43 386.834C112.405 386.646 113.644 386.715 114.212 385.749C114.389 385.447 114.31 385.134 114.096 384.901C113.108 383.903 111.151 384.9 109.924 385.19C109.337 384.512 108.765 383.822 108.207 383.121C109.134 383.036 111.544 383.205 111.072 381.679C110.167 380.485 108.222 381.201 106.913 381.447C105.253 379.41 104.719 376.286 102.125 375.165C102.032 374.671 101.386 374.709 100.954 374.856C100.319 371.83 100.367 370.292 100.553 367.19C102.479 366.658 104.389 365.959 105.99 364.814C106.726 365.03 107.618 364.78 107.771 363.918C108.228 360.88 108.484 357.372 108.806 354.268H108.922C109.532 348.606 110.023 342.927 110.713 337.28C114.662 304.636 115.523 264.792 108.212 232.542C108.155 231.32 108.242 230.097 108.365 228.884C109.237 228.652 109.756 227.802 110.478 227.31C111.819 226.22 113.183 225.609 113.307 223.705C113.578 223.447 113.61 223.057 113.461 222.719C113.808 220.764 113.296 218.823 112.254 217.134C111.112 215.21 110.032 213.268 109.079 211.248C111.164 190.893 108.336 171.166 109.882 150.709C111.865 149.661 110.62 143.839 110.436 141.898C109.277 129.152 103.315 115.08 90.6376 109.778C89.7481 109.028 88.5058 108.774 87.419 108.362C86.6843 108.001 85.4893 107.688 84.9866 108.528C84.4534 108.281 82.7364 108.091 82.1485 107.662C82.0392 107.582 81.969 107.494 81.9529 107.396C81.9027 107.396 81.8527 107.389 81.8039 107.377C81.2616 106.613 80.745 101.287 80.0767 101.667C79.3474 103.496 79.8527 105.562 80.5504 107.409C81.0312 109.043 81.6908 113.244 84.246 112.17C84.6865 111.951 84.4143 111.383 84.0193 111.337C82.8082 110.992 82.5381 109.215 82.0697 108.173C82.6244 108.633 85.1522 109.323 85.4287 109.469C90.9115 122.028 57.7614 121.369 55.1548 112.71C53.2963 109.719 54.9003 108.099 58.2132 107.619C55.7781 110.319 58.8611 110.918 60.0331 108.27C61.1542 106.374 61.6644 104.07 61.2812 101.888C61.4789 101.122 61.6456 100.098 60.4977 100.304C60.4581 100.202 60.3959 100.282 60.42 100.355C60.0009 101.02 60.2925 101.977 60.144 102.745C60.0175 104.003 59.6601 105.235 59.0529 106.347C57.927 106.562 56.8054 106.792 55.6891 107.043C55.0198 105.685 50.6774 108.393 49.5113 108.712C34.0238 113.278 22.2464 125.438 18.1356 140.777C17.2181 142.819 16.2278 144.872 15.4775 146.977C15.141 147.889 15.141 149.021 16.0638 149.612C11.5676 170.197 10.4701 191.644 27.457 207.084C27.8428 208.755 27.5856 210.528 27.5743 212.23C27.7163 216.107 24.3975 229.392 28.2528 231.111C27.1263 248.321 31.3502 271.738 35.4445 288.342C35.7473 294.048 34.0228 299.24 29.3814 302.84C20.5562 309.424 16.8387 320.415 15.8071 330.889C15.6602 331.962 15.8039 333.054 16.0461 334.108C14.1329 334.464 12.3425 334.695 10.4856 335.395C0.244079 333.436 0.974508 355.396 0.191026 361.911C-0.423113 371.544 -0.0394108 383.091 8.82969 389.398C11.8114 391.517 17.0755 393.552 19.9812 390.343C20.8032 389.361 21.2513 388.213 20.9281 386.958C25.0936 380.871 24.1097 373.09 24.4216 366.162C25.5122 366.201 26.7008 366.686 27.7753 366.419C28.6027 366.201 28.7077 365.142 28.0079 364.72C26.9977 364.148 25.6242 364.365 24.494 364.327C24.5288 363.664 24.5781 363.001 24.6419 362.338C25.7147 362.6 27.2517 363.228 27.5716 361.732C27.7003 360.369 25.9757 360.265 24.9013 360.207C24.9763 359.693 25.0604 359.181 25.1558 358.67C25.9784 358.753 26.846 359.276 27.6542 359.026C28.1124 358.845 28.2715 358.383 27.9366 358.008C27.3149 357.4 26.2501 357.522 25.427 357.332C25.927 354.888 26.831 352.549 27.7013 350.211C29.2769 350.757 30.9837 351.118 32.6648 350.98C33.5367 350.798 34.4885 350.746 35.3695 350.864C36.3491 350.605 36.5758 349.559 36.7044 348.706C36.6864 348.676 36.6663 348.647 36.6444 348.619C38.9085 335.461 47.0311 324.093 56.1387 314.299C58.6467 311.497 61.107 308.584 62.8112 305.256C66.2731 298.301 66.8942 290.476 69.5426 283.249C71.7735 276.688 74.7552 270.396 77.6791 264.095C78.8511 272.394 81.0403 280.557 81.2911 288.973C81.6726 299.621 79.3222 310.113 78.319 320.675C76.8699 331.845 77.6421 343.071 77.55 354.268H77.6127C77.5885 356.968 77.5151 359.785 77.3469 362.477C77.3533 363.461 77.4803 364.388 77.3404 365.373C77.2627 365.918 77.655 366.259 78.0671 366.271C79.5815 367.263 81.4845 367.614 83.2251 368.039C83.7074 368.407 83.499 369.314 83.5842 369.869C83.7712 372.987 84.0182 375.34 83.7139 378.484C82.0113 380.997 80.7846 380.595 80.3109 384.415C80.0499 388.402 79.476 392.714 81.2219 396.333C80.4406 396.511 80.1442 398.891 80.2611 399.521C80.4599 401.297 82.029 401.859 83.5461 402.472C94.6328 406.617 118.189 413.443 129.581 408.749C130.397 409.21 131.307 408.307 131.57 407.579C131.919 406.694 131.598 405.837 131.533 404.958Z" fill="#292929"/>
<path fill-rule="evenodd" clip-rule="evenodd" d="M94.2443 78.7836C93.3708 68.1557 90.7112 58.7432 78.2124 58.3418C72.5721 58.3922 66.8144 59.5878 61.6275 61.8005C49.021 68.1085 45.0211 91.1591 56.1281 100.438C56.1113 100.448 56.0973 100.462 56.0875 100.479C56.0776 100.497 56.0723 100.516 56.0718 100.536C56.0714 100.555 56.0759 100.575 56.085 100.592C56.0941 100.61 56.1074 100.625 56.1238 100.636C58.4185 102.177 60.9694 103.444 63.524 104.509C70.3283 107.38 78.3389 108.627 85.2788 105.513C95.8692 101.016 96.0278 88.5021 94.2443 78.7836Z" fill="white"/>
<path fill-rule="evenodd" clip-rule="evenodd" d="M115.091 73.8307C115.532 73.434 115.852 72.9213 116.015 72.3511C116.166 71.8259 116.176 71.2536 116.017 70.73C115.846 70.1689 115.478 69.722 115.561 69.1373C115.57 69.0805 115.581 69.0205 115.599 68.9605C115.917 67.8608 116.7 67.0672 116.42 65.848C116.349 65.5182 116.199 65.2102 115.984 64.9498C116.007 64.6856 116.028 64.4193 116.044 64.1524C116.504 63.079 116.487 61.8036 115.997 60.7468C115.937 60.2055 115.847 59.6696 115.72 59.1429C115.779 58.6766 115.697 58.1638 115.547 57.7559C115.283 57.0384 114.957 56.3315 114.603 55.6365C114.645 55.4462 114.626 55.2453 114.521 55.0663C114.33 54.7415 114.077 54.4564 113.819 54.1767C113.636 53.8514 113.452 53.5283 113.27 53.2099C113.185 53.0636 113.092 52.9013 112.989 52.7292C113.27 52.2099 113.419 51.7041 113.123 51.0942C113.011 50.8648 112.705 50.6955 112.453 50.7105C112.177 50.7271 111.899 50.7394 111.62 50.7502C111.098 50.1205 110.505 49.5551 109.87 49.2293C109.228 48.6859 108.576 48.1521 107.942 47.6077C107.763 47.4523 107.582 47.2979 107.403 47.1425L107.399 47.1302C107.266 46.6484 107.117 46.1736 106.969 45.6961C106.876 45.4003 106.848 45.0906 106.559 44.9287C105.956 44.5922 105.028 44.5391 104.336 44.4818L104.129 44.3001C104.444 43.4641 104.388 42.5767 103.992 41.7396C103.857 41.455 103.389 41.3269 103.131 41.5145C102.539 41.9491 101.835 42.1029 101.138 42.0397C100.115 41.2546 95.988 37.7048 95.3503 37.3302L95.3278 37.29C94.9898 36.7488 94.5547 36.2748 94.0443 35.8919L93.8347 35.6732C93.8999 35.1866 94.099 34.7276 94.4098 34.3474C94.8653 33.8062 94.3095 33.11 93.6729 33.3935C93.6273 33.4139 93.5813 33.4342 93.5357 33.4557C93.0464 33.6733 92.5052 33.9101 91.9414 34.1095C91.7351 34.0328 91.5245 33.9626 91.3332 33.886L89.2791 33.0618C88.9415 32.9262 88.584 32.811 88.2571 32.6518C88.143 31.8951 87.3831 31.3989 86.5937 31.4246C86.6552 31.2275 86.7573 31.0453 86.8933 30.8898C87.2995 30.4188 86.7571 29.5447 86.1768 29.9643L86.0535 30.0517C85.8922 30.1642 85.7271 30.2708 85.5599 30.3732C85.4218 30.3105 85.2723 30.2764 85.1207 30.273C84.969 30.2696 84.8182 30.297 84.6773 30.3534C83.9801 30.6261 83.3376 30.9027 82.7234 31.3298C82.6988 31.3475 82.6725 31.3619 82.6473 31.378C82.3429 31.0109 81.859 30.7655 81.4233 30.7682H81.3998C81.0739 30.2725 80.477 29.9847 79.9003 30.0549C79.9395 29.3443 79.2267 28.7098 78.5777 28.6326C77.8194 28.5431 77.1362 28.982 76.9084 29.7205L76.7182 30.3368C76.1298 30.0404 75.5081 29.8132 74.8591 29.7001C73.3811 29.4418 71.9364 29.7167 70.5119 30.1262C70.3694 30.1669 70.2274 30.2092 70.0854 30.251C69.8823 30.0163 69.6915 29.7757 69.5093 29.5511C69.1952 29.1637 68.4402 29.474 68.4911 29.9718C68.5264 30.3153 68.3866 30.5624 68.1615 30.7381C67.9144 30.7741 67.6754 30.7853 67.3148 30.7778C66.8384 30.7682 66.6219 30.7532 66.1235 30.5597C65.8914 30.4691 65.6026 30.2323 65.467 30.0195C64.9488 29.2033 63.631 28.9831 63.004 29.7617C62.3433 29.4729 61.5099 29.8711 61.1434 30.4316C60.9515 30.7253 60.5512 30.8893 60.0475 31.0302C59.6697 31.1358 59.2827 31.2156 58.8948 31.2858C58.7217 31.0511 58.3567 30.8946 58.0893 31.0908C57.9082 31.2247 57.7324 31.3614 57.5593 31.5018C56.2217 31.6856 54.8911 31.692 53.6156 31.1717C52.5358 30.7312 51.5444 31.9348 51.7223 32.9455C51.4099 33.1079 51.0707 33.2156 50.7614 33.386C50.084 33.7635 49.5382 34.3391 49.1972 35.0355C49.1366 35.1588 49.0819 35.2842 49.03 35.4106C48.7781 35.6148 48.5289 35.8249 48.2861 36.0467L47.0729 35.4256C46.7701 35.2708 46.2599 35.3785 46.1999 35.7799C46.1018 36.4406 45.8639 36.9878 45.5241 37.4465C44.42 38.0249 43.3561 38.6771 42.3398 39.3988C41.1705 39.7643 39.9267 39.9776 38.9047 40.2182C38.5548 40.3007 38.364 40.7562 38.5612 41.0595C38.7702 41.3811 38.9787 41.7026 39.1861 42.0241C38.6096 42.587 38.0612 43.1779 37.543 43.7948C36.1089 45.4968 34.9085 47.3622 33.8346 49.3386L32.5591 49.852C32.1492 50.0171 31.9648 50.4919 32.2971 50.8413C32.4546 51.0074 32.5961 51.1832 32.7172 51.367C32.1149 52.3616 31.4059 53.2683 30.4145 53.8627C30.1161 54.044 29.8874 54.3205 29.7655 54.6477C29.6626 54.7163 29.5608 54.7903 29.4601 54.8653C29.1803 55.0759 29.011 55.5352 29.3395 55.8085C29.5694 56.0014 29.7859 56.2302 29.9692 56.4832C30.0088 56.6268 30.0495 56.7715 30.0903 56.9151C29.171 57.7531 28.4052 58.7451 27.8272 59.8465C27.6911 59.8251 27.5512 59.839 27.4376 59.9226C26.4092 60.6809 26.3792 61.8893 26.7924 62.9686C26.5432 64.5956 26.7034 66.2633 27.1846 67.8399C26.5523 68.4696 26.1718 69.379 26.0164 70.2552C25.7431 71.7949 25.7238 74.1619 25.652 75.7332C24.9623 76.3977 24.4714 77.2573 24.1975 78.1822L23.5062 78.5252C23.3015 78.6265 23.1515 78.8944 23.1638 79.1206C23.2227 80.2143 23.6745 81.0782 24.2742 81.8606C24.4864 82.4635 24.801 83.0203 25.2131 83.5535C25.4982 83.9195 25.7768 84.27 26.0223 84.665C26.048 84.7041 26.0635 84.7411 26.0748 84.7663C25.9783 84.8708 25.8979 85.0433 25.8283 85.1666C25.2399 86.2003 25.2308 87.412 26.0657 88.3128C25.7516 88.5695 25.7415 89.0877 26.0185 89.405C27.8245 91.4639 29.3304 93.9671 31.8362 95.0608C31.8475 95.0801 31.8577 95.0989 31.8668 95.1182C31.3587 96.3373 31.2901 96.9713 31.7049 98.2312C31.7076 98.2425 31.7114 98.2526 31.7151 98.2639C31.937 98.9247 32.3443 99.9825 33.0784 100.188C33.3099 100.253 33.5377 100.283 33.7633 100.281C34.3458 100.841 34.9278 101.403 35.5093 101.964C35.5602 102.242 35.5918 102.523 35.602 102.806C35.6186 103.28 36.0655 103.664 36.5468 103.524C36.7156 103.474 37.6523 102.566 37.8243 102.571C37.9106 102.658 37.9948 102.744 38.0789 102.831C38.3881 103.156 38.8168 103.666 38.8527 104.005C38.9213 104.644 39.3415 105.376 40.0199 105.505C40.2745 105.763 40.6817 105.84 40.9931 105.504C41.0135 105.482 41.0338 105.46 41.0558 105.442L41.1539 105.43C41.3039 105.877 41.454 106.324 41.6056 106.77C41.902 107.649 43.0349 108.214 43.8393 107.701C43.9689 107.779 44.0959 107.861 44.2235 107.944C44.417 108.067 44.6131 108.193 44.8141 108.311C44.8253 108.344 44.8371 108.377 44.8473 108.408C44.977 108.804 45.5166 109.016 45.8489 108.788C46.496 108.991 47.191 108.982 47.8328 108.763C48.2208 108.631 48.5916 108.378 49.0091 108.344C49.0348 108.342 49.0616 108.344 49.0884 108.343C49.4287 109.039 50.2068 109.639 50.8204 109.843C51.6237 110.11 52.4458 110.015 53.1773 109.688C53.3781 110.087 53.6272 110.46 53.9189 110.799C54.0829 110.99 54.3798 110.949 54.5486 110.799C54.8702 110.515 55.1896 110.229 55.509 109.943C55.7394 109.854 55.9725 109.748 56.2158 109.649C56.9762 109.338 57.8096 109.21 58.5127 108.762C58.8546 108.545 59.1604 108.276 59.4189 107.964C59.9079 107.68 60.3578 107.333 60.757 106.933C60.958 106.934 61.168 106.887 61.3717 106.784C62.2232 106.352 62.6712 105.473 62.7109 104.574C63.4011 102.95 63.81 101.221 63.9199 99.4595C63.9589 98.8779 63.958 98.2944 63.9172 97.713C63.8866 97.3041 63.7837 97.0308 63.6283 96.661C63.5763 96.5462 63.5308 96.4284 63.4922 96.3084C63.5008 95.9172 63.5062 95.526 63.511 95.1359C63.6215 94.7977 63.8124 94.4913 64.0672 94.2431C64.4734 93.8444 64.6594 93.0159 64.2902 92.5234L63.5699 91.5668C63.6374 90.1986 63.9654 88.0218 63.2377 87.793C63.2666 87.5899 63.3293 87.3895 63.3647 87.1874C63.5356 86.2169 63.4338 85.3493 62.9167 84.501C62.8181 84.3434 62.7263 84.1816 62.6418 84.016L62.5008 83.1773C62.4262 82.7444 62.3577 82.3105 62.2956 81.8756C62.2639 81.3194 62.2345 80.7631 62.2029 80.2052C62.173 79.6915 62.1409 79.1779 62.1064 78.6645C62.1203 78.4346 62.1407 78.2047 62.1696 77.9754C62.3443 76.6045 62.9054 76.0976 63.8775 75.1453C64.0303 75.1212 64.1819 75.0944 64.3309 75.0638C65.0243 74.9202 65.75 74.6983 66.4638 74.7782C67.2392 74.8645 67.9327 75.1983 68.6861 74.7718C68.9075 74.6448 69.3951 74.2943 69.4369 74.0162C69.4389 74.0009 69.4427 73.986 69.4482 73.9717C69.5018 73.9639 69.5559 73.9587 69.61 73.9561C70.2081 73.9363 70.7794 74.171 71.3828 74.1062C72.0966 74.0301 72.7359 73.7139 73.1555 73.245C73.6941 73.3774 74.2439 73.4368 74.8029 73.3629C75.2707 73.3023 75.6909 73.1501 76.1056 72.9235C76.4073 72.7611 76.312 72.7145 76.6405 72.8463C77.3875 73.1485 78.0633 73.5472 78.9046 73.3404C79.3409 73.2332 79.7176 72.9985 80.0348 72.6823C80.1099 72.6089 80.2369 72.4985 80.3221 72.394C80.7219 72.596 81.7272 73.0521 81.8928 73.0928C82.3612 73.2069 82.8574 73.1893 83.3129 73.0365C83.6479 72.9251 84.0578 72.6201 84.3515 72.558C84.732 72.4765 85.5771 73.0049 86.0315 73.1866C86.8284 73.5054 87.6719 73.5842 88.479 73.2552C88.7566 73.1426 89.2962 72.6914 89.5036 72.6952C89.8407 73.1105 90.7828 75.3827 91.0652 76.2123C92.2094 79.5654 92.5057 90.0352 91.9779 92.7061C91.9575 92.7849 91.9355 92.8621 91.9141 92.9408C91.2651 95.2639 90.5893 97.6267 89.5036 99.7907C88.479 101.831 87.0626 103.667 85.0299 104.781C82.9223 105.937 80.4486 106.241 78.0783 106.084C76.5526 105.985 75.0521 105.679 73.5757 105.295C72.8054 105.094 72.0395 104.876 71.2783 104.643C70.9466 104.542 70.6089 104.449 70.2831 104.331C69.7081 104.124 69.4064 104.108 68.8555 104.374C68.3539 104.615 68.2253 105.328 68.4862 105.776C68.9112 106.507 69.6904 106.558 70.4423 106.771C71.2086 106.989 71.9771 107.197 72.7509 107.384C74.2337 107.739 75.7407 108.012 77.26 108.138C79.9813 108.366 82.7851 108.015 85.2614 106.83C85.538 106.697 85.8085 106.553 86.0723 106.397C85.9758 106.531 85.8777 106.666 85.7786 106.8C85.5037 107.169 85.7073 107.798 86.0926 108C86.2148 108.063 86.337 108.124 86.4608 108.184C86.4769 108.223 86.4951 108.263 86.5154 108.302C86.8681 109.008 87.606 109.425 88.3584 109.605C89.2517 109.818 90.2517 109.667 91.1606 109.64L93.6868 109.564C93.8857 109.56 94.0839 109.553 94.2828 109.547C95.2827 109.516 96.2822 109.487 97.2811 109.457C98.1718 109.43 98.13 109.498 98.966 109.143C99.3275 108.99 99.6481 108.755 99.9016 108.456C100.062 108.384 100.217 108.303 100.366 108.211C100.845 107.913 101.27 107.515 101.662 107.075C102.327 107.285 103.26 107.09 103.39 106.256C103.599 104.921 105.337 104.351 106.149 103.385C106.805 102.607 107.273 101.587 107.249 100.607C108.901 99.81 109.799 97.7076 110.009 95.9247C110.107 95.0978 110.092 94.2125 110.233 93.3717C110.296 93.3042 110.352 93.2334 110.399 93.1568C110.809 92.4933 111.174 91.8036 111.493 91.092C111.932 90.7755 112.451 90.59 112.991 90.5572C114.33 90.4795 114.582 88.6772 113.305 88.2426L113.288 88.2367C113.634 87.3729 113.605 86.3504 113.185 85.5326C113.203 85.4436 113.219 85.3557 113.236 85.2668C113.952 84.4983 114.363 83.4303 114.317 82.3901C114.65 82.1556 115.02 81.9803 115.412 81.8719C116.032 81.7015 116.035 80.9474 115.577 80.6093C115.399 80.4776 115.243 80.319 115.113 80.1393C115.43 79.1892 115.305 78.0906 114.657 77.3108L115.891 75.7332C116.163 75.3854 116.307 74.7948 115.891 74.4647C115.624 74.2525 115.359 74.0413 115.091 73.8307Z" fill="#292929"/>
<path fill-rule="evenodd" clip-rule="evenodd" d="M81.1449 98.0875C80.2822 97.7362 79.5302 97.1588 78.9681 96.416C78.7741 96.1577 78.7237 95.8855 78.7645 95.6363C78.81 95.356 78.9761 95.102 79.2028 94.9316C79.43 94.7607 79.7146 94.6765 79.989 94.7194C80.228 94.7569 80.4654 94.8871 80.654 95.1578L80.6931 95.2119C81.0208 95.6592 81.452 96.0203 81.9498 96.2644C82.4321 96.5007 82.9716 96.5955 83.5055 96.5377C84.5521 96.4193 85.2735 95.8544 86.0403 95.0876C86.1352 94.9906 86.23 94.8909 86.326 94.7891C86.3819 94.7031 86.4654 94.6388 86.5628 94.6069C86.6694 94.5728 86.7842 94.5745 86.8897 94.6117C86.994 94.6474 87.0842 94.7156 87.147 94.8062C87.2059 94.8925 87.2391 94.9991 87.2284 95.1213C87.1582 95.9166 86.7418 96.6261 86.1502 97.1829C85.4932 97.8019 84.6223 98.2295 83.8024 98.3801C82.8989 98.5452 81.9788 98.4267 81.1449 98.0875ZM84.2285 85.823C85.1893 86.406 86.6539 87.7656 85.6202 89.2109C84.4032 90.4853 82.6508 89.0239 81.7875 88.3631C80.9868 87.8513 80.0871 89.1686 80.8303 89.7666C87.0693 94.3764 89.6014 85.9757 84.7145 85.1375C84.1765 85.0454 83.9766 85.6429 84.2285 85.823ZM73.0475 80.4608C73.1541 79.1451 75.1611 78.8467 75.361 80.1478C75.54 81.3139 75.3293 82.3852 74.8031 83.435C74.3004 84.4377 73.0362 83.9698 72.9409 83.0567C72.8128 81.8327 72.9816 81.2786 73.0475 80.4608ZM88.3281 79.8783C88.6084 79.5122 89.0124 79.2625 89.4963 79.404C91.0092 79.845 90.5633 81.9881 90.0317 83.0309C89.7434 83.5974 88.8104 83.741 88.3886 83.2426C87.7011 82.4291 87.372 80.8048 88.2461 80.0037C88.2697 79.9619 88.2959 79.9201 88.3281 79.8783ZM74.7817 74.7047L75.0207 74.6629C75.7597 74.5354 76.6787 74.4126 77.2018 75.0059C77.4788 75.3204 77.5748 75.9051 77.2018 76.2057C76.5458 76.7357 75.8213 76.5305 75.0351 76.575C74.394 76.6116 73.759 76.7196 73.1418 76.8971C71.7731 77.2872 70.6585 77.9999 69.4897 78.7823C69.3364 78.8852 69.1799 78.6891 69.2528 78.546C69.9275 77.2272 71.2351 76.1441 72.5448 75.4839C73.2436 75.1313 74.0084 74.8387 74.7817 74.7047ZM86.9492 74.1141L87.1325 74.1517C89.1223 74.5664 91.708 75.396 92.6506 77.3467C92.6865 77.6227 92.6485 77.6816 92.6174 77.7202L92.6072 77.7331C92.582 77.7663 92.5617 77.8118 92.4416 77.8493L92.3409 77.8242C91.9089 77.7111 91.567 77.5551 91.2364 77.3938L90.8773 77.2175C90.4615 77.0139 90.0413 76.8177 89.5965 76.6725C88.6474 76.3622 87.6697 76.1468 86.678 76.0294C86.4666 76.0088 86.2644 75.9322 86.0923 75.8076C85.9285 75.6848 85.8127 75.5087 85.7649 75.3097C85.6952 75.0295 85.715 74.8172 85.8662 74.5638C85.9792 74.3735 86.1416 74.2422 86.3281 74.1661C86.5256 74.0885 86.7416 74.0704 86.9492 74.1141Z" fill="#292929"/>
<path fill-rule="evenodd" clip-rule="evenodd" d="M90.8239 91.7042C89.9847 91.5466 89.1171 91.5911 88.2832 91.4078C87.4703 91.2289 86.8245 90.6972 86.0384 90.4497C85.3471 90.2315 84.5368 90.3795 83.9982 90.8017C83.4977 90.5708 82.9291 90.5209 82.36 90.597C81.4972 90.7128 80.6917 91.0772 79.9227 91.4716C79.8337 91.5172 79.7448 91.5606 79.6553 91.6051C78.2346 91.5697 76.7786 91.5724 75.3847 91.8762C74.15 92.1452 72.9834 92.7717 72.247 93.8178C71.4234 94.9892 71.2744 96.4806 71.1474 97.8643C71.0665 98.7427 72.2894 98.9211 72.7036 98.285C73.1329 97.6253 73.5798 96.9646 74.1522 96.4179C74.8027 95.7974 75.5932 95.553 76.4796 95.4962C78.4351 95.3713 80.4039 95.4764 82.3621 95.3896C83.4966 95.3397 84.7603 94.904 85.2179 93.9196C85.7061 94.6827 86.8122 95.1366 87.7222 95.2057C88.6836 95.2786 89.66 95.1045 90.6117 95.3044C91.5211 95.4951 92.6026 96.1709 92.4 97.2523C92.281 97.8874 93.086 98.262 93.4557 97.6966C94.968 95.3869 93.4782 92.202 90.8239 91.7042Z" fill="#292929"/>
<defs>
<clipPath id="clip0_1331_125">
<rect width="120" height="70.3628" fill="white" transform="translate(134.295)"/>
</clipPath>
</defs>
</svg>
