<svg width="51" height="50" viewBox="0 0 51 50" fill="none" xmlns="http://www.w3.org/2000/svg">
<path d="M24.2216 -7.57393e-05C24.2177 3.69411 24.2125 7.38829 24.2098 11.0838C24.2098 11.1451 24.2333 11.2051 24.2503 11.2886C24.7462 11.2886 25.229 11.2886 25.7796 11.2886C25.7796 8.09424 25.7796 4.90114 25.7796 1.67673C27.4317 1.67673 29.0158 1.67673 30.6482 1.67673C30.6482 4.88548 30.6482 8.06814 30.6482 11.2834C31.1911 11.2834 31.6869 11.2834 32.2285 11.2834C32.2285 9.69797 32.2285 8.12687 32.2285 6.51139C33.8583 6.51139 35.4412 6.51139 37.0892 6.51139C37.0892 8.09033 37.0892 9.67448 37.0892 11.3095C37.6464 11.3095 38.1436 11.3095 38.6682 11.3095C38.6682 12.9315 38.6682 14.5013 38.6682 16.1377C38.1279 16.1377 37.5955 16.1129 37.0671 16.1507C36.8752 16.1651 36.626 16.2825 36.5177 16.4339C33.7604 20.3094 32.0588 24.6039 31.4403 29.3224C31.3725 29.8379 31.3242 30.3572 31.2498 30.8726C31.212 31.1336 31.3059 31.2511 31.5304 31.405C32.526 32.0888 33.4525 32.8496 33.4042 34.2262C33.3938 34.5277 33.3129 34.8369 33.2085 35.1227C32.9266 35.9017 33.1628 36.4824 33.9262 36.8204C34.9153 37.2575 35.4372 38.0157 35.4699 39.1014C35.4764 39.3454 35.4738 39.5894 35.4712 39.8334C35.4633 40.9791 34.9348 41.7777 33.8779 42.2292C33.1784 42.528 32.9175 43.1557 33.198 43.8617C33.6286 44.9473 33.4238 45.8986 32.6095 46.7272C32.4842 46.8551 32.3577 46.9817 32.2298 47.1069C31.3907 47.9343 30.4316 48.1574 29.3264 47.6994C28.653 47.4201 28.0162 47.6902 27.7305 48.3662C27.2672 49.4662 26.4308 49.9895 25.2525 49.9986C25.0567 49.9999 24.861 50.0038 24.6666 49.9973C23.5496 49.966 22.7484 49.4571 22.2969 48.4249C21.9693 47.6772 21.3808 47.4175 20.6462 47.7111C19.58 48.1391 18.6418 47.9408 17.8197 47.15C17.6671 47.0039 17.5183 46.8538 17.3695 46.7011C16.5735 45.8816 16.3765 44.9421 16.798 43.876C17.0798 43.1622 16.8293 42.5293 16.139 42.2344C15.0638 41.7764 14.5248 40.9687 14.5301 39.7995C14.5314 39.5881 14.5288 39.3767 14.5314 39.164C14.5431 38.0366 15.0729 37.2536 16.1051 36.806C16.8306 36.4916 17.0838 35.8783 16.7941 35.1397C16.383 34.0931 16.5579 33.1523 17.3487 32.3563C17.7688 31.9335 18.2399 31.5642 18.8454 31.0318C18.5727 29.5116 18.3443 27.8022 17.9489 26.1332C17.1242 22.6465 15.621 19.4534 13.5684 16.5148C13.3661 16.2251 13.1547 16.109 12.8076 16.1285C12.3248 16.1559 11.8407 16.1351 11.3304 16.1351C11.3304 14.5131 11.3304 12.9433 11.3304 11.3187C11.8433 11.3187 12.3404 11.3187 12.8807 11.3187C12.8807 8.62012 12.8807 5.97377 12.8807 3.28306C14.5092 3.28306 16.0933 3.28306 17.7401 3.28306C17.7401 5.93724 17.7401 8.59532 17.7401 11.2821C18.2986 11.2821 18.7932 11.2821 19.3321 11.2821C19.3321 7.50573 19.3321 3.75152 19.3321 -0.00268555C20.9659 -7.57393e-05 22.5944 -7.57393e-05 24.2216 -7.57393e-05ZM24.985 48.3557C25.6792 48.4875 26.0732 48.1835 26.3551 47.5206C26.9032 46.2301 28.5265 45.6298 29.864 46.1883C30.4512 46.4336 30.8414 46.2327 31.2459 45.8229C31.6608 45.4027 31.9479 45.023 31.6726 44.3719C31.0815 42.9743 31.7457 41.3771 33.1406 40.8043C33.7487 40.5537 33.8857 40.1257 33.887 39.5333C33.8883 38.9265 33.763 38.4789 33.1289 38.2192C31.7535 37.6568 31.0893 36.0596 31.6582 34.6908C31.8983 34.1127 31.7574 33.716 31.3411 33.2998C30.8949 32.8548 30.4943 32.5638 29.8066 32.8626C28.5656 33.4029 26.9149 32.8091 26.3982 31.5838C26.0667 30.8009 25.5839 30.596 24.8114 30.6404C24.2751 30.6717 23.9358 30.8439 23.7244 31.3555C23.1463 32.7491 21.5452 33.425 20.1607 32.847C19.5787 32.6043 19.1847 32.7726 18.7749 33.1875C18.3469 33.6208 18.0533 34.007 18.3391 34.679C18.9211 36.0453 18.253 37.6477 16.8841 38.2127C16.2839 38.4607 16.1181 38.8691 16.1155 39.4707C16.1129 40.097 16.2408 40.5524 16.8959 40.8186C18.2425 41.3667 18.9119 42.9743 18.3495 44.3131C18.0872 44.9395 18.2751 45.3414 18.7123 45.7799C19.1599 46.2287 19.567 46.4323 20.2168 46.1557C21.4983 45.6115 23.132 46.2731 23.667 47.548C23.9306 48.1718 24.2986 48.4732 24.985 48.3557ZM34.6608 16.1716C28.1989 16.1716 21.7814 16.1716 15.3391 16.1716C15.8833 17.1229 16.4235 18.0259 16.918 18.9537C17.089 19.276 17.2821 19.3712 17.6344 19.3686C19.9611 19.353 22.289 19.3608 24.6157 19.3608C27.2203 19.3608 29.8235 19.3634 32.4268 19.3543C32.5991 19.353 32.8587 19.3073 32.9279 19.1924C33.5203 18.2059 34.0762 17.2012 34.6608 16.1716ZM19.6479 25.8279C19.8932 27.519 20.1568 29.1528 20.3539 30.7957C20.4191 31.3359 20.7505 31.4507 21.1368 31.4377C21.617 31.4194 22.0581 31.2328 22.2577 30.7187C22.7144 29.5403 23.6057 29.0536 24.8401 29.0223C26.1868 28.9871 27.2372 29.3837 27.7566 30.7317C27.9523 31.2419 28.3999 31.4233 28.884 31.439C29.2833 31.452 29.59 31.3085 29.6539 30.7839C29.8248 29.3811 30.0636 27.9875 30.2803 26.5913C30.3181 26.3446 30.3729 26.0993 30.4251 25.8292C26.7844 25.8279 23.2103 25.8279 19.6479 25.8279ZM32.0406 21.0141C27.3416 21.0141 22.6661 21.0141 17.9646 21.0141C18.3052 21.9628 18.6483 22.871 18.9537 23.7922C19.0568 24.1028 19.1912 24.2215 19.5344 24.2176C21.1616 24.1968 22.7901 24.2085 24.4186 24.2085C26.4373 24.2085 28.456 24.2124 30.4747 24.2007C30.6391 24.1994 30.9053 24.1237 30.9484 24.0128C31.3307 23.0328 31.6739 22.0384 32.0406 21.0141ZM37.0658 14.5078C37.0658 13.9702 37.0658 13.4626 37.0658 12.9498C29.0001 12.9498 20.9711 12.9498 12.9485 12.9498C12.9485 13.4965 12.9485 14.0055 12.9485 14.5078C21.0128 14.5078 29.0289 14.5078 37.0658 14.5078ZM21.0128 1.66237C21.0128 4.89984 21.0128 8.08119 21.0128 11.2834C21.54 11.2834 22.0346 11.2834 22.5383 11.2834C22.5383 8.0577 22.5383 4.8633 22.5383 1.66237C22.015 1.66237 21.5309 1.66237 21.0128 1.66237ZM27.4591 3.26871C27.4591 5.94768 27.4591 8.60316 27.4591 11.2847C27.9784 11.2847 28.473 11.2847 28.9962 11.2847C28.9962 8.60576 28.9962 5.95029 28.9962 3.26871C28.4769 3.26871 27.9823 3.26871 27.4591 3.26871ZM16.0907 11.2886C16.0907 9.13556 16.0907 7.01509 16.0907 4.90375C15.5557 4.90375 15.0612 4.90375 14.5627 4.90375C14.5627 7.04771 14.5627 9.15643 14.5627 11.2886C15.0742 11.2886 15.557 11.2886 16.0907 11.2886ZM33.9118 8.11121C33.9118 9.2008 33.9118 10.2343 33.9118 11.2821C34.4403 11.2821 34.9348 11.2821 35.4346 11.2821C35.4346 10.2043 35.4346 9.15904 35.4346 8.11121C34.9087 8.11121 34.4246 8.11121 33.9118 8.11121Z" fill="url(#paint0_linear_169_971)"/>
<path d="M50.0157 19.7327C49.2393 20.4908 48.4576 21.2451 47.6943 22.0163C47.6186 22.0933 47.6029 22.2864 47.6342 22.4064C48.3206 25.0802 48.5411 27.7918 48.2619 30.536C47.6969 36.0779 45.5516 40.9021 41.6721 44.9278C41.5625 45.0413 41.3733 45.1326 41.2167 45.1392C39.4734 45.2201 37.9519 43.8095 37.9192 42.0583C37.914 41.8038 38.0367 41.4828 38.2115 41.3001C40.5943 38.8339 42.2215 35.9566 43.0214 32.6186C43.5134 30.566 43.6765 28.4899 43.422 26.2716C42.7552 26.9775 42.151 27.6169 41.4568 28.3516C40.7182 24.6561 40.0149 21.142 39.2946 17.5378C40.165 17.7075 40.9557 17.8588 41.7452 18.018C44.3902 18.5491 47.034 19.0828 49.679 19.6126C49.7886 19.6348 49.9035 19.6283 50.0157 19.6348C50.0157 19.6674 50.0157 19.7001 50.0157 19.7327ZM44.3694 22.9493C44.4203 22.9754 44.4711 23.0028 44.522 23.0289C44.6356 23.6657 44.7648 24.2999 44.8613 24.9393C45.8282 31.3268 44.1945 36.9561 39.9209 41.8091C39.4903 42.2984 39.4721 42.5124 39.9275 42.9952C40.0788 43.157 40.272 43.3175 40.4755 43.3802C40.6308 43.4284 40.9035 43.3854 41.0053 43.2732C44.4033 39.5242 46.2367 35.0953 46.6882 30.078C46.9348 27.339 46.6308 24.6535 45.8426 22.0215C45.7604 21.7462 45.8243 21.5648 46.0266 21.3808C46.2576 21.1707 46.4624 20.9306 46.7247 20.6566C44.8992 20.2938 43.1689 19.9493 41.3498 19.5865C41.7152 21.4134 42.0623 23.1515 42.4342 25.0084C43.1297 24.2685 43.7495 23.6096 44.3694 22.9493Z" fill="url(#paint1_linear_169_971)"/>
<path d="M6.72156 35.8078C7.31268 35.1671 7.9038 34.5251 8.56278 33.8113C9.29091 37.452 9.99426 40.9661 10.7133 44.5637C7.13521 43.8486 3.62633 43.1492 0 42.425C0.469765 41.9539 0.876895 41.5494 1.28011 41.141C1.65723 40.7599 2.21703 40.4311 2.35274 39.9757C2.48715 39.5255 2.17788 38.95 2.08524 38.4255C0.772503 31.0358 2.42451 24.3938 7.11694 18.5231C7.46144 18.0911 7.86465 17.7075 8.21437 17.2795C8.44925 16.9924 8.72589 16.9337 9.073 16.9585C10.7367 17.0746 12.0325 18.3861 12.1069 20.0315C12.1212 20.3447 12.0443 20.5757 11.8159 20.808C9.16695 23.5039 7.4771 26.7074 6.78289 30.4251C6.45666 32.1724 6.35358 33.9327 6.57541 35.7008C6.625 35.7387 6.67328 35.7739 6.72156 35.8078ZM5.51974 39.2123C5.43101 38.7582 5.37098 38.4568 5.31357 38.154C4.01649 31.4051 5.55628 25.4143 10.1378 20.256C10.4979 19.8502 10.4562 19.5513 10.1613 19.2121C9.99426 19.0215 9.77634 18.8689 9.56494 18.724C9.34833 18.5753 9.16825 18.6131 8.97774 18.8271C5.6137 22.58 3.779 26.9893 3.32228 31.9871C3.07044 34.7404 3.38101 37.4403 4.1509 40.0944C4.20048 40.2654 4.11958 40.5368 3.99953 40.6777C3.79466 40.9204 3.5128 41.0966 3.26226 41.3015C3.29227 41.3524 3.32359 41.4019 3.3536 41.4528C5.09565 41.8012 6.83639 42.151 8.65673 42.515C8.29397 40.6999 7.94556 38.9566 7.57627 37.1088C6.87554 37.8252 6.23483 38.4803 5.51974 39.2123Z" fill="url(#paint2_linear_169_971)"/>
<path d="M25.8044 33.9078C25.8044 34.4415 25.8044 34.9269 25.8044 35.4019C27.5856 35.9904 28.2355 36.6651 28.1911 37.8799C27.6913 37.8799 27.1902 37.8799 26.6422 37.8799C26.5195 37.1701 26.0015 37.0552 25.3725 37.0983C25.0319 37.1218 24.6887 37.0983 24.3469 37.1035C23.7466 37.1139 23.3969 37.418 23.4034 37.9139C23.4099 38.4071 23.7583 38.6916 24.3717 38.6994C24.7944 38.7046 25.2185 38.6981 25.6413 38.7007C27.0571 38.7111 28.1128 39.622 28.2198 40.9204C28.3255 42.2057 27.4773 43.247 26.098 43.5249C26.0184 43.5406 25.9401 43.5563 25.8162 43.5811C25.8162 44.0808 25.8162 44.5767 25.8162 45.1104C25.2746 45.1104 24.7801 45.1104 24.232 45.1104C24.232 44.6263 24.232 44.1304 24.232 43.5693C23.3891 43.4975 22.6675 43.2065 22.229 42.4993C21.9889 42.113 21.8688 41.6524 21.6653 41.1539C22.3112 41.1539 22.824 41.1539 23.3669 41.1539C23.4935 41.8129 23.9567 41.9669 24.5596 41.9277C24.9158 41.9042 25.276 41.9264 25.6335 41.9225C26.2481 41.9147 26.5939 41.6315 26.6004 41.137C26.607 40.6385 26.2598 40.3358 25.657 40.3266C25.2172 40.3201 24.7775 40.3279 24.3377 40.324C22.9558 40.3123 21.9041 39.4054 21.7853 38.1292C21.6666 36.8425 22.5148 35.7816 23.881 35.5063C23.9763 35.4867 24.0689 35.4632 24.2059 35.4319C24.2059 34.9308 24.2059 34.4324 24.2059 33.9065C24.7488 33.9078 25.2433 33.9078 25.8044 33.9078Z" fill="url(#paint3_linear_169_971)"/>
<defs>
<linearGradient id="paint0_linear_169_971" x1="24.9993" y1="-0.00268555" x2="24.9993" y2="50.001" gradientUnits="userSpaceOnUse">
<stop stop-color="#20D4FE"/>
<stop offset="1" stop-color="#B722FF"/>
</linearGradient>
<linearGradient id="paint1_linear_169_971" x1="43.9674" y1="17.5378" x2="43.9674" y2="45.1425" gradientUnits="userSpaceOnUse">
<stop stop-color="#20D4FE"/>
<stop offset="1" stop-color="#B722FF"/>
</linearGradient>
<linearGradient id="paint2_linear_169_971" x1="6.05428" y1="16.9534" x2="6.05428" y2="44.5637" gradientUnits="userSpaceOnUse">
<stop stop-color="#20D4FE"/>
<stop offset="1" stop-color="#B722FF"/>
</linearGradient>
<linearGradient id="paint3_linear_169_971" x1="24.947" y1="33.9065" x2="24.947" y2="45.1104" gradientUnits="userSpaceOnUse">
<stop stop-color="#20D4FE"/>
<stop offset="1" stop-color="#B722FF"/>
</linearGradient>
</defs>
</svg>
