<svg width="34" height="30" viewBox="0 0 34 30" fill="none" xmlns="http://www.w3.org/2000/svg">
<g clip-path="url(#clip0_175_50)">
<path d="M7.65163 22.1058C7.65163 22.1058 1.93336 19.9608 0.709024 25.5249L1.91737 25.2841C1.91737 25.2841 0.501207 26.9119 0 30C3.07024 29.4019 4.65379 27.9369 4.65379 27.9369L4.45068 29.1518C9.97429 27.7544 7.65163 22.1058 7.65163 22.1058Z" fill="url(#paint0_linear_175_50)"/>
<path d="M7.65163 22.1058C7.65163 22.1058 4.08489 20.7676 3.32132 24.2385L4.07454 24.088C4.07454 24.088 3.19155 25.1036 2.87842 27.0294C4.79391 26.6561 5.78128 25.7421 5.78128 25.7421L5.65433 26.5C9.10071 25.6293 7.65163 22.1058 7.65163 22.1058Z" fill="url(#paint1_linear_175_50)"/>
<path d="M11.6933 21.8218L7.79175 17.9607L8.86657 16.8793L12.769 20.7404L11.6933 21.8218Z" fill="url(#paint2_linear_175_50)"/>
<path d="M10.7529 11.7544C10.7529 11.7544 7.1288 11.4864 5.6421 12.9825C4.03786 14.5961 2.70915 16.5709 1.63527 19.3928C1.0626 20.8983 2.57468 19.3421 3.57803 18.4252C5.33367 16.82 6.19973 16.853 7.87167 17.2357C7.87073 17.2357 8.77253 15.3907 10.7529 11.7544Z" fill="url(#paint3_linear_175_50)"/>
<path opacity="0.33" d="M10.7529 11.7544C10.7529 11.7544 7.12879 11.4864 5.6421 12.9825C4.03786 14.5961 2.70914 16.5709 1.63526 19.3928C1.52806 19.675 1.49421 19.8499 1.51584 19.9411C1.51584 19.9411 3.05801 16.3659 4.74876 14.6168C6.43951 12.8678 7.56511 12.2133 10.7529 11.7544Z" fill="white"/>
<path d="M17.9109 18.8362C17.9109 18.8362 18.2099 22.4499 16.7232 23.946C15.1199 25.5606 13.1518 26.9025 10.3326 27.997C8.82804 28.581 10.3759 27.0595 11.2861 26.0505C12.88 24.2855 12.8405 23.4213 12.4418 21.7569C12.4418 21.7578 14.283 20.8429 17.9109 18.8362Z" fill="url(#paint4_linear_175_50)"/>
<path d="M29.3239 5.20108C29.9266 1.2958 29.1584 0.377079 29.1584 0.377079C29.1584 0.377079 28.2312 -0.381783 24.3222 0.252953C20.1931 0.922483 17.5723 3.46143 15.7875 5.22553C13.479 7.5087 9.67056 12.7634 7.87073 17.2357L10.168 19.485L12.4418 21.7578C16.9094 19.9241 22.1424 16.0809 24.4115 13.7583C26.1652 11.9622 28.6873 9.3264 29.3239 5.20108Z" fill="url(#paint5_linear_175_50)"/>
<path d="M8.45374 17.8065L10.168 19.485L12.4418 21.7578C16.9094 19.9241 22.1424 16.0809 24.4115 13.7583C26.1652 11.9631 28.6873 9.3264 29.3239 5.20202C29.9266 1.29674 29.1584 0.378021 29.1584 0.378021" fill="url(#paint6_linear_175_50)"/>
<path opacity="0.09" d="M8.19604 17.5535L12.107 21.424" stroke="black" stroke-width="1.8919" stroke-miterlimit="10"/>
<path d="M7.87073 17.2357L10.168 19.485L12.4418 21.7578C13.3445 21.3873 14.2792 20.9341 15.2139 20.4282L9.18064 14.4598C8.68131 15.3954 8.23464 16.332 7.87073 17.2357Z" fill="url(#paint7_linear_175_50)"/>
<path d="M13.9971 15.8788L12.4418 21.7578L11.9979 21.4663L11.6932 21.8218L10.1783 20.3229L13.9971 15.8788Z" fill="url(#paint8_linear_175_50)"/>
<path d="M20.9293 1.3212L28.2819 8.59575" stroke="#5E9CDC" stroke-width="1.8919" stroke-miterlimit="10"/>
<path d="M29.1583 0.377079C29.1583 0.377079 28.2311 -0.381784 24.3221 0.252953C23.0555 0.45795 21.9317 0.839732 20.9293 1.32119L28.2819 8.59574C28.7559 7.59145 29.1282 6.46679 29.3238 5.20108C29.9256 1.2958 29.1583 0.377079 29.1583 0.377079Z" fill="url(#paint9_linear_175_50)"/>
<path d="M28.312 10.1652L19.4604 1.49422L19.8338 1.11244L28.6853 9.78341L28.312 10.1652Z" fill="url(#paint10_linear_175_50)"/>
<path d="M27.7685 10.8695L18.917 2.19855L19.1662 1.94466L28.0177 10.6156L27.7685 10.8695Z" fill="url(#paint11_linear_175_50)"/>
<path opacity="0.09" d="M9.17969 14.4588L15.213 20.4282" stroke="black" stroke-width="1.8919" stroke-miterlimit="10"/>
<path d="M13.966 15.6634C13.966 15.6634 13.6294 15.1415 10.3739 18.4177C7.1184 21.6929 4.34249 24.8309 4.60108 25.0867C4.85968 25.3424 7.9807 22.5458 11.2362 19.2706C14.4917 15.9954 13.966 15.6634 13.966 15.6634Z" fill="url(#paint12_linear_175_50)"/>
<path opacity="0.33" d="M13.966 15.6634C13.966 15.6634 13.6294 15.1415 10.3739 18.4177C7.1184 21.6929 4.34249 24.8309 4.60108 25.0867C4.60108 25.0867 5.51134 23.7786 7.95437 21.1767C10.3974 18.5747 13.1987 15.7311 13.966 15.6634Z" fill="white"/>
<path d="M18.7938 14.913C21.0311 14.913 22.8448 13.0993 22.8448 10.862C22.8448 8.62467 21.0311 6.81096 18.7938 6.81096C16.5565 6.81096 14.7428 8.62467 14.7428 10.862C14.7428 13.0993 16.5565 14.913 18.7938 14.913Z" fill="url(#paint13_linear_175_50)"/>
<path d="M18.7752 14.7692C21 14.7624 22.7981 12.9533 22.7914 10.7285C22.7846 8.5036 20.9755 6.70549 18.7506 6.71226C16.5258 6.71904 14.7277 8.52814 14.7344 10.753C14.7412 12.9779 16.5503 14.776 18.7752 14.7692Z" fill="#D4D4D4"/>
<path d="M18.8127 14.7701C21.0105 14.7701 22.7922 12.9884 22.7922 10.7905C22.7922 8.59267 21.0105 6.81096 18.8127 6.81096C16.6148 6.81096 14.8331 8.59267 14.8331 10.7905C14.8331 12.9884 16.6148 14.7701 18.8127 14.7701Z" fill="url(#paint14_linear_175_50)"/>
<path d="M18.7588 13.8506C20.4763 13.8406 21.8604 12.4401 21.8503 10.7227C21.8403 9.00521 20.4399 7.62108 18.7224 7.63113C17.0049 7.64118 15.6208 9.0416 15.6309 10.7591C15.6409 12.4765 17.0413 13.8607 18.7588 13.8506Z" fill="#76C9F0"/>
<path d="M18.7638 13.7846C20.4116 13.7846 21.7475 12.4487 21.7475 10.8009C21.7475 9.15299 20.4116 7.81712 18.7638 7.81712C17.1159 7.81712 15.78 9.15299 15.78 10.8009C15.78 12.4487 17.1159 13.7846 18.7638 13.7846Z" fill="url(#paint15_linear_175_50)"/>
<path d="M21.5124 8.44153L14.8989 11.3623L15.3729 12.4361L21.9863 9.51541L21.5124 8.44153Z" fill="url(#paint16_linear_175_50)"/>
<path d="M22.1726 10.1022L15.5591 13.0229L15.797 13.5636L22.4105 10.6419L22.1726 10.1022Z" fill="url(#paint17_linear_175_50)"/>
<path d="M16.223 8.49982C16.2428 8.40766 16.1835 8.31833 16.0914 8.29858C15.9992 8.27884 15.9099 8.33808 15.8902 8.43023C15.8704 8.52239 15.9296 8.61172 16.0218 8.63147C16.113 8.65027 16.2033 8.59197 16.223 8.49982Z" fill="#A3A3A3"/>
<path d="M15.6325 9.42983C15.6522 9.33767 15.593 9.24834 15.5008 9.22859C15.4087 9.20884 15.3193 9.26809 15.2996 9.36024C15.2798 9.45239 15.3391 9.54173 15.4312 9.56147C15.5224 9.58122 15.6127 9.52198 15.6325 9.42983Z" fill="#A3A3A3"/>
<path d="M16.8926 7.85756C16.9123 7.76541 16.8531 7.67607 16.7609 7.65632C16.6688 7.63658 16.5795 7.69582 16.5597 7.78797C16.54 7.88013 16.5992 7.96946 16.6914 7.98921C16.7826 8.00802 16.8728 7.94877 16.8926 7.85756Z" fill="#A3A3A3"/>
<path d="M15.4801 11.4459C15.4199 11.3735 15.3127 11.3641 15.2413 11.4243C15.1689 11.4845 15.1595 11.5917 15.2196 11.6632C15.2798 11.7356 15.387 11.745 15.4585 11.6848C15.53 11.6255 15.5394 11.5183 15.4801 11.4459Z" fill="#A3A3A3"/>
<path d="M15.8432 12.4869C15.783 12.4145 15.6758 12.4051 15.6043 12.4653C15.5319 12.5255 15.5225 12.6327 15.5827 12.7041C15.6429 12.7765 15.7501 12.7859 15.8215 12.7258C15.893 12.6656 15.9033 12.5584 15.8432 12.4869Z" fill="#A3A3A3"/>
<path d="M15.4105 10.357C15.3504 10.2846 15.2432 10.2752 15.1717 10.3354C15.0993 10.3956 15.0899 10.5028 15.1501 10.5742C15.2102 10.6457 15.3174 10.656 15.3889 10.5959C15.4613 10.5366 15.4707 10.4294 15.4105 10.357Z" fill="#A3A3A3"/>
<path d="M17.264 13.8655C17.17 13.8683 17.0966 13.9473 17.0994 14.0404C17.1023 14.1344 17.1813 14.2078 17.2743 14.2049C17.3684 14.2021 17.4417 14.1231 17.4389 14.03C17.4361 13.936 17.358 13.8617 17.264 13.8655Z" fill="#A3A3A3"/>
<path d="M18.3077 14.2181C18.2137 14.2209 18.1403 14.2999 18.1431 14.393C18.146 14.487 18.225 14.5604 18.3181 14.5576C18.4121 14.5547 18.4854 14.4758 18.4826 14.3827C18.4807 14.2886 18.4017 14.2153 18.3077 14.2181Z" fill="#A3A3A3"/>
<path d="M16.3631 13.2495C16.2691 13.2524 16.1957 13.3313 16.1986 13.4244C16.2014 13.5185 16.2804 13.5918 16.3735 13.589C16.4666 13.5862 16.5409 13.5072 16.538 13.4141C16.5352 13.3201 16.4572 13.2467 16.3631 13.2495Z" fill="#A3A3A3"/>
<path d="M20.291 13.9247C20.2355 13.9999 20.2515 14.1062 20.3267 14.1626C20.402 14.2181 20.5082 14.2021 20.5646 14.1269C20.6201 14.0516 20.6041 13.9454 20.5289 13.889C20.4527 13.8335 20.3465 13.8485 20.291 13.9247Z" fill="#A3A3A3"/>
<path d="M21.1617 13.3332C21.1062 13.4084 21.1222 13.5147 21.1975 13.5711C21.2727 13.6266 21.3789 13.6106 21.4354 13.5354C21.4908 13.4602 21.4749 13.3539 21.3996 13.2975C21.3244 13.2411 21.2181 13.257 21.1617 13.3332Z" fill="#A3A3A3"/>
<path d="M19.2613 14.2134C19.2058 14.2886 19.2218 14.3949 19.2971 14.4513C19.3723 14.5068 19.4785 14.4908 19.535 14.4156C19.5905 14.3403 19.5745 14.2341 19.4992 14.1777C19.4231 14.1222 19.3168 14.1382 19.2613 14.2134Z" fill="#A3A3A3"/>
<path d="M22.0663 11.6331C22.0889 11.7243 22.181 11.7798 22.2722 11.7572C22.3635 11.7346 22.4189 11.6425 22.3964 11.5513C22.3738 11.46 22.2816 11.4046 22.1904 11.4271C22.0992 11.4497 22.0437 11.5419 22.0663 11.6331Z" fill="#A3A3A3"/>
<path d="M22.1811 10.6241C22.2036 10.7153 22.2958 10.7708 22.387 10.7482C22.4782 10.7256 22.5337 10.6335 22.5111 10.5423C22.4885 10.451 22.3964 10.3956 22.3052 10.4181C22.214 10.4407 22.1585 10.5329 22.1811 10.6241Z" fill="#A3A3A3"/>
<path d="M21.7202 12.6421C21.7428 12.7333 21.835 12.7888 21.9262 12.7662C22.0174 12.7436 22.0729 12.6515 22.0503 12.5602C22.0277 12.469 21.9356 12.4136 21.8444 12.4361C21.7532 12.4587 21.6977 12.5508 21.7202 12.6421Z" fill="#A3A3A3"/>
<path d="M21.5952 8.76312C21.6807 8.80167 21.7814 8.76312 21.8199 8.67755C21.8585 8.59197 21.8199 8.49136 21.7343 8.4528C21.6488 8.41425 21.5481 8.4528 21.5096 8.53837C21.471 8.62395 21.5096 8.72456 21.5952 8.76312Z" fill="#A3A3A3"/>
<path d="M20.8242 7.9958C20.9097 8.03435 21.0104 7.9958 21.0489 7.91023C21.0875 7.82466 21.0489 7.72404 20.9633 7.68548C20.8778 7.64693 20.7772 7.68548 20.7386 7.77105C20.7 7.85663 20.7386 7.95724 20.8242 7.9958Z" fill="#A3A3A3"/>
<path d="M22.0466 9.71005C22.1322 9.7486 22.2328 9.71005 22.2713 9.62448C22.3099 9.5389 22.2713 9.43829 22.1858 9.39973C22.1002 9.36118 21.9996 9.39973 21.961 9.4853C21.9225 9.57088 21.961 9.67149 22.0466 9.71005Z" fill="#A3A3A3"/>
<path d="M18.9185 7.25992C18.9432 7.16924 18.8898 7.07567 18.7991 7.05093C18.7084 7.02618 18.6148 7.07964 18.5901 7.17032C18.5653 7.26101 18.6188 7.35457 18.7095 7.37932C18.8002 7.40406 18.8937 7.3506 18.9185 7.25992Z" fill="#A3A3A3"/>
<path d="M17.7793 7.54912C17.862 7.50587 17.895 7.40337 17.8508 7.31968C17.8075 7.23693 17.705 7.20401 17.6213 7.24821C17.5386 7.29147 17.5057 7.39396 17.5498 7.47766C17.5931 7.56041 17.6956 7.59238 17.7793 7.54912Z" fill="#A3A3A3"/>
<path d="M20.0095 7.43713C20.0472 7.35101 20.0079 7.25065 19.9218 7.21297C19.8356 7.1753 19.7353 7.21457 19.6976 7.30069C19.6599 7.38682 19.6992 7.48718 19.7853 7.52485C19.8715 7.56253 19.9718 7.52325 20.0095 7.43713Z" fill="#A3A3A3"/>
<path d="M16.1873 8.46408C16.207 8.37193 16.1478 8.28259 16.0556 8.26285C15.9635 8.2431 15.8741 8.30234 15.8544 8.39449C15.8346 8.48665 15.8939 8.57598 15.986 8.59573C16.0772 8.61454 16.1675 8.55624 16.1873 8.46408Z" fill="#D4D4D4"/>
<path d="M15.5967 9.39409C15.6164 9.30193 15.5572 9.2126 15.465 9.19285C15.3729 9.17311 15.2836 9.23235 15.2638 9.3245C15.2441 9.41666 15.3033 9.50599 15.3955 9.52574C15.4867 9.54549 15.5769 9.48624 15.5967 9.39409Z" fill="#D4D4D4"/>
<path d="M16.8568 7.82182C16.8766 7.72967 16.8173 7.64034 16.7252 7.62059C16.633 7.60084 16.5437 7.66008 16.5239 7.75224C16.5042 7.84439 16.5634 7.93373 16.6556 7.95347C16.7468 7.97228 16.8371 7.91304 16.8568 7.82182Z" fill="#D4D4D4"/>
<path d="M15.4444 11.4102C15.3842 11.3378 15.277 11.3284 15.2055 11.3886C15.1331 11.4488 15.1237 11.556 15.1839 11.6274C15.2441 11.6998 15.3513 11.7092 15.4227 11.649C15.4942 11.5889 15.5036 11.4826 15.4444 11.4102Z" fill="#D4D4D4"/>
<path d="M15.8073 12.4512C15.7471 12.3788 15.6399 12.3694 15.5685 12.4295C15.497 12.4897 15.4867 12.5969 15.5468 12.6684C15.607 12.7408 15.7142 12.7502 15.7857 12.69C15.8572 12.6298 15.8675 12.5226 15.8073 12.4512Z" fill="#D4D4D4"/>
<path d="M15.3748 10.3213C15.3146 10.2489 15.2074 10.2395 15.1359 10.2997C15.0635 10.3598 15.0541 10.467 15.1143 10.5385C15.1745 10.6109 15.2817 10.6203 15.3531 10.5601C15.4255 10.5009 15.435 10.3937 15.3748 10.3213Z" fill="#D4D4D4"/>
<path d="M17.2282 13.8297C17.1342 13.8325 17.0609 13.9115 17.0637 14.0046C17.0665 14.0987 17.1455 14.172 17.2386 14.1692C17.3326 14.1664 17.406 14.0874 17.4031 13.9943C17.4003 13.9003 17.3223 13.826 17.2282 13.8297Z" fill="#D4D4D4"/>
<path d="M18.2719 14.1824C18.1779 14.1852 18.1046 14.2642 18.1074 14.3573C18.1102 14.4513 18.1892 14.5246 18.2823 14.5218C18.3763 14.519 18.4497 14.44 18.4468 14.3469C18.445 14.2529 18.366 14.1795 18.2719 14.1824Z" fill="#D4D4D4"/>
<path d="M16.3274 13.2138C16.2333 13.2166 16.16 13.2956 16.1628 13.3887C16.1656 13.4827 16.2446 13.5561 16.3377 13.5533C16.4317 13.5504 16.5051 13.4714 16.5023 13.3784C16.4994 13.2843 16.4214 13.211 16.3274 13.2138Z" fill="#D4D4D4"/>
<path d="M20.2552 13.889C20.1997 13.9642 20.2157 14.0705 20.291 14.1269C20.3662 14.1824 20.4724 14.1664 20.5289 14.0911C20.5843 14.0159 20.5684 13.9097 20.4931 13.8532C20.417 13.7977 20.3107 13.8128 20.2552 13.889Z" fill="#D4D4D4"/>
<path d="M21.126 13.2975C21.0705 13.3727 21.0865 13.479 21.1617 13.5354C21.2369 13.5909 21.3432 13.5749 21.3996 13.4997C21.4551 13.4244 21.4391 13.3182 21.3639 13.2618C21.2886 13.2053 21.1824 13.2213 21.126 13.2975Z" fill="#D4D4D4"/>
<path d="M19.2256 14.1777C19.1701 14.2529 19.1861 14.3591 19.2613 14.4156C19.3365 14.4711 19.4428 14.4551 19.4992 14.3798C19.5547 14.3046 19.5387 14.1983 19.4635 14.1419C19.3873 14.0864 19.281 14.1024 19.2256 14.1777Z" fill="#D4D4D4"/>
<path d="M22.0305 11.5973C22.0531 11.6885 22.1453 11.744 22.2365 11.7215C22.3277 11.6989 22.3832 11.6067 22.3606 11.5155C22.338 11.4243 22.2459 11.3688 22.1547 11.3914C22.0635 11.414 22.008 11.5061 22.0305 11.5973Z" fill="#D4D4D4"/>
<path d="M22.1453 10.5883C22.1679 10.6795 22.26 10.735 22.3512 10.7125C22.4424 10.6899 22.4979 10.5977 22.4754 10.5065C22.4528 10.4153 22.3606 10.3598 22.2694 10.3824C22.1782 10.405 22.1227 10.4971 22.1453 10.5883Z" fill="#D4D4D4"/>
<path d="M21.6845 12.6063C21.707 12.6976 21.7992 12.753 21.8904 12.7305C21.9816 12.7079 22.0371 12.6157 22.0145 12.5245C21.992 12.4333 21.8998 12.3778 21.8086 12.4004C21.7174 12.423 21.6619 12.5151 21.6845 12.6063Z" fill="#D4D4D4"/>
<path d="M21.5594 8.72738C21.645 8.76594 21.7456 8.72738 21.7841 8.64181C21.8227 8.55624 21.7841 8.45562 21.6986 8.41707C21.613 8.37851 21.5124 8.41707 21.4738 8.50264C21.4353 8.58821 21.4738 8.68883 21.5594 8.72738Z" fill="#D4D4D4"/>
<path d="M21.0115 7.88001C21.053 7.79571 21.0184 7.69365 20.9341 7.65206C20.8498 7.61046 20.7478 7.64508 20.7062 7.72938C20.6646 7.81368 20.6992 7.91574 20.7835 7.95733C20.8678 7.99893 20.9699 7.96431 21.0115 7.88001Z" fill="#D4D4D4"/>
<path d="M22.0108 9.67431C22.0964 9.71287 22.197 9.67431 22.2356 9.58874C22.2741 9.50317 22.2356 9.40255 22.15 9.364C22.0644 9.32544 21.9638 9.364 21.9252 9.44957C21.8867 9.53514 21.9252 9.63576 22.0108 9.67431Z" fill="#D4D4D4"/>
<path d="M18.8821 7.22374C18.9068 7.13306 18.8534 7.03949 18.7627 7.01475C18.672 6.99001 18.5784 7.04346 18.5537 7.13414C18.529 7.22483 18.5824 7.3184 18.6731 7.34314C18.7638 7.36788 18.8574 7.31442 18.8821 7.22374Z" fill="#D4D4D4"/>
<path d="M17.7435 7.51339C17.8263 7.47013 17.8592 7.36763 17.815 7.28394C17.7717 7.20119 17.6692 7.16828 17.5855 7.21247C17.5028 7.25573 17.4699 7.35823 17.5141 7.44192C17.5573 7.52467 17.6598 7.55664 17.7435 7.51339Z" fill="#D4D4D4"/>
<path d="M19.9747 7.40235C20.0124 7.31623 19.9731 7.21587 19.887 7.1782C19.8009 7.14052 19.7005 7.1798 19.6628 7.26592C19.6251 7.35204 19.6644 7.4524 19.7505 7.49008C19.8367 7.52775 19.937 7.48848 19.9747 7.40235Z" fill="#D4D4D4"/>
<path d="M16.1203 8.30555L15.8962 8.52963L15.9202 8.55357L16.1443 8.32949L16.1203 8.30555Z" fill="#B9B9B9"/>
<path d="M15.5296 9.23556L15.3055 9.45964L15.3295 9.48358L15.5536 9.2595L15.5296 9.23556Z" fill="#B9B9B9"/>
<path d="M16.7901 7.66321L16.566 7.88728L16.59 7.91122L16.8141 7.68714L16.7901 7.66321Z" fill="#B9B9B9"/>
<path d="M15.4132 11.3955L15.1891 11.6195L15.213 11.6435L15.4371 11.4194L15.4132 11.3955Z" fill="#B9B9B9"/>
<path d="M15.776 12.4354L15.5519 12.6595L15.5758 12.6834L15.7999 12.4594L15.776 12.4354Z" fill="#B9B9B9"/>
<path d="M15.3444 10.3063L15.1204 10.5303L15.1443 10.5543L15.3684 10.3302L15.3444 10.3063Z" fill="#B9B9B9"/>
<path d="M17.3332 13.8755L17.1091 14.0995L17.1331 14.1235L17.3571 13.8994L17.3332 13.8755Z" fill="#B9B9B9"/>
<path d="M18.3779 14.2283L18.1538 14.4524L18.1777 14.4763L18.4018 14.2523L18.3779 14.2283Z" fill="#B9B9B9"/>
<path d="M16.4325 13.2602L16.2084 13.4843L16.2323 13.5082L16.4564 13.2841L16.4325 13.2602Z" fill="#B9B9B9"/>
<path d="M20.4909 13.8659L20.2668 14.0899L20.2908 14.1139L20.5149 13.8898L20.4909 13.8659Z" fill="#B9B9B9"/>
<path d="M21.3625 13.2738L21.1384 13.4979L21.1624 13.5218L21.3864 13.2978L21.3625 13.2738Z" fill="#B9B9B9"/>
<path d="M19.4622 14.1549L19.2382 14.379L19.2621 14.403L19.4862 14.1789L19.4622 14.1549Z" fill="#B9B9B9"/>
<path d="M22.2957 11.4329L22.0717 11.657L22.0956 11.6809L22.3197 11.4568L22.2957 11.4329Z" fill="#B9B9B9"/>
<path d="M22.4091 10.4235L22.1851 10.6476L22.209 10.6715L22.4331 10.4474L22.4091 10.4235Z" fill="#B9B9B9"/>
<path d="M21.9497 12.4425L21.7256 12.6666L21.7495 12.6905L21.9736 12.4664L21.9497 12.4425Z" fill="#B9B9B9"/>
<path d="M21.7288 8.44851L21.5048 8.67259L21.5287 8.69653L21.7528 8.47245L21.7288 8.44851Z" fill="#B9B9B9"/>
<path d="M20.9574 7.68101L20.7333 7.90509L20.7572 7.92903L20.9813 7.70495L20.9574 7.68101Z" fill="#B9B9B9"/>
<path d="M22.1799 9.39534L21.9558 9.61942L21.9797 9.64335L22.2038 9.41927L22.1799 9.39534Z" fill="#B9B9B9"/>
<path d="M18.8181 7.05479L18.594 7.27887L18.6179 7.30281L18.842 7.07873L18.8181 7.05479Z" fill="#B9B9B9"/>
<path d="M17.764 7.23935L17.5399 7.46342L17.5639 7.48736L17.7879 7.26328L17.764 7.23935Z" fill="#B9B9B9"/>
<path d="M19.9173 7.21035L19.6932 7.43443L19.7172 7.45837L19.9413 7.23429L19.9173 7.21035Z" fill="#B9B9B9"/>
<path opacity="0.33" d="M29.1584 0.377079C29.1584 0.377079 28.2312 -0.381784 24.3222 0.252953C20.1931 0.922483 17.5723 3.46143 15.7875 5.22553C13.479 7.5087 9.67056 12.7634 7.87073 17.2357C7.87073 17.2357 16.1787 -0.193713 29.1584 0.377079Z" fill="white"/>
<path opacity="0.33" d="M8.34655 17.6983L7.93562 18.1018L7.79175 17.9607L8.1961 17.5535L8.34655 17.6983Z" fill="white"/>
<path d="M12.4418 21.7578L12.769 22.9483C12.769 22.9483 15.9568 21.377 17.9108 18.8362C17.9108 18.8362 14.3827 20.9519 12.4418 21.7578Z" fill="url(#paint18_linear_175_50)"/>
<path opacity="0.33" d="M10.9974 26.5357C11.9772 25.5757 12.3449 24.6485 12.4088 24.4717C12.3938 24.5093 12.3609 24.5817 12.2894 24.703C12.0713 25.1045 11.7468 25.5399 11.2851 26.0515C10.6965 26.7031 9.84356 27.5683 9.7185 27.9425C9.69499 28.0215 9.70721 28.0732 9.74295 28.1052C9.74295 28.1052 9.74295 28.1052 9.74389 28.1061C9.74483 28.1033 9.91033 27.6012 10.9974 26.5357Z" fill="white"/>
</g>
<defs>
<linearGradient id="paint0_linear_175_50" x1="-2.16337" y1="31.6346" x2="7.5443" y2="22.4906" gradientUnits="userSpaceOnUse">
<stop stop-color="#FF8533"/>
<stop offset="0.9964" stop-color="#FFD052"/>
</linearGradient>
<linearGradient id="paint1_linear_175_50" x1="2.2733" y1="27.4917" x2="8.25703" y2="21.6045" gradientUnits="userSpaceOnUse">
<stop offset="0.00355872" stop-color="#FFD052"/>
<stop offset="1" stop-color="#FFE9AE"/>
</linearGradient>
<linearGradient id="paint2_linear_175_50" x1="13.4476" y1="24.5278" x2="7.84593" y2="15.3713" gradientUnits="userSpaceOnUse">
<stop stop-color="#2965A1"/>
<stop offset="1" stop-color="#2868A6"/>
</linearGradient>
<linearGradient id="paint3_linear_175_50" x1="5.0914" y1="14.667" x2="14.0678" y2="24.9258" gradientUnits="userSpaceOnUse">
<stop offset="0.00355872" stop-color="#F02E54"/>
<stop offset="1" stop-color="#8F1931"/>
</linearGradient>
<linearGradient id="paint4_linear_175_50" x1="14.5933" y1="27.4002" x2="11.7084" y2="12.8626" gradientUnits="userSpaceOnUse">
<stop offset="0.00355872" stop-color="#F02E54"/>
<stop offset="1" stop-color="#8F1931"/>
</linearGradient>
<linearGradient id="paint5_linear_175_50" x1="17.2255" y1="5.73351" x2="23.8664" y2="21.4179" gradientUnits="userSpaceOnUse">
<stop offset="0.00355872" stop-color="#E2E2E2"/>
<stop offset="1" stop-color="white"/>
</linearGradient>
<linearGradient id="paint6_linear_175_50" x1="18.1324" y1="7.4725" x2="23.7662" y2="20.7786" gradientUnits="userSpaceOnUse">
<stop offset="0.00355872" stop-color="white"/>
<stop offset="1" stop-color="#F9F9F9"/>
</linearGradient>
<linearGradient id="paint7_linear_175_50" x1="7.53736" y1="13.8906" x2="13.5312" y2="21.2859" gradientUnits="userSpaceOnUse">
<stop stop-color="#2363A5"/>
<stop offset="1" stop-color="#346FAD"/>
</linearGradient>
<linearGradient id="paint8_linear_175_50" x1="11.8975" y1="17.5134" x2="13.124" y2="21.2952" gradientUnits="userSpaceOnUse">
<stop stop-color="#1D262D"/>
<stop offset="1" stop-color="#1D262D" stop-opacity="0"/>
</linearGradient>
<linearGradient id="paint9_linear_175_50" x1="25.1574" y1="1.62921" x2="37.5512" y2="11.5694" gradientUnits="userSpaceOnUse">
<stop offset="0.00355872" stop-color="#5A99DA"/>
<stop offset="1" stop-color="#7DB2E8"/>
</linearGradient>
<linearGradient id="paint10_linear_175_50" x1="40.9829" y1="23.1727" x2="18.0384" y2="-0.618109" gradientUnits="userSpaceOnUse">
<stop stop-color="#68A4E1"/>
<stop offset="0.9964" stop-color="#5996D5"/>
</linearGradient>
<linearGradient id="paint11_linear_175_50" x1="40.2855" y1="23.8454" x2="17.341" y2="0.0545843" gradientUnits="userSpaceOnUse">
<stop stop-color="#4C8CCE"/>
<stop offset="0.9964" stop-color="#7DB3E9"/>
</linearGradient>
<linearGradient id="paint12_linear_175_50" x1="7.377" y1="17.6467" x2="14.4042" y2="27.6983" gradientUnits="userSpaceOnUse">
<stop offset="0.00355872" stop-color="#F02E54"/>
<stop offset="1" stop-color="#8F1931"/>
</linearGradient>
<linearGradient id="paint13_linear_175_50" x1="19.5714" y1="12.4901" x2="22.1086" y2="17.8025" gradientUnits="userSpaceOnUse">
<stop stop-color="#1D262D"/>
<stop offset="0.6767" stop-color="#1D262D" stop-opacity="0.3233"/>
<stop offset="1" stop-color="#1D262D" stop-opacity="0"/>
</linearGradient>
<linearGradient id="paint14_linear_175_50" x1="16.9676" y1="6.47333" x2="21.9515" y2="18.1327" gradientUnits="userSpaceOnUse">
<stop stop-color="#C7C7C7"/>
<stop offset="1" stop-color="#A3A3A3"/>
</linearGradient>
<linearGradient id="paint15_linear_175_50" x1="16.374" y1="7.1498" x2="22.2641" y2="16.1511" gradientUnits="userSpaceOnUse">
<stop stop-color="#ADE5FF"/>
<stop offset="1" stop-color="#76C9F0"/>
</linearGradient>
<linearGradient id="paint16_linear_175_50" x1="21.641" y1="8.32109" x2="15.3445" y2="12.4904" gradientUnits="userSpaceOnUse">
<stop stop-color="#F9FBFC"/>
<stop offset="1" stop-color="#F9FBFC" stop-opacity="0"/>
</linearGradient>
<linearGradient id="paint17_linear_175_50" x1="22.4479" y1="9.53961" x2="16.1514" y2="13.7089" gradientUnits="userSpaceOnUse">
<stop stop-color="#F9FBFC"/>
<stop offset="1" stop-color="#F9FBFC" stop-opacity="0"/>
</linearGradient>
<linearGradient id="paint18_linear_175_50" x1="14.3807" y1="18.7438" x2="15.7863" y2="21.8927" gradientUnits="userSpaceOnUse">
<stop stop-color="#1D262D"/>
<stop offset="1" stop-color="#1D262D" stop-opacity="0"/>
</linearGradient>
<clipPath id="clip0_175_50">
<rect width="33.8357" height="30" fill="white"/>
</clipPath>
</defs>
</svg>
