<svg width="58" height="50" viewBox="0 0 58 50" fill="none" xmlns="http://www.w3.org/2000/svg">
<path d="M46.7328 32.4823C48.1858 33.9337 49.6147 35.361 51.0452 36.7899C53.0424 38.7855 55.038 40.7811 57.0337 42.7784C57.6261 43.3708 57.822 44.074 57.5362 44.8671C57.2761 45.5896 56.7286 46.0022 55.974 46.105C55.2628 46.2013 54.7057 45.893 54.2112 45.3969C50.9761 42.149 47.7298 38.9107 44.4915 35.6644C44.339 35.5103 44.2378 35.3064 44.1094 35.1218C40.314 37.9506 36.2248 39.036 31.7102 38.177C27.8602 37.4433 24.7198 35.4782 22.3469 32.3523C17.6251 26.1342 18.3412 17.3537 23.9829 11.9641C29.6326 6.56638 38.4179 6.25331 44.4273 11.232C50.419 16.1913 52.1401 25.3571 46.7328 32.4823ZM46.1484 23.111C46.1388 16.6666 40.9931 11.545 34.5278 11.5418C28.2166 11.5402 23.0597 16.7741 23.079 23.1608C23.0967 29.4367 28.2953 34.6128 34.5808 34.6112C40.9562 34.6112 46.158 29.4399 46.1484 23.111Z" fill="url(#paint0_linear_169_963)"/>
<path d="M28.8732 0.00153444C37.7051 0.00153444 46.5385 0.00153444 55.3704 0.00153444C55.5903 0.00153444 55.8135 -0.00970404 56.0302 0.0208004C56.9983 0.154057 57.7208 1.02424 57.6855 1.99717C57.6502 2.94602 56.9004 3.74234 55.9451 3.83707C55.7862 3.85312 55.6256 3.8467 55.4651 3.8467C37.7195 3.8467 19.9756 3.84509 2.23002 3.85312C1.30043 3.85312 0.571539 3.55771 0.173376 2.69395C-0.378916 1.49946 0.454338 0.120341 1.77566 0.00956193C1.97474 -0.00649305 2.17543 0.00153444 2.37612 0.00153444C11.208 0.00153444 20.0414 0.00153444 28.8732 0.00153444Z" fill="url(#paint1_linear_169_963)"/>
<path d="M23.0758 46.15C30.0662 46.15 37.0549 46.1484 44.0452 46.1516C45.54 46.1516 46.5081 47.3942 46.0345 48.7027C45.7567 49.4718 45.1851 49.8924 44.376 49.9871C44.1785 50.0096 43.9762 49.9968 43.7755 49.9968C29.9763 49.9968 16.177 49.9984 2.37776 49.9919C2.02134 49.9919 1.64887 49.9807 1.31332 49.8763C0.427085 49.6018 -0.10594 48.7156 0.016078 47.8181C0.138096 46.919 0.887863 46.2206 1.80621 46.1564C2.00529 46.1419 2.20598 46.1516 2.40666 46.1516C9.29746 46.15 16.1866 46.15 23.0758 46.15Z" fill="url(#paint2_linear_169_963)"/>
<path d="M7.69678 15.3854C5.8344 15.3854 3.97202 15.3886 2.10965 15.3838C0.883047 15.3806 0.0144729 14.5875 0.00483992 13.4781C-0.00479306 12.3382 0.865386 11.5419 2.13373 11.5403C5.83761 11.537 9.5431 11.537 13.247 11.5403C14.5137 11.5419 15.3903 12.3398 15.3823 13.4749C15.3759 14.6068 14.5009 15.3822 13.2213 15.3854C11.3814 15.387 9.53828 15.3854 7.69678 15.3854Z" fill="url(#paint3_linear_169_963)"/>
<path d="M7.66147 26.9225C5.81996 26.9225 3.97685 26.9257 2.13534 26.9209C0.870212 26.9177 -0.00478381 26.115 0.00645467 24.9799C0.0160877 23.8641 0.87824 23.079 2.11126 23.0774C5.83601 23.0741 9.56077 23.0741 13.2855 23.0774C14.5105 23.079 15.3791 23.8753 15.3855 24.9863C15.3919 26.1005 14.5266 26.9161 13.3096 26.9193C11.4264 26.9273 9.54471 26.9225 7.66147 26.9225Z" fill="url(#paint4_linear_169_963)"/>
<path d="M7.72407 34.6129C9.56557 34.6129 11.4087 34.6097 13.2502 34.6145C14.5153 34.6177 15.3919 35.4172 15.3823 36.5507C15.3743 37.6617 14.5073 38.4564 13.2791 38.4564C9.55433 38.4596 5.82958 38.4596 2.10482 38.4564C0.878225 38.4548 0.0096509 37.6585 0.00322891 36.5475C-0.00479858 35.4076 0.865381 34.6145 2.13533 34.6129C3.99931 34.6113 5.86169 34.6129 7.72407 34.6129Z" fill="url(#paint5_linear_169_963)"/>
<defs>
<linearGradient id="paint0_linear_169_963" x1="38.4472" y1="7.69702" x2="38.4472" y2="46.1226" gradientUnits="userSpaceOnUse">
<stop stop-color="#20D4FE"/>
<stop offset="1" stop-color="#B722FF"/>
</linearGradient>
<linearGradient id="paint1_linear_169_963" x1="28.8436" y1="-0.000488281" x2="28.8436" y2="3.85312" gradientUnits="userSpaceOnUse">
<stop stop-color="#20D4FE"/>
<stop offset="1" stop-color="#B722FF"/>
</linearGradient>
<linearGradient id="paint2_linear_169_963" x1="23.0772" y1="46.1484" x2="23.0772" y2="50.0004" gradientUnits="userSpaceOnUse">
<stop stop-color="#20D4FE"/>
<stop offset="1" stop-color="#B722FF"/>
</linearGradient>
<linearGradient id="paint3_linear_169_963" x1="7.69355" y1="11.5378" x2="7.69355" y2="15.3865" gradientUnits="userSpaceOnUse">
<stop stop-color="#20D4FE"/>
<stop offset="1" stop-color="#B722FF"/>
</linearGradient>
<linearGradient id="paint4_linear_169_963" x1="7.69595" y1="23.075" x2="7.69595" y2="26.924" gradientUnits="userSpaceOnUse">
<stop stop-color="#20D4FE"/>
<stop offset="1" stop-color="#B722FF"/>
</linearGradient>
<linearGradient id="paint5_linear_169_963" x1="7.69277" y1="34.6118" x2="7.69277" y2="38.4588" gradientUnits="userSpaceOnUse">
<stop stop-color="#20D4FE"/>
<stop offset="1" stop-color="#B722FF"/>
</linearGradient>
</defs>
</svg>
