<svg width="52" height="50" viewBox="0 0 52 50" fill="none" xmlns="http://www.w3.org/2000/svg">
<path d="M0 36.7179C0 25.4737 0 14.2283 0 2.98404C0.416171 0.974023 1.9708 -0.00252501 3.79867 4.90282e-06C18.5063 0.0177143 33.2153 0.00885961 47.9242 0.0139194C48.3075 0.0139194 48.7047 0.0303639 49.0741 0.125236C50.7539 0.559116 51.7115 1.87341 51.7115 3.71772C51.714 14.4205 51.7127 25.1246 51.7127 35.8274C51.7127 38.2397 50.3011 39.6489 47.8863 39.6489C42.5013 39.6501 37.1151 39.6489 31.7302 39.6489C31.5329 39.6489 31.3343 39.6489 31.0421 39.6489C31.1344 40.2687 31.1774 40.8354 31.3064 41.3819C31.8327 43.617 33.1014 44.844 35.4315 44.8061C35.9362 44.7972 36.4409 44.8036 36.9456 44.8187C38.1714 44.8542 39.1327 45.5094 39.4869 46.5416C40.0916 48.3012 38.8608 49.9608 36.8963 49.9861C34.9445 50.0114 32.9926 49.9924 31.0395 49.9924C25.7052 49.9924 20.3696 49.9912 15.0353 49.9949C14.3497 49.9949 13.6932 49.9115 13.1239 49.4852C12.2397 48.8236 11.8754 47.7117 12.1955 46.6555C12.5281 45.5587 13.4503 44.8731 14.7001 44.8213C15.3718 44.7934 16.046 44.8149 16.719 44.7896C18.1268 44.7378 19.2261 44.1217 19.8598 42.8555C20.1634 42.2496 20.319 41.564 20.4911 40.9012C20.5923 40.5103 20.5935 40.0929 20.6441 39.6489C20.3494 39.6489 20.1495 39.6489 19.9497 39.6489C14.547 39.6489 9.14565 39.6615 3.74301 39.6311C3.12445 39.6273 2.4692 39.4781 1.89744 39.239C0.803248 38.7836 0.29853 37.8109 0 36.7179ZM5.19265 30.9611C18.9782 30.9611 32.7346 30.9611 46.5125 30.9611C46.5125 22.3619 46.5125 13.7906 46.5125 5.22302C32.7181 5.22302 18.9617 5.22302 5.19265 5.22302C5.19265 13.8184 5.19265 22.3759 5.19265 30.9611ZM49.9848 32.8105C33.8705 32.8105 17.8119 32.8105 1.76209 32.8105C1.74311 32.8763 1.72667 32.9066 1.72667 32.9383C1.72287 33.8806 1.72034 34.823 1.72034 35.7654C1.72034 37.3188 2.33258 37.9298 3.89101 37.9298C18.5304 37.9298 33.1697 37.9298 47.8091 37.9298C47.9773 37.9298 48.1456 37.9348 48.3138 37.9247C49.2322 37.8729 49.9481 37.2012 49.976 36.2815C50.0114 35.1393 49.9848 33.9958 49.9848 32.8105ZM3.44069 30.9877C3.44069 30.7651 3.44069 30.5677 3.44069 30.3704C3.44069 21.8534 3.44069 13.3352 3.44069 4.81823C3.44069 4.63355 3.42804 4.44507 3.4584 4.26418C3.53429 3.79614 3.79614 3.50394 4.29327 3.47358C4.46151 3.46346 4.62975 3.46346 4.79799 3.46346C18.8365 3.46346 32.875 3.46346 46.9148 3.46346C47.083 3.46346 47.2512 3.46346 47.4195 3.47358C47.9166 3.50394 48.1772 3.79614 48.2544 4.26418C48.2835 4.44507 48.2721 4.63355 48.2721 4.81823C48.2733 13.3352 48.2721 21.8534 48.2721 30.3704C48.2721 30.5677 48.2721 30.7651 48.2721 30.9763C48.8729 30.9763 49.4181 30.9763 49.9924 30.9763C49.9924 30.7714 49.9924 30.6044 49.9924 30.4374C49.9924 21.5498 49.9924 12.6622 49.9924 3.77338C49.9924 2.38572 49.346 1.73806 47.9508 1.73806C33.2216 1.73679 18.4924 1.73679 3.76452 1.73806C2.36927 1.73806 1.72287 2.38572 1.72287 3.77338C1.72161 12.661 1.72287 21.5486 1.72287 30.4374C1.72287 30.6145 1.72287 30.7916 1.72287 30.9864C2.32246 30.9877 2.85501 30.9877 3.44069 30.9877ZM22.386 39.6691C22.2519 41.5387 21.8458 43.2793 20.6429 44.7631C24.1518 44.7631 27.5837 44.7631 31.0826 44.7631C29.8353 43.2502 29.4735 41.4906 29.3154 39.6691C26.9854 39.6691 24.7198 39.6691 22.386 39.6691ZM25.8051 48.2658C29.4077 48.2658 33.0091 48.2657 36.6117 48.2645C36.8128 48.2645 37.0177 48.267 37.2151 48.2316C37.6312 48.157 37.8678 47.8901 37.8931 47.4714C37.9196 47.0324 37.7173 46.72 37.2846 46.6074C37.0772 46.553 36.852 46.5429 36.6357 46.5441C34.7509 46.5517 32.8661 46.5783 30.9826 46.5758C25.9342 46.5707 20.8845 46.5517 15.836 46.5441C15.3667 46.5429 14.8898 46.5378 14.4306 46.615C13.993 46.6883 13.7944 47.0337 13.8209 47.4726C13.8462 47.8926 14.0828 48.1582 14.499 48.2329C14.6963 48.2683 14.9012 48.2658 15.1023 48.2658C18.6683 48.2658 22.2367 48.2658 25.8051 48.2658Z" fill="url(#paint0_linear_178_54)"/>
<path d="M39.0581 23.293C39.7538 23.9837 40.3774 24.5972 40.9922 25.217C41.5829 25.8128 41.5817 26.21 40.9897 26.8083C40.3154 27.4901 39.6362 28.1669 38.9556 28.8436C38.3434 29.4508 37.931 29.4546 37.3289 28.855C36.7116 28.2403 36.1006 27.6192 35.4453 26.9601C35.0456 27.3674 34.6914 27.7457 34.317 28.1036C33.7136 28.6817 33.0128 28.5097 32.756 27.7153C32.5334 27.0284 32.2994 26.3415 32.1438 25.6382C32.0338 25.1398 31.8276 24.9868 31.3039 24.9893C25.0449 25.0108 18.7846 25.0032 12.5256 25.0032C11.4504 25.0032 11.2088 24.7667 11.2088 23.7117C11.2075 18.5127 11.2062 13.3125 11.205 8.1135C11.205 7.14201 11.4466 6.89914 12.4269 6.89914C20.2342 6.89788 28.0415 6.89788 35.8489 6.89914C36.814 6.89914 37.0658 7.15719 37.0658 8.12489C37.0645 11.8768 37.0708 15.6299 37.0531 19.3818C37.0518 19.7752 37.1745 19.9409 37.5439 20.037C38.2586 20.2217 38.9632 20.4468 39.6703 20.6632C40.6 20.9465 40.7835 21.6346 40.1042 22.3177C39.7854 22.6352 39.4439 22.9338 39.0581 23.293ZM31.3987 23.2702C31.0167 21.9838 30.6499 20.7327 30.2742 19.4842C30.1528 19.0807 30.0819 18.6936 30.4209 18.3584C30.7574 18.0245 31.1432 18.0877 31.548 18.2104C32.7965 18.5874 34.0476 18.9529 35.3011 19.3248C35.3011 17.187 35.3011 15.0809 35.3011 12.9709C27.8303 12.9709 20.4037 12.9709 12.9696 12.9709C12.9696 16.4217 12.9696 19.8409 12.9696 23.2702C19.1122 23.2702 25.2169 23.2702 31.3987 23.2702ZM12.9278 11.1747C20.4176 11.1747 27.848 11.1747 35.3062 11.1747C35.3062 10.3259 35.3062 9.51002 35.3062 8.67514C27.8392 8.67514 20.3974 8.67514 12.9278 8.67514C12.9278 9.38226 12.9278 10.0539 12.9278 10.7256C12.9278 10.8585 12.9278 10.99 12.9278 11.1747ZM34.0261 25.9469C34.1741 25.8065 34.2474 25.7394 34.3183 25.6699C35.2177 24.7857 35.6983 24.7857 36.5952 25.6939C37.0986 26.2037 37.5857 26.7299 38.0119 27.1764C38.4901 26.7451 38.8974 26.3782 39.3427 25.9772C38.7026 25.3448 38.0739 24.7414 37.4668 24.1165C36.9393 23.5738 36.9481 23.0767 37.4617 22.5277C37.6249 22.3531 37.7931 22.1836 38.0082 21.9597C36.0981 21.3968 34.2803 20.8605 32.3551 20.2938C32.9268 22.2292 33.4657 24.0482 34.0261 25.9469Z" fill="url(#paint1_linear_178_54)"/>
<path d="M25.8823 34.4891C26.6881 34.4891 27.4952 34.4827 28.3009 34.4916C28.9069 34.4979 29.2826 34.8281 29.2901 35.334C29.2977 35.8375 28.9195 36.2018 28.3237 36.2056C26.678 36.217 25.031 36.2182 23.3853 36.2056C22.7895 36.2018 22.4126 35.835 22.4214 35.3315C22.4303 34.8255 22.806 34.4992 23.4131 34.4928C24.2366 34.4815 25.0589 34.4891 25.8823 34.4891Z" fill="url(#paint2_linear_178_54)"/>
<path d="M18.9883 16.3902C20.0636 16.3902 21.14 16.3838 22.2152 16.3927C22.9565 16.399 23.2538 16.6925 23.2614 17.4338C23.2728 18.4584 23.2728 19.4843 23.2614 20.5089C23.2525 21.2375 22.9375 21.5537 22.2102 21.5563C20.0421 21.5638 17.8739 21.5638 15.7058 21.5563C14.9822 21.5537 14.6571 21.2236 14.6508 20.5025C14.6419 19.4779 14.6407 18.452 14.6508 17.4274C14.6571 16.7064 14.9734 16.3978 15.7108 16.3914C16.8038 16.3838 17.8954 16.3902 18.9883 16.3902ZM16.3851 19.8068C18.1168 19.8068 19.803 19.8068 21.4993 19.8068C21.4993 19.2313 21.4993 18.6886 21.4993 18.156C19.7726 18.156 18.0864 18.156 16.3851 18.156C16.3851 18.7152 16.3851 19.2338 16.3851 19.8068Z" fill="url(#paint3_linear_178_54)"/>
<defs>
<linearGradient id="paint0_linear_178_54" x1="25.8565" y1="0" x2="25.8565" y2="49.9992" gradientUnits="userSpaceOnUse">
<stop stop-color="#20D4FE"/>
<stop offset="1" stop-color="#B722FF"/>
</linearGradient>
<linearGradient id="paint1_linear_178_54" x1="26.3197" y1="6.89819" x2="26.3197" y2="29.3019" gradientUnits="userSpaceOnUse">
<stop stop-color="#20D4FE"/>
<stop offset="1" stop-color="#B722FF"/>
</linearGradient>
<linearGradient id="paint2_linear_178_54" x1="25.8558" y1="34.4866" x2="25.8558" y2="36.2146" gradientUnits="userSpaceOnUse">
<stop stop-color="#20D4FE"/>
<stop offset="1" stop-color="#B722FF"/>
</linearGradient>
<linearGradient id="paint3_linear_178_54" x1="18.9568" y1="16.3877" x2="18.9568" y2="21.5619" gradientUnits="userSpaceOnUse">
<stop stop-color="#20D4FE"/>
<stop offset="1" stop-color="#B722FF"/>
</linearGradient>
</defs>
</svg>
